<svg width="22" height="19" viewBox="0 0 22 19" fill="none" xmlns="http://www.w3.org/2000/svg">
<path d="M22 17.7848C21.9982 18.0475 21.8931 18.2988 21.7075 18.4846C21.5219 18.6704 21.2706 18.7757 21.008 18.7778H2.992C2.72881 18.7776 2.4765 18.6728 2.29049 18.4866C2.10448 18.3004 2 18.048 2 17.7848V16.7778H20V5.07783L12 12.2778L2 3.27783V1.77783C2 1.51262 2.10536 1.25826 2.29289 1.07073C2.48043 0.883189 2.73478 0.777832 3 0.777832H21C21.2652 0.777832 21.5196 0.883189 21.7071 1.07073C21.8946 1.25826 22 1.51262 22 1.77783V17.7848ZM4.434 2.77783L12 9.58783L19.566 2.77783H4.434ZM0 12.7778H8V14.7778H0V12.7778ZM0 7.77783H5V9.77783H0V7.77783Z" fill="#C1AC7F"/>
</svg>
