<svg width="39" height="36" viewBox="0 0 39 36" fill="none" xmlns="http://www.w3.org/2000/svg">
<path d="M26.9555 35.3933V21.6961H31.8487L32.5807 16.3713H26.9555V12.9736C26.9555 11.432 27.4128 10.3801 29.7702 10.3801H32.7779V5.6177C31.3218 5.47287 29.8585 5.40263 28.3943 5.4073C24.0591 5.4073 21.0913 7.88876 21.0913 12.4466V16.3713H16.1876V21.6961H21.0913V35.3933H3.04123C2.48497 35.3933 1.95149 35.1861 1.55816 34.8173C1.16482 34.4486 0.943848 33.9485 0.943848 33.427V1.96629C0.943848 1.4448 1.16482 0.944665 1.55816 0.575913C1.95149 0.207162 2.48497 0 3.04123 0H36.5993C37.1555 0 37.689 0.207162 38.0824 0.575913C38.4757 0.944665 38.6967 1.4448 38.6967 1.96629V33.427C38.6967 33.9485 38.4757 34.4486 38.0824 34.8173C37.689 35.1861 37.1555 35.3933 36.5993 35.3933H26.9555Z" fill="black"/>
</svg>
