<svg width="27" height="27" viewBox="0 0 27 27" fill="none" xmlns="http://www.w3.org/2000/svg">
<path d="M5.65924 3.58807C5.65887 4.33302 5.36039 5.04731 4.82947 5.5738C4.29854 6.1003 3.57867 6.39587 2.82821 6.3955C2.07774 6.39513 1.35817 6.09884 0.827777 5.57182C0.297385 5.0448 -0.000374877 4.33021 3.54214e-07 3.58526C0.000375585 2.84031 0.298855 2.12602 0.829778 1.59953C1.3607 1.07303 2.08057 0.77746 2.83104 0.777832C3.5815 0.778205 4.30107 1.07449 4.83147 1.60151C5.36186 2.12854 5.65962 2.84312 5.65924 3.58807ZM5.74413 8.47544H0.0848889V26.0587H5.74413V8.47544ZM14.6857 8.47544H9.05479V26.0587H14.6291V16.8317C14.6291 11.6916 21.3778 11.2141 21.3778 16.8317V26.0587H26.9663V14.9217C26.9663 6.25646 16.9777 6.57948 14.6291 10.8349L14.6857 8.47544Z" fill="#C1AC7F"/>
</svg>
