<svg width="167" height="88" viewBox="0 0 167 88" fill="none" xmlns="http://www.w3.org/2000/svg">
<path d="M5.56533 31.0756C6.52918 30.6735 7.33881 30.0952 7.99422 29.3407C8.64964 28.5861 9.13982 27.6828 9.47028 26.6254C9.79524 25.5679 9.96047 24.3892 9.96047 23.0784C9.96047 22.6048 9.92191 21.9989 9.8393 21.2664C9.75668 20.5284 9.64102 19.7242 9.49782 18.854L9.09025 16.315L6.1161 16.7776L6.6889 20.4072C6.78253 20.9359 6.85413 21.4316 6.90921 21.8943C6.96428 22.3569 6.99182 22.7975 6.99182 23.2161C7.00834 24.7803 6.63382 25.8984 5.85724 26.5703C5.08616 27.2422 3.86896 27.5782 2.21665 27.5782H1.12613V31.6704H2.24419C3.49994 31.6704 4.60699 31.4721 5.57084 31.0701L5.56533 31.0756Z" fill="white"/>
<path d="M37.653 25.1271H55.0298C57.1778 25.1271 58.8301 24.7636 59.9977 24.0366C60.5044 24.4552 61.0497 24.7416 61.6225 24.8958C62.1953 25.05 62.8012 25.1271 63.4345 25.1271H74.2131C76.0306 25.1106 77.3194 24.6369 78.074 23.7061C78.8285 22.7808 79.2086 21.3433 79.2086 19.3936V4.93591H75.937V19.3936C75.937 19.9554 75.8213 20.374 75.5955 20.6328C75.3697 20.8972 74.9071 21.0294 74.2186 21.0294H63.44C63.0049 21.0294 62.5588 21.0018 62.1017 20.9468C62.2284 20.4401 62.2944 19.8397 62.2944 19.1458C62.2944 17.0528 61.7602 15.4226 60.6862 14.2494C59.6122 13.0763 58.004 12.487 55.856 12.487C54.5837 12.487 53.4161 12.7018 52.3641 13.1259C51.3066 13.5555 50.3152 14.2494 49.3899 15.2133L49.1696 15.1031L49.4946 11.9086V4.93591H46.223V19.8618L45.5401 21.0349H36.21C35.9016 21.0349 35.6262 21.0679 35.3894 21.1285C35.1525 21.1946 34.9433 21.3048 34.7615 21.47C34.5797 21.6352 34.409 21.85 34.2438 22.1254C34.0785 22.4008 33.9188 22.7368 33.7536 23.1333L31.3798 28.7016C30.851 27.8259 30.4269 27.0438 30.0965 26.3553C29.7715 25.6614 29.6063 25.028 29.6063 24.4442C29.6063 24.1688 29.6228 23.9209 29.6614 23.6951C29.6999 23.4693 29.755 23.227 29.8376 22.9736C29.9202 22.7202 30.0304 22.4339 30.1791 22.1144C30.3223 21.795 30.5041 21.4094 30.7244 20.9523L31.8149 18.7162L29.1161 17.4053L28.0531 19.6139C27.7998 20.1427 27.4528 20.5117 27.0177 20.721C26.5826 20.9302 25.9272 21.0349 25.0514 21.0349H23.1127C23.0191 18.6886 22.4959 16.8601 21.532 15.5492C20.5682 14.2384 19.2573 13.583 17.605 13.583C16.8064 13.583 16.0629 13.7537 15.3799 14.0897C14.697 14.4257 14.1077 14.8883 13.6065 15.4831C13.1053 16.0725 12.7142 16.7774 12.4333 17.5816C12.1524 18.3912 12.0092 19.2669 12.0092 20.2143C12.0092 21.7619 12.4223 22.9681 13.2485 23.8273C14.0746 24.692 15.2257 25.1216 16.7018 25.1216H19.8687C19.4336 25.8872 18.6901 26.4875 17.6436 26.9226C16.5971 27.3577 15.2092 27.578 13.4853 27.578H11.7393V31.6702H13.7607C16.2501 31.6702 18.2494 31.103 19.7475 29.9629C21.2456 28.8283 22.2535 27.209 22.7602 25.1216H23.6855C24.3024 25.1216 24.8311 25.0996 25.2662 25.0555C25.7013 25.0114 26.0814 24.9398 26.4008 24.8517C26.7203 24.7636 26.9846 24.6534 27.2049 24.5268C27.4253 24.4001 27.6125 24.2514 27.7777 24.0917L27.943 24.2294C27.6896 24.5378 27.4142 24.9839 27.1223 25.5677C26.8304 26.1515 26.6872 26.8235 26.6872 27.589C26.6872 27.9526 26.7368 28.305 26.8359 28.641C26.9351 28.977 27.0893 29.335 27.2986 29.7205C27.5079 30.1006 27.7612 30.5191 28.0641 30.9763C28.3616 31.4279 28.7141 31.9401 29.1161 32.5019H32.8008L35.83 25.1381H37.6585L37.653 25.1271ZM49.2743 19.0962C49.6213 18.5674 49.9848 18.1434 50.3648 17.8129C50.7448 17.4879 51.1744 17.2291 51.6481 17.0473C52.1217 16.8656 52.667 16.7444 53.2839 16.6783C53.9007 16.6122 54.6222 16.5847 55.4374 16.5847H56.258C57.4422 16.5847 58.2849 16.7774 58.7971 17.1575C59.3038 17.5375 59.5626 18.1213 59.5626 18.9034C59.5626 19.3385 59.491 19.6965 59.3423 19.9664C59.1991 20.2418 58.9458 20.4511 58.5933 20.6053C58.2408 20.7595 57.7726 20.8697 57.1998 20.9303C56.627 20.9963 55.9055 21.0239 55.0298 21.0239H48.1837L48.1011 20.8586L49.2743 19.0852V19.0962ZM20.3809 21.0349H16.9717C16.2777 21.0349 15.7324 20.9302 15.3359 20.721C14.9338 20.5117 14.7355 20.1592 14.7355 19.669C14.7355 19.0852 14.9779 18.6115 15.457 18.237C15.9362 17.8625 16.5365 17.6752 17.2415 17.6752C18.1503 17.6752 18.8993 17.9781 19.4942 18.573C20.0835 19.1733 20.3809 19.9664 20.3809 20.9468V21.0294V21.0349Z" fill="white"/>
<path d="M54.7601 10.3115H55.3053C55.779 10.3115 56.1645 10.1683 56.4674 9.87642C56.7649 9.58451 56.9191 9.12186 56.9191 8.48297C56.9191 7.84408 56.7704 7.38143 56.4674 7.08953C56.1645 6.79762 55.779 6.65442 55.3053 6.65442H54.7601C54.2864 6.65442 53.9009 6.79762 53.5979 7.08953C53.3005 7.38143 53.1463 7.84408 53.1463 8.48297C53.1463 9.12186 53.295 9.58451 53.5979 9.87642C53.8953 10.1683 54.2864 10.3115 54.7601 10.3115Z" fill="white"/>
<path d="M85.7463 4.93591H82.4747V25.1271H85.7463V4.93591Z" fill="white"/>
<path d="M7.88399 61.3295H7.33873C6.86507 61.3295 6.47953 61.4727 6.17661 61.7646C5.87368 62.0565 5.72498 62.5192 5.72498 63.1581C5.72498 63.797 5.87368 64.2596 6.17661 64.5515C6.47402 64.8434 6.86507 64.9866 7.33873 64.9866H7.88399C8.35765 64.9866 8.74319 64.8434 9.04611 64.5515C9.34904 64.2596 9.49774 63.797 9.49774 63.1581C9.49774 62.5192 9.34904 62.0565 9.04611 61.7646C8.7487 61.4727 8.35765 61.3295 7.88399 61.3295Z" fill="white"/>
<path d="M12.1966 61.3295H11.6513C11.1776 61.3295 10.7921 61.4727 10.4892 61.7646C10.1862 62.0565 10.0375 62.5192 10.0375 63.1581C10.0375 63.797 10.1862 64.2596 10.4892 64.5515C10.7866 64.8434 11.1776 64.9866 11.6513 64.9866H12.1966C12.6702 64.9866 13.0558 64.8434 13.3587 64.5515C13.6616 64.2596 13.8103 63.797 13.8103 63.1581C13.8103 62.5192 13.6616 62.0565 13.3587 61.7646C13.0613 61.4727 12.6702 61.3295 12.1966 61.3295Z" fill="white"/>
<path d="M27.3923 41.0336C26.7369 41.0336 26.1586 41.1437 25.6574 41.3585C25.1562 41.5788 24.7045 41.8762 24.308 42.2563C23.9059 42.6363 23.5644 43.0824 23.2725 43.5946C22.9806 44.1014 22.7163 44.6521 22.4794 45.2304L21.7139 47.1141C21.5156 47.6208 21.2567 47.9788 20.9483 48.177C20.6399 48.3753 20.1497 48.4745 19.4777 48.4745C19.1142 48.4745 18.7342 48.4634 18.3431 48.4469C17.9521 48.4304 17.5225 48.3974 17.0599 48.3533C16.5972 48.3092 16.0905 48.2486 15.5452 48.177C15 48.1054 14.3831 48.0118 13.6891 47.9017L10.4451 47.4115V51.5037L16.8836 52.5116C16.4815 53.2001 15.7711 53.7398 14.7411 54.1198C13.7112 54.4999 12.4169 54.6926 10.8527 54.6926H8.67164C6.94222 54.6926 5.59835 54.3787 4.6345 53.7508C3.67066 53.123 3.18598 52.2362 3.18598 51.0906C3.18598 50.5068 3.29062 49.8183 3.49992 49.0197C3.70921 48.2211 3.99561 47.428 4.35912 46.6459L1.73746 45.8803C1.33539 46.8442 1.02145 47.8411 0.79564 48.8655C0.569824 49.8954 0.454163 50.8152 0.454163 51.6359C0.454163 52.82 0.663455 53.8665 1.08204 54.7863C1.50062 55.7061 2.11198 56.4882 2.91059 57.1326C3.70921 57.777 4.68958 58.2671 5.84619 58.6031C7.00281 58.9391 8.30813 59.1098 9.76216 59.1098C11.3649 59.1098 12.7914 58.9226 14.0471 58.548C15.3029 58.1735 16.3659 57.6393 17.2416 56.9398C18.1173 56.2403 18.7838 55.3866 19.2464 54.3732C19.5108 53.7949 19.698 53.167 19.8137 52.5006C20.3039 52.4455 20.739 52.3519 21.1025 52.2197C21.7304 51.9939 22.2536 51.5973 22.6722 51.0355L29.9589 53.2717L32.553 49.4273V48.6342C32.553 46.2494 32.1234 44.3878 31.2587 43.0439C30.394 41.7 29.1052 41.0226 27.3978 41.0226L27.3923 41.0336ZM29.6559 48.9206L24.1703 47.2573L24.2254 47.092C24.4457 46.4201 24.7651 45.9299 25.1947 45.616C25.6243 45.3075 26.1255 45.1533 26.7093 45.1533C27.6181 45.1533 28.3396 45.4618 28.8628 46.0786C29.3916 46.6955 29.6559 47.5492 29.6559 48.6452V48.9206Z" fill="white"/>
<path d="M62.2063 47.2024C61.7712 47.329 61.2865 47.4282 60.7578 47.5053C60.229 47.5769 59.7278 47.6154 59.2597 47.6154C57.8387 47.6154 56.7427 47.3676 55.9606 46.8664C55.1785 46.3652 54.7874 45.6547 54.7874 44.7239C54.7874 43.9583 55.0683 43.3745 55.6356 42.967C56.1974 42.5594 56.9905 42.3556 58.0094 42.3556C58.7365 42.3556 59.3643 42.5043 59.8931 42.8072C60.4218 43.1046 60.8844 43.5783 61.2865 44.2117L64.2056 41.6176C63.5887 40.5821 62.8121 39.7615 61.8868 39.1611C60.9616 38.5608 59.7609 38.2634 58.2848 38.2634C57.3926 38.2634 56.5719 38.4341 55.8174 38.7701C55.0628 39.1061 54.4074 39.5687 53.8511 40.1635C53.2948 40.7529 52.8597 41.4413 52.5403 42.2234C52.2209 43.0055 52.0611 43.8427 52.0611 44.7349C52.0611 45.4289 52.1548 46.0733 52.3475 46.6736C52.5403 47.274 52.8157 47.8358 53.1792 48.3645V48.5022H49.9076C48.6353 48.5022 47.9965 47.8633 47.9965 46.591V32.4032H44.7249V43.6169C44.7249 44.1621 44.6753 44.6413 44.5762 45.0489C44.477 45.4564 44.3008 45.8144 44.0419 46.1118C43.7886 46.4148 43.4471 46.6791 43.0175 46.916C42.5879 47.1528 42.0481 47.3731 41.3927 47.5714L39.2943 35.7849L36.0723 36.3577L38.1983 48.392L33.7811 49.4275L34.7064 53.4095L41.0898 51.9114C42.1638 51.6581 43.0065 51.1128 43.6123 50.2757C44.2237 49.4385 44.6533 48.2654 44.9066 46.7562H45.0719V47.0316C45.0719 48.9428 45.4794 50.3418 46.3001 51.234C47.1207 52.1262 48.4095 52.5779 50.172 52.5999C51.7362 52.5999 53.0801 52.5834 54.2091 52.5448C55.3382 52.5063 56.3351 52.4457 57.2108 52.3521C58.0865 52.2639 58.8852 52.1373 59.6122 51.983C60.3392 51.8288 61.0937 51.6306 61.8758 51.3937L65.8854 50.1655L64.85 46.4809L62.2063 47.2189V47.2024Z" fill="white"/>
<path d="M79.4235 46.602C79.2582 46.2771 79.0434 45.9466 78.7681 45.6217C78.4927 45.2967 78.1677 44.9497 77.7877 44.5862L76.8349 43.7105C77.2369 43.347 77.5784 42.9945 77.8703 42.6585C78.1622 42.3226 78.3935 41.9701 78.5643 41.6066C78.735 41.2431 78.8672 40.863 78.9443 40.461C79.0269 40.0589 79.0655 39.6238 79.0655 39.1501V32.3867H75.7939V39.1501C75.7939 39.8221 75.7278 40.3618 75.5901 40.7749C75.4524 41.1825 75.2321 41.5625 74.9237 41.9095L68.375 35.7409L66.0012 38.3075L72.3296 44.2558L67.637 48.4857V52.5779H76.1244C76.6696 52.5779 77.1708 52.4843 77.6224 52.2915C78.0796 52.0987 78.4706 51.8343 78.8066 51.4874C79.1426 51.1404 79.4069 50.7383 79.5997 50.2757C79.7925 49.813 79.8861 49.3063 79.8861 48.7611C79.8861 48.359 79.8476 47.9845 79.776 47.6265C79.7044 47.274 79.5832 46.9325 79.4235 46.602ZM71.2886 48.4802L71.2611 48.37L74.1526 45.9411L76.8789 48.4802H71.2886Z" fill="white"/>
<path d="M70.3357 56.5321C70.3357 56.3338 70.4293 56.1576 70.6221 56.0144C70.8149 55.8712 71.0627 55.7941 71.3711 55.7941C71.9329 55.7941 72.4341 56.0144 72.8692 56.4495L74.1801 54.6209C73.8165 54.2409 73.3869 53.938 72.8968 53.7232C72.4066 53.5029 71.8944 53.3982 71.3711 53.3982C70.4954 53.3982 69.7849 53.6461 69.2286 54.1473C68.6724 54.6485 68.397 55.2819 68.397 56.0419C68.397 56.6037 68.5787 57.0884 68.9422 57.4904L68.9147 57.6281H67.7691V59.8367H74.2351V57.4354H72.2138C70.9581 57.4354 70.3302 57.1324 70.3302 56.5376L70.3357 56.5321Z" fill="white"/>
<path d="M85.7463 32.3867H82.4747V52.5779H85.7463V32.3867Z" fill="white"/>
<path d="M96.2329 32.1662C96.2329 38.7644 96.7892 45.3406 97.8852 51.6689L99.0914 58.6251L105.937 60.3876C114.05 62.4805 122.565 63.5325 131.24 63.5325C139.914 63.5325 148.429 62.464 156.542 60.3876L163.388 58.6251L164.594 51.6689C165.685 45.3406 166.247 38.7644 166.247 32.1662C166.247 25.568 165.69 18.9918 164.594 12.6634L163.388 5.70722L156.542 3.94476C148.385 1.85183 139.892 0.777832 131.218 0.777832C122.543 0.777832 114.028 1.84632 105.915 3.92272L99.0693 5.68519L97.8632 12.6414C96.7726 18.9697 96.2108 25.5459 96.2108 32.1441L96.2329 32.1662ZM107.155 32.1662C107.155 26.1683 107.645 20.242 108.647 14.5085C115.868 12.6359 123.446 11.6996 131.207 11.6996C138.967 11.6996 146.546 12.6359 153.766 14.5085C154.747 20.2365 155.259 26.1683 155.259 32.1662C155.259 38.164 154.769 44.0903 153.766 49.8238C149.509 50.9144 145.119 51.6964 140.636 52.1426L144.001 60.8337L127.484 52.5391C121.017 52.2913 114.689 51.3825 108.625 49.7963C107.645 44.0683 107.133 38.1365 107.133 32.1386L107.155 32.1607V32.1662Z" fill="white"/>
<path d="M131.207 42.4217C136.871 42.4217 141.462 37.8302 141.462 32.1664C141.462 26.5025 136.871 21.911 131.207 21.911C125.543 21.911 120.951 26.5025 120.951 32.1664C120.951 37.8302 125.543 42.4217 131.207 42.4217Z" fill="white"/>
<path d="M10.6324 76.718H10.5829L9.71817 78.4474L7.41045 82.6388L5.15229 78.464L4.25454 76.5969H4.20497V84.4894H1.77057V72.6423H4.50238L7.40494 78.1941H7.43798L10.3075 72.6423H13.0558V84.4894H10.6269V76.7125L10.6324 76.718Z" fill="white"/>
<path d="M20.3424 84.6927C19.665 84.6927 19.0591 84.5825 18.5249 84.3622C17.9907 84.1419 17.5445 83.828 17.1755 83.4259C16.8065 83.0239 16.5311 82.5337 16.3439 81.9554C16.1566 81.3771 16.063 80.7327 16.063 80.0222C16.063 79.3117 16.1511 78.6838 16.3328 78.111C16.5146 77.5382 16.7845 77.048 17.137 76.6404C17.495 76.2329 17.9301 75.9189 18.4533 75.6986C18.971 75.4783 19.5659 75.3682 20.2378 75.3682C20.9758 75.3682 21.6037 75.4948 22.1324 75.7427C22.6612 75.9905 23.0908 76.3265 23.4212 76.7451C23.7572 77.1637 23.9995 77.6484 24.1538 78.1991C24.308 78.7499 24.3796 79.3227 24.3796 79.923V80.6721H18.6571V80.8043C18.6571 81.3881 18.8168 81.8507 19.1307 82.1922C19.4447 82.5337 19.9459 82.7044 20.6233 82.7044C21.1466 82.7044 21.5707 82.5998 21.8956 82.3905C22.2261 82.1812 22.529 81.9333 22.8154 81.6414L24.0711 83.2056C23.6746 83.6683 23.1569 84.0318 22.518 84.2961C21.8791 84.5605 21.1521 84.6872 20.3369 84.6872L20.3424 84.6927ZM20.2929 77.2243C19.7862 77.2243 19.3841 77.3895 19.0977 77.7255C18.8113 78.0614 18.6681 78.502 18.6681 79.0583V79.196H21.791V79.0418C21.791 78.4965 21.6698 78.0614 21.4275 77.7255C21.1851 77.3895 20.8051 77.2243 20.2984 77.2243H20.2929Z" fill="white"/>
<path d="M32.7183 82.9965H32.6357C32.5696 83.2334 32.4595 83.4592 32.3108 83.6685C32.1621 83.8778 31.9858 84.0595 31.7765 84.2137C31.5672 84.368 31.3304 84.4836 31.0605 84.5717C30.7962 84.6543 30.5208 84.6984 30.2399 84.6984C29.1053 84.6984 28.2516 84.3019 27.6733 83.5032C27.095 82.7046 26.8086 81.548 26.8086 80.0334C26.8086 78.5188 27.095 77.3622 27.6733 76.5691C28.2516 75.7759 29.1053 75.3794 30.2399 75.3794C30.8182 75.3794 31.3304 75.5391 31.7765 75.8531C32.2227 76.1725 32.5091 76.5801 32.6357 77.0758H32.7183V71.9316H35.2299V84.4946H32.7183V83.002V82.9965ZM31.0715 82.6551C31.5452 82.6551 31.9418 82.5394 32.2502 82.3081C32.5641 82.0767 32.7183 81.7573 32.7183 81.3497V78.7171C32.7183 78.3095 32.5641 77.99 32.2502 77.7587C31.9363 77.5274 31.5452 77.4117 31.0715 77.4117C30.5979 77.4117 30.2013 77.577 29.8929 77.9129C29.579 78.2489 29.4247 78.695 29.4247 79.2623V80.8045C29.4247 81.3718 29.579 81.8234 29.8929 82.1539C30.2068 82.4898 30.5979 82.6551 31.0715 82.6551Z" fill="white"/>
<path d="M39.9167 74.6245C39.4045 74.6245 39.0355 74.5088 38.8042 74.2775C38.5729 74.0462 38.4572 73.7488 38.4572 73.3852V73.0107C38.4572 72.6472 38.5729 72.3498 38.8042 72.1185C39.0355 71.8871 39.4045 71.7715 39.9167 71.7715C40.429 71.7715 40.798 71.8871 41.0293 72.1185C41.2606 72.3498 41.3763 72.6472 41.3763 73.0107V73.3852C41.3763 73.7488 41.2606 74.0462 41.0293 74.2775C40.798 74.5088 40.429 74.6245 39.9167 74.6245ZM38.661 75.5773H41.1725V84.4888H38.661V75.5773Z" fill="white"/>
<path d="M51.1856 84.4886C50.7339 84.4886 50.3539 84.3454 50.0565 84.0645C49.7591 83.7836 49.5663 83.4036 49.4892 82.9244H49.3901C49.2524 83.5028 48.9549 83.9379 48.4923 84.2408C48.0296 84.5382 47.4568 84.6924 46.7794 84.6924C45.8872 84.6924 45.1987 84.4556 44.725 83.9819C44.2514 83.5083 44.009 82.8804 44.009 82.1038C44.009 81.1675 44.3505 80.4735 45.039 80.0164C45.7219 79.5592 46.6527 79.3334 47.8314 79.3334H49.2413V78.7716C49.2413 78.342 49.1257 78.0006 48.8999 77.7417C48.6741 77.4884 48.294 77.3617 47.7598 77.3617C47.2641 77.3617 46.8675 77.4718 46.5701 77.6866C46.2782 77.9014 46.0304 78.1438 45.8376 78.4192L44.345 77.0863C44.7085 76.552 45.1601 76.1335 45.7109 75.8305C46.2617 75.5276 47.0052 75.3789 47.9415 75.3789C49.2083 75.3789 50.1611 75.6543 50.7945 76.2106C51.4279 76.7668 51.7418 77.5765 51.7418 78.6395V82.5444H52.5735V84.4941H51.1801L51.1856 84.4886ZM47.7047 82.9465C48.1233 82.9465 48.4813 82.8584 48.7842 82.6766C49.0816 82.4948 49.2358 82.2029 49.2358 81.8009V80.7544H48.0131C47.0273 80.7544 46.5371 81.0849 46.5371 81.7513V82.0047C46.5371 82.3296 46.6417 82.5664 46.8455 82.7207C47.0493 82.8749 47.3357 82.9465 47.7102 82.9465H47.7047Z" fill="white"/>
<path d="M67.8739 84.4894L67.0257 81.6694H63.0712L62.223 84.4894H59.6068L63.5118 72.6423H66.7007L70.5561 84.4894H67.8739ZM65.0704 74.9831H64.9878L63.6825 79.4829H66.3978L65.076 74.9831H65.0704Z" fill="white"/>
<path d="M73.1502 75.5773H75.6617V77.0699H75.7443C75.871 76.5742 76.1574 76.1666 76.6035 75.8472C77.0496 75.5278 77.5618 75.3735 78.1401 75.3735C79.2692 75.3735 80.1284 75.7701 80.7012 76.5632C81.274 77.3563 81.5659 78.5074 81.5659 80.0275C81.5659 81.5477 81.2795 82.6988 80.7012 83.4974C80.1229 84.296 79.2692 84.6925 78.1401 84.6925C77.8427 84.6925 77.5673 84.6485 77.3085 84.5659C77.0496 84.4833 76.8128 84.3621 76.6035 84.2079C76.3942 84.0537 76.218 83.8719 76.0693 83.6626C75.9205 83.4533 75.8159 83.2275 75.7443 82.9907H75.6617V87.8815H73.1502V75.5718V75.5773ZM77.314 82.6547C77.7877 82.6547 78.1842 82.4895 78.4926 82.1535C78.8066 81.8175 78.9608 81.3714 78.9608 80.8041V79.262C78.9608 78.6947 78.8066 78.2486 78.4926 77.9126C78.1787 77.5766 77.7877 77.4114 77.314 77.4114C76.8403 77.4114 76.4438 77.527 76.1353 77.7584C75.8214 77.9897 75.6672 78.3091 75.6672 78.7167V81.3494C75.6672 81.7569 75.8214 82.0764 76.1353 82.3077C76.4493 82.539 76.8403 82.6547 77.314 82.6547Z" fill="white"/>
<path d="M84.5622 75.5773H87.0737V77.0699H87.1563C87.283 76.5742 87.5694 76.1666 88.0156 75.8472C88.4617 75.5278 88.9739 75.3735 89.5522 75.3735C90.6813 75.3735 91.5405 75.7701 92.1133 76.5632C92.6916 77.3563 92.978 78.5074 92.978 80.0275C92.978 81.5477 92.6916 82.6988 92.1133 83.4974C91.535 84.296 90.6813 84.6925 89.5522 84.6925C89.2548 84.6925 88.9794 84.6485 88.7205 84.5659C88.4617 84.4833 88.2248 84.3621 88.0156 84.2079C87.8063 84.0537 87.63 83.8719 87.4813 83.6626C87.3326 83.4533 87.2279 83.2275 87.1563 82.9907H87.0737V87.8815H84.5622V75.5718V75.5773ZM88.7205 82.6547C89.1942 82.6547 89.5907 82.4895 89.8992 82.1535C90.2131 81.8175 90.3673 81.3714 90.3673 80.8041V79.262C90.3673 78.6947 90.2131 78.2486 89.8992 77.9126C89.5852 77.5766 89.1942 77.4114 88.7205 77.4114C88.2469 77.4114 87.8503 77.527 87.5419 77.7584C87.228 77.9897 87.0737 78.3091 87.0737 78.7167V81.3494C87.0737 81.7569 87.228 82.0764 87.5419 82.3077C87.8558 82.539 88.2469 82.6547 88.7205 82.6547Z" fill="white"/>
<path d="M99.6863 84.6927C99.0089 84.6927 98.403 84.5825 97.8688 84.3622C97.3346 84.1419 96.8884 83.828 96.5194 83.4259C96.1504 83.0239 95.875 82.5337 95.6877 81.9554C95.5005 81.3771 95.4069 80.7327 95.4069 80.0222C95.4069 79.3117 95.495 78.6838 95.6767 78.111C95.8585 77.5382 96.1284 77.048 96.4809 76.6404C96.8389 76.2329 97.274 75.9189 97.7972 75.6986C98.3149 75.4783 98.9098 75.3682 99.5817 75.3682C100.32 75.3682 100.948 75.4948 101.476 75.7427C102.005 75.9905 102.435 76.3265 102.765 76.7451C103.101 77.1637 103.343 77.6484 103.498 78.1991C103.652 78.7499 103.723 79.3227 103.723 79.923V80.6721H98.001V80.8043C98.001 81.3881 98.1607 81.8507 98.4746 82.1922C98.7886 82.5337 99.2898 82.7044 99.9672 82.7044C100.49 82.7044 100.915 82.5998 101.24 82.3905C101.57 82.1812 101.873 81.9333 102.159 81.6414L103.415 83.2056C103.018 83.6683 102.501 84.0318 101.862 84.2961C101.223 84.5605 100.496 84.6872 99.6808 84.6872L99.6863 84.6927ZM99.6313 77.2243C99.1246 77.2243 98.7225 77.3895 98.4361 77.7255C98.1497 78.0614 98.0065 78.502 98.0065 79.0583V79.196H101.129V79.0418C101.129 78.4965 101.008 78.0614 100.766 77.7255C100.524 77.3895 100.143 77.2243 99.6368 77.2243H99.6313Z" fill="white"/>
<path d="M113.18 84.4886C112.728 84.4886 112.348 84.3454 112.051 84.0645C111.754 83.7836 111.561 83.4036 111.484 82.9244H111.385C111.247 83.5028 110.949 83.9379 110.487 84.2408C110.024 84.5382 109.451 84.6924 108.774 84.6924C107.882 84.6924 107.193 84.4556 106.72 83.9819C106.246 83.5083 106.004 82.8804 106.004 82.1038C106.004 81.1675 106.345 80.4735 107.034 80.0164C107.716 79.5592 108.647 79.3334 109.826 79.3334H111.236V78.7716C111.236 78.342 111.12 78.0006 110.894 77.7417C110.669 77.4884 110.289 77.3617 109.754 77.3617C109.259 77.3617 108.862 77.4718 108.565 77.6866C108.273 77.9014 108.025 78.1438 107.832 78.4192L106.34 77.0863C106.703 76.552 107.155 76.1335 107.705 75.8305C108.256 75.5276 109 75.3789 109.936 75.3789C111.203 75.3789 112.156 75.6543 112.789 76.2106C113.422 76.7668 113.736 77.5765 113.736 78.6395V82.5444H114.568V84.4941H113.175L113.18 84.4886ZM109.699 82.9465C110.118 82.9465 110.476 82.8584 110.779 82.6766C111.076 82.4948 111.23 82.2029 111.23 81.8009V80.7544H110.008C109.022 80.7544 108.532 81.0849 108.532 81.7513V82.0047C108.532 82.3296 108.636 82.5664 108.84 82.7207C109.044 82.8749 109.33 82.9465 109.705 82.9465H109.699Z" fill="white"/>
<path d="M117.338 84.4891V75.5777H119.85V77.5109H119.933C119.977 77.2631 120.059 77.0207 120.169 76.7894C120.279 76.5581 120.434 76.3488 120.621 76.1725C120.808 75.9963 121.029 75.8476 121.293 75.7374C121.552 75.6328 121.86 75.5777 122.207 75.5777H122.648V77.9185H122.02C121.282 77.9185 120.737 78.0121 120.384 78.2049C120.026 78.3976 119.85 78.7556 119.85 79.2734V84.4836H117.338V84.4891Z" fill="white"/>
<path d="M131.636 84.4886C131.185 84.4886 130.805 84.3454 130.507 84.0645C130.21 83.7836 130.017 83.4036 129.94 82.9244H129.841C129.703 83.5028 129.406 83.9379 128.943 84.2408C128.481 84.5382 127.908 84.6924 127.23 84.6924C126.338 84.6924 125.65 84.4556 125.176 83.9819C124.702 83.5083 124.46 82.8804 124.46 82.1038C124.46 81.1675 124.801 80.4735 125.49 80.0164C126.173 79.5592 127.104 79.3334 128.282 79.3334H129.692V78.7716C129.692 78.342 129.577 78.0006 129.351 77.7417C129.125 77.4884 128.745 77.3617 128.211 77.3617C127.715 77.3617 127.318 77.4718 127.021 77.6866C126.729 77.9014 126.481 78.1438 126.288 78.4192L124.796 77.0863C125.159 76.552 125.611 76.1335 126.162 75.8305C126.713 75.5276 127.456 75.3789 128.392 75.3789C129.659 75.3789 130.612 75.6543 131.245 76.2106C131.879 76.7668 132.193 77.5765 132.193 78.6395V82.5444H133.024V84.4941H131.631L131.636 84.4886ZM128.156 82.9465C128.574 82.9465 128.932 82.8584 129.235 82.6766C129.533 82.4948 129.687 82.2029 129.687 81.8009V80.7544H128.464C127.478 80.7544 126.988 81.0849 126.988 81.7513V82.0047C126.988 82.3296 127.093 82.5664 127.296 82.7207C127.5 82.8749 127.787 82.9465 128.161 82.9465H128.156Z" fill="white"/>
<path d="M135.789 84.4888V75.5773H138.301V77.0864H138.4C138.56 76.6238 138.835 76.2217 139.232 75.8802C139.628 75.5388 140.179 75.3735 140.878 75.3735C141.793 75.3735 142.487 75.6765 142.96 76.2878C143.428 76.8992 143.665 77.7694 143.665 78.904V84.4888H141.154V79.1077C141.154 78.5294 141.066 78.1053 140.884 77.8245C140.702 77.5491 140.383 77.4059 139.915 77.4059C139.711 77.4059 139.512 77.4334 139.32 77.483C139.127 77.5326 138.956 77.6152 138.802 77.7308C138.648 77.8465 138.527 77.9842 138.438 78.1439C138.345 78.3091 138.301 78.4964 138.301 78.7112V84.4833H135.789V84.4888Z" fill="white"/>
<path d="M150.594 84.6928C149.928 84.6928 149.333 84.5827 148.809 84.3624C148.292 84.1421 147.851 83.8281 147.504 83.4261C147.152 83.024 146.887 82.5338 146.706 81.9555C146.524 81.3772 146.436 80.7328 146.436 80.0223C146.436 79.3118 146.524 78.6674 146.706 78.0946C146.887 77.5218 147.152 77.0316 147.504 76.6241C147.857 76.2165 148.292 75.9025 148.809 75.6877C149.333 75.4729 149.922 75.3628 150.594 75.3628C151.497 75.3628 152.257 75.5666 152.858 75.9741C153.463 76.3817 153.899 76.9545 154.157 77.687L152.12 78.5683C152.037 78.2268 151.877 77.9404 151.629 77.7036C151.382 77.4667 151.035 77.3456 150.594 77.3456C150.087 77.3456 149.702 77.5108 149.443 77.8468C149.184 78.1827 149.052 78.6289 149.052 79.1962V80.8595C149.052 81.4268 149.184 81.8729 149.443 82.2033C149.702 82.5338 150.087 82.6935 150.594 82.6935C151.046 82.6935 151.409 82.5724 151.673 82.33C151.938 82.0877 152.136 81.7682 152.263 81.3717L154.213 82.2199C153.921 83.0681 153.463 83.6904 152.847 84.087C152.23 84.4835 151.481 84.6818 150.594 84.6818V84.6928Z" fill="white"/>
<path d="M160.491 84.6927C159.814 84.6927 159.208 84.5825 158.674 84.3622C158.14 84.1419 157.693 83.828 157.324 83.4259C156.955 83.0239 156.68 82.5337 156.493 81.9554C156.305 81.3771 156.212 80.7327 156.212 80.0222C156.212 79.3117 156.3 78.6838 156.482 78.111C156.663 77.5382 156.933 77.048 157.286 76.6404C157.644 76.2329 158.079 75.9189 158.602 75.6986C159.12 75.4783 159.715 75.3682 160.387 75.3682C161.125 75.3682 161.753 75.4948 162.281 75.7427C162.81 75.9905 163.24 76.3265 163.57 76.7451C163.906 77.1637 164.148 77.6484 164.303 78.1991C164.457 78.7499 164.528 79.3227 164.528 79.923V80.6721H158.806V80.8043C158.806 81.3881 158.966 81.8507 159.28 82.1922C159.594 82.5337 160.095 82.7044 160.772 82.7044C161.295 82.7044 161.72 82.5998 162.044 82.3905C162.375 82.1812 162.678 81.9333 162.964 81.6414L164.22 83.2056C163.823 83.6683 163.306 84.0318 162.667 84.2961C162.028 84.555 161.301 84.6872 160.486 84.6872L160.491 84.6927ZM160.442 77.2243C159.935 77.2243 159.533 77.3895 159.247 77.7255C158.96 78.0614 158.817 78.502 158.817 79.0583V79.196H161.94V79.0418C161.94 78.4965 161.819 78.0614 161.576 77.7255C161.334 77.3895 160.954 77.2243 160.447 77.2243H160.442Z" fill="white"/>
</svg>
