<svg width="28" height="27" viewBox="0 0 28 27" fill="none" xmlns="http://www.w3.org/2000/svg">
<path d="M19.2539 26.0587V16.275H22.7491L23.2719 12.4717H19.2539V10.0447C19.2539 8.94356 19.5805 8.19216 21.2644 8.19216H23.4127V4.79047C22.3727 4.68702 21.3275 4.63686 20.2817 4.64019C17.185 4.64019 15.0652 6.41266 15.0652 9.66828V12.4717H11.5626V16.275H15.0652V26.0587H2.17229C1.77496 26.0587 1.39391 25.9108 1.11296 25.6474C0.832002 25.384 0.674164 25.0267 0.674164 24.6542V2.18233C0.674164 1.80983 0.832002 1.45259 1.11296 1.1892C1.39391 0.925805 1.77496 0.777832 2.17229 0.777832H26.1423C26.5397 0.777832 26.9207 0.925805 27.2017 1.1892C27.4826 1.45259 27.6405 1.80983 27.6405 2.18233V24.6542C27.6405 25.0267 27.4826 25.384 27.2017 25.6474C26.9207 25.9108 26.5397 26.0587 26.1423 26.0587H19.2539Z" fill="#C1AC7F"/>
</svg>
