<svg width="30" height="29" viewBox="0 0 30 29" fill="none" xmlns="http://www.w3.org/2000/svg">
<path d="M15.0623 28.5868C13.3074 28.5868 12.1364 27.7554 11.0909 27.0218C10.3491 26.4927 9.65153 25.9903 8.8301 25.851C8.439 25.7834 8.04273 25.7506 7.6459 25.7532C6.94982 25.7532 6.3968 25.8584 6.00305 25.9384C5.75234 25.9829 5.54293 26.0244 5.37776 26.0244C5.20669 26.0244 4.98991 25.9769 4.90585 25.6865C4.83211 25.4493 4.7864 25.2241 4.74068 25.0062C4.6227 24.4579 4.52389 24.1214 4.31891 24.0873C2.12304 23.7509 0.809053 23.2426 0.55245 22.6409C0.531804 22.5757 0.506734 22.5075 0.506734 22.4556C0.491986 22.2704 0.624712 22.1192 0.809053 22.0851C2.55071 21.7946 4.11539 20.8639 5.43675 19.3315C6.46316 18.1414 6.9631 16.9913 7.00881 16.8669C7.00881 16.852 7.02209 16.852 7.02209 16.852C7.27279 16.3318 7.3244 15.8887 7.17251 15.5256C6.89083 14.8439 5.95586 14.5534 5.31877 14.3548C5.15508 14.3103 5.01645 14.257 4.89848 14.217C4.35283 13.9991 3.44439 13.5352 3.56385 12.895C3.64938 12.4326 4.25992 12.1021 4.75985 12.1021C4.89848 12.1021 5.01645 12.1228 5.11379 12.1762C5.67418 12.4326 6.18002 12.5645 6.61359 12.5645C7.15334 12.5645 7.40994 12.36 7.47483 12.2948C7.46109 12.0016 7.44389 11.7086 7.42321 11.4159C7.29049 9.39293 7.14006 6.88235 7.77715 5.44329C9.69134 1.135 13.7542 0.789688 14.9576 0.789688L15.4826 0.777832H15.5563C16.7582 0.777832 20.8211 1.11425 22.7353 5.42995C23.3798 6.86901 23.222 9.387 23.0893 11.4026L23.0775 11.5019C23.0627 11.7716 23.0435 12.0295 23.0303 12.2948C23.0966 12.3466 23.3326 12.5452 23.8192 12.5512C24.241 12.5393 24.7011 12.4 25.2261 12.1614C25.3715 12.0982 25.5279 12.065 25.6863 12.0636C25.8706 12.0636 26.0549 12.108 26.2127 12.1614H26.226C26.6669 12.3274 26.956 12.6371 26.956 12.9617C26.9693 13.2655 26.7318 13.7279 25.6081 14.1844C25.4901 14.2288 25.3515 14.2837 25.1878 14.3222C24.5625 14.5149 23.629 14.8187 23.3326 15.493C23.1689 15.8487 23.2353 16.3052 23.4845 16.8194C23.4845 16.8342 23.4978 16.8342 23.4978 16.8342C23.57 17.018 25.4695 21.353 29.6975 22.0599C29.7839 22.0746 29.8622 22.1201 29.9177 22.1883C29.9733 22.2564 30.0025 22.3424 29.9998 22.4304C29.9998 22.4956 29.9866 22.5623 29.9541 22.6216C29.6975 23.2292 28.3953 23.7242 26.1862 24.0681C25.9827 24.1007 25.8839 24.4386 25.7659 24.9869C25.7187 25.2155 25.6636 25.4424 25.6007 25.6672C25.5358 25.8851 25.3972 26.0036 25.1612 26.0036H25.1273C24.9769 26.0036 24.7734 25.9844 24.5035 25.931C23.963 25.8153 23.4118 25.7577 22.8592 25.7591C22.4713 25.7591 22.0702 25.7932 21.6765 25.8584C20.8609 25.9918 20.1575 26.5001 19.4142 27.0292C18.3568 27.7554 17.18 28.5868 15.4369 28.5868H15.0623Z" fill="#C1AC7F"/>
</svg>
