<svg width="23" height="24" viewBox="0 0 23 24" fill="none" xmlns="http://www.w3.org/2000/svg">
<path d="M8.13433 10.5937C9.33332 12.7001 11.0777 14.4445 13.1841 15.6435L14.3137 14.0616C14.4953 13.8072 14.7639 13.6283 15.0686 13.5586C15.3733 13.4889 15.6929 13.5333 15.9671 13.6834C17.7743 14.671 19.77 15.265 21.8232 15.4263C22.1436 15.4517 22.4427 15.5969 22.6608 15.833C22.8789 16.0691 23 16.3788 23 16.7002V22.4017C23.0001 22.718 22.8828 23.0232 22.6708 23.258C22.4588 23.4929 22.1673 23.6408 21.8526 23.6731C21.1753 23.7433 20.493 23.7778 19.8056 23.7778C8.86778 23.7778 0 14.9101 0 3.97228C0 3.28483 0.0345 2.6025 0.104778 1.92528C0.137048 1.61056 0.284924 1.319 0.519787 1.10703C0.75465 0.895065 1.0598 0.777764 1.37617 0.777832H7.07761C7.39905 0.777792 7.7087 0.898903 7.94481 1.11702C8.18093 1.33513 8.32616 1.63423 8.35156 1.95467C8.51284 4.00779 9.10682 6.00353 10.0944 7.81072C10.2445 8.08489 10.2889 8.40456 10.2192 8.70925C10.1495 9.01394 9.97058 9.28252 9.71622 9.46417L8.13433 10.5937ZM4.91178 9.75422L7.33956 8.02028C6.65056 6.53306 6.1785 4.95468 5.93783 3.33339H2.56833C2.56067 3.5455 2.55683 3.75889 2.55683 3.97228C2.55556 13.4994 10.2784 21.2223 19.8056 21.2223C20.0189 21.2223 20.2323 21.2184 20.4444 21.2095V17.84C18.8231 17.5993 17.2448 17.1273 15.7576 16.4383L14.0236 18.8661C13.3255 18.5948 12.6475 18.2746 11.9945 17.9077L11.9204 17.8656C9.41413 16.4392 7.33864 14.3637 5.91228 11.8574L5.87011 11.7833C5.50327 11.1304 5.18303 10.4523 4.91178 9.75422Z" fill="#C1AC7F"/>
</svg>
