<svg width="38" height="36" viewBox="0 0 38 36" fill="none" xmlns="http://www.w3.org/2000/svg">
<path d="M7.92294 3.93433C7.92242 4.97726 7.50454 5.97727 6.76125 6.71436C6.01796 7.45145 5.01014 7.86525 3.95949 7.86473C2.90884 7.86421 1.90144 7.44941 1.15889 6.71158C0.416339 5.97375 -0.000524828 4.97333 4.959e-07 3.9304C0.000525819 2.88747 0.418397 1.88747 1.16169 1.15037C1.90498 0.41328 2.9128 -0.000520972 3.96345 4.92256e-07C5.0141 0.000521956 6.02151 0.415324 6.76405 1.15315C7.5066 1.89098 7.92347 2.8914 7.92294 3.93433ZM8.04178 10.7766H0.118844V35.3933H8.04178V10.7766ZM20.56 10.7766H12.6767V35.3933H20.4808V22.4754C20.4808 15.2792 29.9289 14.6107 29.9289 22.4754V35.3933H37.7528V19.8014C37.7528 7.67008 23.7688 8.1223 20.4808 14.0798L20.56 10.7766Z" fill="black"/>
</svg>
