<svg width="20" height="28" viewBox="0 0 20 28" fill="none" xmlns="http://www.w3.org/2000/svg">
<path d="M10 21.0093L15.3037 15.8032C16.3525 14.7733 17.0667 13.4612 17.356 12.0328C17.6453 10.6044 17.4967 9.12387 16.929 7.7784C16.3613 6.43293 15.4 5.28294 14.1666 4.47386C12.9333 3.66478 11.4833 3.23293 10 3.23293C8.5167 3.23293 7.0667 3.66478 5.83336 4.47386C4.60002 5.28294 3.63872 6.43293 3.07103 7.7784C2.50333 9.12387 2.35473 10.6044 2.64402 12.0328C2.93331 13.4612 3.64749 14.7733 4.69625 15.8032L10 21.0093ZM17.0712 17.5386L10 24.4813L2.92875 17.5386C1.53028 16.1654 0.577924 14.416 0.192114 12.5114C-0.193696 10.6069 0.00436701 8.63275 0.761258 6.83872C1.51815 5.04469 2.79987 3.51131 4.44435 2.43248C6.08883 1.35365 8.02221 0.777832 10 0.777832C11.9778 0.777832 13.9112 1.35365 15.5556 2.43248C17.2001 3.51131 18.4819 5.04469 19.2387 6.83872C19.9956 8.63275 20.1937 10.6069 19.8079 12.5114C19.4221 14.416 18.4697 16.1654 17.0712 17.5386ZM1.25 25.3233H18.75V27.7778H1.25V25.3233Z" fill="#C1AC7F"/>
</svg>
