<svg width="190" height="86" viewBox="0 0 221 117" fill="none" xmlns="http://www.w3.org/2000/svg">
<path d="M6.80654 41.1265C8.09013 40.5911 9.16835 39.8209 10.0412 38.8161C10.914 37.8112 11.5668 36.6083 12.0069 35.2C12.4397 33.7917 12.6597 32.2221 12.6597 30.4764C12.6597 29.8456 12.6084 29.0388 12.4984 28.0632C12.3883 27.0804 12.2343 26.0095 12.0436 24.8506L11.5008 21.4692L7.54002 22.0854L8.30284 26.919C8.42753 27.6231 8.52288 28.2833 8.59623 28.8994C8.66958 29.5155 8.70625 30.1023 8.70625 30.6597C8.72826 32.7428 8.22949 34.2318 7.19528 35.1267C6.16841 36.0215 4.54742 36.4689 2.34698 36.4689H0.894684V41.9187H2.38365C4.05599 41.9187 5.53028 41.6546 6.81387 41.1192L6.80654 41.1265Z" fill="black"/>
<path d="M49.5393 33.2049H72.6806C75.5411 33.2049 77.7416 32.7208 79.2966 31.7526C79.9714 32.31 80.6975 32.6914 81.4603 32.8968C82.2232 33.1022 83.03 33.2049 83.8735 33.2049H98.2277C100.648 33.1829 102.365 32.5521 103.369 31.3125C104.374 30.0802 104.88 28.1658 104.88 25.5693V6.31545H100.523V25.5693C100.523 26.3175 100.369 26.8749 100.069 27.2197C99.768 27.5717 99.1519 27.7478 98.235 27.7478H83.8808C83.3014 27.7478 82.7073 27.7111 82.0985 27.6377C82.2672 26.9629 82.3552 26.1634 82.3552 25.2393C82.3552 22.452 81.6437 20.2809 80.2134 18.7186C78.7831 17.1563 76.6414 16.3715 73.7808 16.3715C72.0865 16.3715 70.5315 16.6575 69.1305 17.2223C67.7222 17.7944 66.402 18.7186 65.1697 20.0022L64.8763 19.8555L65.3091 15.6013V6.30078H60.9522V26.1781L60.0427 27.7404H47.6175C47.2068 27.7404 46.8401 27.7844 46.5247 27.8651C46.2093 27.9531 45.9305 28.0998 45.6885 28.3199C45.4464 28.5399 45.2191 28.826 44.999 29.1927C44.779 29.5595 44.5663 30.0069 44.3462 30.535L41.1849 37.9505C40.4808 36.7842 39.916 35.7427 39.4759 34.8258C39.0432 33.9017 38.8231 33.0582 38.8231 32.2807C38.8231 31.9139 38.8451 31.5839 38.8965 31.2831C38.9478 30.9824 39.0211 30.6597 39.1312 30.3223C39.2412 29.9849 39.3879 29.6035 39.5859 29.178C39.7766 28.7526 40.0187 28.2392 40.3121 27.6304L41.7644 24.6525L38.1703 22.9068L36.7547 25.848C36.4173 26.5522 35.9552 27.0436 35.3757 27.3223C34.7963 27.6011 33.9235 27.7404 32.7572 27.7404H30.1754C30.0507 24.6158 29.3539 22.1806 28.0703 20.435C26.7867 18.6893 25.041 17.8164 22.8406 17.8164C21.777 17.8164 20.7868 18.0438 19.8773 18.4912C18.9678 18.9387 18.183 19.5548 17.5155 20.3469C16.848 21.1318 16.3273 22.0706 15.9532 23.1415C15.5791 24.2197 15.3884 25.3859 15.3884 26.6475C15.3884 28.7086 15.9385 30.3149 17.0387 31.4592C18.1389 32.6107 19.6719 33.1829 21.6377 33.1829H25.8552C25.2757 34.2024 24.2855 35.0019 22.8919 35.5813C21.4983 36.1608 19.6499 36.4542 17.3541 36.4542H15.029V41.9039H17.7209C21.0362 41.9039 23.6987 41.1485 25.6938 39.6301C27.6889 38.1192 29.0311 35.9627 29.7059 33.1829H30.9382C31.7597 33.1829 32.4638 33.1535 33.0433 33.0948C33.6227 33.0362 34.1288 32.9408 34.5542 32.8234C34.9797 32.7061 35.3317 32.5594 35.6251 32.3907C35.9185 32.222 36.1679 32.024 36.388 31.8112L36.608 31.9946C36.2706 32.4054 35.9039 32.9995 35.5151 33.777C35.1264 34.5545 34.9357 35.4493 34.9357 36.4688C34.9357 36.9529 35.0017 37.4224 35.1337 37.8698C35.2657 38.3172 35.4711 38.794 35.7498 39.3074C36.0285 39.8135 36.3659 40.371 36.7694 40.9798C37.1654 41.5812 37.6349 42.2633 38.1703 43.0115H43.0773L47.1114 33.2049H49.5466H49.5393ZM65.0157 25.1732C65.4778 24.4691 65.9619 23.9043 66.468 23.4642C66.9741 23.0315 67.5462 22.6867 68.177 22.4447C68.8078 22.2026 69.5339 22.0413 70.3554 21.9533C71.1769 21.8652 72.1378 21.8286 73.2233 21.8286H74.3162C75.8932 21.8286 77.0154 22.0853 77.6976 22.5914C78.3724 23.0975 78.7171 23.875 78.7171 24.9165C78.7171 25.496 78.6218 25.9727 78.4237 26.3321C78.233 26.6989 77.8956 26.9776 77.4262 27.183C76.9568 27.3884 76.3333 27.535 75.5705 27.6157C74.8077 27.7037 73.8468 27.7404 72.6806 27.7404H63.5634L63.4534 27.5204L65.0157 25.1586V25.1732ZM26.5373 27.7551H21.9971C21.0729 27.7551 20.3467 27.6157 19.8186 27.337C19.2832 27.0583 19.0191 26.5889 19.0191 25.9361C19.0191 25.1586 19.3419 24.5278 19.98 24.029C20.6181 23.5302 21.4176 23.2809 22.3565 23.2809C23.5667 23.2809 24.5642 23.6843 25.3564 24.4764C26.1412 25.2759 26.5373 26.3321 26.5373 27.6377V27.7478V27.7551Z" fill="black"/>
<path d="M72.3212 13.4743H73.0474C73.6782 13.4743 74.1916 13.2836 74.595 12.8949C74.9911 12.5061 75.1965 11.89 75.1965 11.0392C75.1965 10.1883 74.9984 9.5722 74.595 9.18345C74.1916 8.79471 73.6782 8.604 73.0474 8.604H72.3212C71.6904 8.604 71.177 8.79471 70.7736 9.18345C70.3775 9.5722 70.1721 10.1883 70.1721 11.0392C70.1721 11.89 70.3702 12.5061 70.7736 12.8949C71.1697 13.2836 71.6904 13.4743 72.3212 13.4743Z" fill="black"/>
<path d="M113.587 6.31543H109.23V33.2048H113.587V6.31543Z" fill="black"/>
<path d="M9.89453 81.4238H9.16839C8.53759 81.4238 8.02416 81.6145 7.62074 82.0033C7.21733 82.392 7.01929 83.0081 7.01929 83.859C7.01929 84.7098 7.21733 85.3259 7.62074 85.7147C8.01682 86.1034 8.53759 86.2941 9.16839 86.2941H9.89453C10.5253 86.2941 11.0388 86.1034 11.4422 85.7147C11.8456 85.3259 12.0436 84.7098 12.0436 83.859C12.0436 83.0081 11.8456 82.392 11.4422 82.0033C11.0461 81.6145 10.5253 81.4238 9.89453 81.4238Z" fill="black"/>
<path d="M15.6378 81.4238H14.9117C14.2809 81.4238 13.7674 81.6145 13.364 82.0033C12.9606 82.392 12.7626 83.0081 12.7626 83.859C12.7626 84.7098 12.9606 85.3259 13.364 85.7147C13.7601 86.1034 14.2809 86.2941 14.9117 86.2941H15.6378C16.2686 86.2941 16.782 86.1034 17.1855 85.7147C17.5889 85.3259 17.7869 84.7098 17.7869 83.859C17.7869 83.0081 17.5889 82.392 17.1855 82.0033C16.7894 81.6145 16.2686 81.4238 15.6378 81.4238Z" fill="black"/>
<path d="M35.8745 54.3877C35.0017 54.3877 34.2315 54.5344 33.5641 54.8205C32.8966 55.1139 32.2952 55.5099 31.7671 56.016C31.2316 56.5221 30.7769 57.1163 30.3881 57.7984C29.9994 58.4732 29.6473 59.2067 29.3319 59.9768L28.3124 62.4853C28.0483 63.1601 27.7036 63.6369 27.2928 63.901C26.8821 64.165 26.2293 64.297 25.3344 64.297C24.8503 64.297 24.3442 64.2824 23.8235 64.2604C23.3027 64.2384 22.7306 64.1944 22.1144 64.1357C21.4983 64.077 20.8235 63.9963 20.0974 63.901C19.3712 63.8056 18.5497 63.6809 17.6255 63.5342L13.3053 62.8814V68.3312L21.8797 69.6735C21.3443 70.5903 20.3981 71.3091 19.0265 71.8152C17.6549 72.3213 15.9312 72.578 13.8481 72.578H10.9435C8.6404 72.578 6.85071 72.16 5.56712 71.3238C4.28353 70.4876 3.63806 69.3067 3.63806 67.7811C3.63806 67.0036 3.77743 66.0867 4.05615 65.0232C4.33487 63.9596 4.71628 62.9034 5.20038 61.8619L1.70901 60.8423C1.17357 62.1259 0.755485 63.4535 0.454758 64.8178C0.154031 66.1894 0 67.4143 0 68.5072C0 70.0842 0.278723 71.4778 0.836168 72.7027C1.39361 73.9276 2.20778 74.9692 3.27132 75.8274C4.33487 76.6855 5.64047 77.3383 7.18078 77.7857C8.72109 78.2332 10.4594 78.4606 12.3958 78.4606C14.5303 78.4606 16.43 78.2112 18.1023 77.7124C19.7746 77.2136 21.1903 76.5022 22.3565 75.5706C23.5227 74.6391 24.4102 73.5022 25.0264 72.1526C25.3784 71.3825 25.6278 70.5463 25.7818 69.6588C26.4346 69.5854 27.0141 69.4607 27.4982 69.2847C28.3344 68.984 29.0312 68.4559 29.5886 67.7077L39.2926 70.6857L42.7473 65.566V64.5097C42.7473 61.3338 42.1751 58.8546 41.0236 57.0649C39.872 55.2752 38.1557 54.373 35.8819 54.373L35.8745 54.3877ZM38.8891 64.8912L31.5837 62.676L31.657 62.456C31.9504 61.5612 32.3758 60.9084 32.948 60.4903C33.5201 60.0795 34.1875 59.8742 34.965 59.8742C36.1753 59.8742 37.1361 60.2849 37.8329 61.1064C38.5371 61.9279 38.8891 63.0648 38.8891 64.5244V64.8912Z" fill="black"/>
<path d="M82.2379 62.6032C81.6585 62.7719 81.013 62.9039 80.3089 63.0066C79.6047 63.1019 78.9373 63.1533 78.3138 63.1533C76.4214 63.1533 74.9618 62.8232 73.9203 62.1557C72.8787 61.4883 72.3579 60.5421 72.3579 59.3025C72.3579 58.283 72.732 57.5055 73.4875 56.9627C74.2357 56.4199 75.2919 56.1485 76.6488 56.1485C77.617 56.1485 78.4532 56.3466 79.1573 56.75C79.8615 57.1461 80.4776 57.7769 81.013 58.6204L84.9005 55.1657C84.079 53.7867 83.0448 52.6938 81.8125 51.8943C80.5803 51.0948 78.9813 50.6988 77.0156 50.6988C75.8273 50.6988 74.7344 50.9261 73.7296 51.3736C72.7247 51.821 71.8518 52.4371 71.111 53.2293C70.3702 54.0141 69.7908 54.931 69.3653 55.9725C68.9399 57.014 68.7272 58.1289 68.7272 59.3172C68.7272 60.2413 68.8519 61.0995 69.1086 61.899C69.3653 62.6985 69.7321 63.4467 70.2162 64.1508V64.3342H65.8593C64.165 64.3342 63.3141 63.4833 63.3141 61.789V42.8945H58.9573V57.8282C58.9573 58.5543 58.8912 59.1925 58.7592 59.7352C58.6272 60.278 58.3925 60.7548 58.0477 61.1509C57.7103 61.5543 57.2556 61.9063 56.6835 62.2217C56.1114 62.5371 55.3925 62.8305 54.5197 63.0946L51.7251 47.3981L47.4343 48.1609L50.2655 64.1875L44.383 65.5664L45.6152 70.8695L54.1163 68.8744C55.5466 68.537 56.6688 67.8109 57.4756 66.696C58.2898 65.5811 58.8619 64.0188 59.1993 62.009H59.4193V62.3758C59.4193 64.921 59.9621 66.784 61.055 67.9722C62.1479 69.1605 63.8642 69.7619 66.2114 69.7913C68.2945 69.7913 70.0842 69.7693 71.5878 69.7179C73.0914 69.6666 74.419 69.5859 75.5853 69.4612C76.7515 69.3438 77.815 69.1751 78.7832 68.9698C79.7514 68.7644 80.7563 68.5003 81.7978 68.1849L87.1376 66.5493L85.7586 61.6423L82.2379 62.6252V62.6032Z" fill="black"/>
<path d="M105.166 61.8032C104.946 61.3705 104.66 60.9304 104.293 60.4976C103.927 60.0649 103.494 59.6028 102.988 59.1187L101.719 57.9524C102.254 57.4683 102.709 56.9989 103.098 56.5515C103.487 56.1041 103.795 55.6346 104.022 55.1505C104.249 54.6664 104.426 54.1603 104.528 53.6249C104.638 53.0895 104.69 52.51 104.69 51.8792V42.8721H100.333V51.8792C100.333 52.7741 100.245 53.4929 100.061 54.043C99.8779 54.5858 99.5846 55.0919 99.1738 55.554L90.4527 47.339L87.2914 50.757L95.7191 58.6786L89.4699 64.3117V69.7615H100.773C101.499 69.7615 102.166 69.6368 102.768 69.3801C103.377 69.1233 103.897 68.7713 104.345 68.3092C104.792 67.8471 105.144 67.3117 105.401 66.6955C105.658 66.0794 105.782 65.4046 105.782 64.6785C105.782 64.143 105.731 63.6442 105.636 63.1675C105.54 62.6981 105.379 62.2433 105.166 61.8032ZM94.3328 64.3044L94.2962 64.1577L98.1469 60.923L101.778 64.3044H94.3328Z" fill="black"/>
<path d="M93.064 75.028C93.064 74.7639 93.1886 74.5292 93.4454 74.3385C93.7021 74.1478 94.0322 74.0451 94.4429 74.0451C95.1911 74.0451 95.8585 74.3385 96.438 74.918L98.1837 72.4828C97.6996 71.9767 97.1274 71.5733 96.4746 71.2872C95.8218 70.9939 95.1397 70.8545 94.4429 70.8545C93.2767 70.8545 92.3305 71.1846 91.5897 71.852C90.8488 72.5195 90.4821 73.363 90.4821 74.3752C90.4821 75.1234 90.7242 75.7688 91.2083 76.3042L91.1716 76.4876H89.6459V79.4289H98.257V76.2309H95.5651C93.8928 76.2309 93.0566 75.8275 93.0566 75.0353L93.064 75.028Z" fill="black"/>
<path d="M113.587 42.8721H109.23V69.7615H113.587V42.8721Z" fill="black"/>
<mask id="mask0_2013_6" style="mask-type:luminance" maskUnits="userSpaceOnUse" x="127" y="0" width="94" height="85">
<path d="M127.552 42.5789C127.552 51.366 128.293 60.1238 129.753 68.5515L131.359 77.8153L140.476 80.1625C151.28 82.9497 162.62 84.3506 174.172 84.3506C185.725 84.3506 197.064 82.9277 207.868 80.1625L216.986 77.8153L218.592 68.5515C220.044 60.1238 220.792 51.366 220.792 42.5789C220.792 33.7918 220.051 25.034 218.592 16.6063L216.986 7.34248L207.868 4.99535C197.006 2.20812 185.695 0.777832 174.143 0.777832C162.591 0.777832 151.251 2.20078 140.447 4.96601L131.33 7.31314L129.723 16.577C128.271 25.0047 127.523 33.7625 127.523 42.5496L127.552 42.5789ZM142.097 42.5789C142.097 34.5913 142.75 26.699 144.085 19.0635C153.701 16.5697 163.794 15.3228 174.128 15.3228C184.463 15.3228 194.556 16.5697 204.172 19.0635C205.477 26.6917 206.159 34.5913 206.159 42.5789C206.159 50.5665 205.507 58.4588 204.172 66.0943C198.502 67.5466 192.656 68.5881 186.685 69.1822L191.167 80.7566L169.17 69.7104C160.559 69.3803 152.131 68.17 144.056 66.0576C142.75 58.4294 142.068 50.5298 142.068 42.5422L142.097 42.5716V42.5789Z" fill="white"/>
</mask>
<g mask="url(#mask0_2013_6)">
<path d="M203.812 72.0499L219.457 92.1839L227.276 60.8569L203.812 72.0499Z" fill="url(#paint0_linear_2013_6)"/>
<path d="M174.407 74.7862L186.612 90.9448L203.812 72.0503L174.407 74.7862Z" fill="url(#paint1_linear_2013_6)"/>
<path d="M186.612 90.9448L189.737 91.6856L203.812 72.0503L186.612 90.9448Z" fill="url(#paint2_linear_2013_6)"/>
<path d="M189.737 91.6856L219.457 92.1843L203.812 72.0503L189.737 91.6856Z" fill="url(#paint3_linear_2013_6)"/>
<path d="M155.953 78.5122L174.407 88.2088V74.7861L155.953 78.5122Z" fill="url(#paint4_linear_2013_6)"/>
<path d="M174.407 88.2088L186.612 90.9447L174.407 74.7861V88.2088Z" fill="url(#paint5_linear_2013_6)"/>
<path d="M125.609 25.0635L115.288 39.2343L139.376 47.684L125.609 25.0635Z" fill="url(#paint6_linear_2013_6)"/>
<path d="M219.457 92.1839L248.775 74.0596V72.1745L227.276 60.8569L219.457 92.1839Z" fill="url(#paint7_linear_2013_6)"/>
<path d="M219.457 92.1844L239.936 96.8346H248.775V74.0601L219.457 92.1844Z" fill="url(#paint8_linear_2013_6)"/>
<path d="M155.953 78.5122L157.089 96.8346H160.192L174.407 88.2088L155.953 78.5122Z" fill="url(#paint9_linear_2013_6)"/>
<path d="M128.425 79.2603L154.515 96.8346H157.089L155.953 78.5122L128.425 79.2603Z" fill="url(#paint10_linear_2013_6)"/>
<path d="M96.9148 47.8379V77.0451L128.425 79.2602L96.9148 47.8379Z" fill="url(#paint11_linear_2013_6)"/>
<path d="M115.288 39.2344L96.9148 45.6157V47.8381L128.425 79.2604L115.288 39.2344Z" fill="url(#paint12_linear_2013_6)"/>
<path d="M96.9148 77.0449V87.3577L128.425 79.26L96.9148 77.0449Z" fill="url(#paint13_linear_2013_6)"/>
<path d="M96.9148 87.3579V87.6513L116.176 96.8345H118.985L128.425 79.2603L96.9148 87.3579Z" fill="url(#paint14_linear_2013_6)"/>
<path d="M115.288 39.2344L128.425 79.2604L139.376 47.6841L115.288 39.2344Z" fill="url(#paint15_linear_2013_6)"/>
<path d="M118.985 96.8345H154.515L128.425 79.2603L118.985 96.8345Z" fill="url(#paint16_linear_2013_6)"/>
<path d="M213.509 -6.26379L205.067 -10.2393L198.81 2.68467L213.509 -6.26379Z" fill="url(#paint17_linear_2013_6)"/>
<path d="M215.387 -0.791905L213.509 -6.26367L198.81 2.68479L215.387 -0.791905Z" fill="url(#paint18_linear_2013_6)"/>
<path d="M215.079 10.3936L215.387 -0.791992L198.81 2.68471L215.079 10.3936Z" fill="url(#paint19_linear_2013_6)"/>
<path d="M215.079 10.3936L231.032 4.18101L215.387 -0.791992L215.079 10.3936Z" fill="url(#paint20_linear_2013_6)"/>
<path d="M231.032 4.18102L232.902 -4.52539L215.387 -0.791974L231.032 4.18102Z" fill="url(#paint21_linear_2013_6)"/>
<path d="M222.267 13.3788L215.078 10.3936L213.509 18.3445L222.267 13.3788Z" fill="url(#paint22_linear_2013_6)"/>
<path d="M222.267 13.379L231.032 4.18115L215.079 10.3937L222.267 13.379Z" fill="url(#paint23_linear_2013_6)"/>
<path d="M201.935 18.1023L215.079 10.3935L198.81 2.68457L201.935 18.1023Z" fill="url(#paint24_linear_2013_6)"/>
<path d="M213.509 18.3446L201.935 18.1025L210.069 30.0363L213.509 18.3446Z" fill="url(#paint25_linear_2013_6)"/>
<path d="M213.509 18.3445L215.079 10.3936L201.935 18.1024L213.509 18.3445Z" fill="url(#paint26_linear_2013_6)"/>
<path d="M201.934 18.1025L181.918 25.5547L202.873 30.2783L201.934 18.1025Z" fill="url(#paint27_linear_2013_6)"/>
<path d="M210.069 30.0363L201.935 18.1025L202.873 30.2783L210.069 30.0363Z" fill="url(#paint28_linear_2013_6)"/>
<path d="M209.761 53.8965L203.812 72.0501L221.958 59.6176L209.761 53.8965Z" fill="url(#paint29_linear_2013_6)"/>
<path d="M203.812 72.0502L227.276 60.8573L221.958 59.6177L203.812 72.0502Z" fill="url(#paint30_linear_2013_6)"/>
<path d="M221.959 59.6176L226.022 47.1851L209.761 53.8964L221.959 59.6176Z" fill="url(#paint31_linear_2013_6)"/>
<path d="M210.069 30.0364L225.399 24.814L213.509 18.3447L210.069 30.0364Z" fill="url(#paint32_linear_2013_6)"/>
<path d="M225.399 24.8139L222.267 13.3789L213.509 18.3446L225.399 24.8139Z" fill="url(#paint33_linear_2013_6)"/>
<path d="M216.325 34.5106L225.399 24.814L210.069 30.0363L216.325 34.5106Z" fill="url(#paint34_linear_2013_6)"/>
<path d="M216.325 34.5106L226.022 47.1851L225.399 24.814L216.325 34.5106Z" fill="url(#paint35_linear_2013_6)"/>
<path d="M199.749 41.7206L210.692 40.9725L202.873 30.2783L199.749 41.7206Z" fill="url(#paint36_linear_2013_6)"/>
<path d="M209.761 53.8966L210.692 40.9727L199.749 41.7208L209.761 53.8966Z" fill="url(#paint37_linear_2013_6)"/>
<path d="M202.873 30.2782L210.692 40.9723L210.069 30.0361L202.873 30.2782Z" fill="url(#paint38_linear_2013_6)"/>
<path d="M209.761 53.8966L226.022 47.1852L210.692 40.9727L209.761 53.8966Z" fill="url(#paint39_linear_2013_6)"/>
<path d="M210.692 40.9723L216.325 34.5104L210.069 30.0361L210.692 40.9723Z" fill="url(#paint40_linear_2013_6)"/>
<path d="M210.692 40.9727L226.022 47.1853L216.326 34.5107L210.692 40.9727Z" fill="url(#paint41_linear_2013_6)"/>
<path d="M188.482 42.4615L209.761 53.8965L199.749 41.7207L188.482 42.4615Z" fill="url(#paint42_linear_2013_6)"/>
<path d="M179.417 50.1703L209.761 53.8964L188.482 42.4614L179.417 50.1703Z" fill="url(#paint43_linear_2013_6)"/>
<path d="M188.483 42.4616L175.346 38.9849L179.417 50.1704L188.483 42.4616Z" fill="url(#paint44_linear_2013_6)"/>
<path d="M181.918 25.5547L175.346 38.9847L188.483 34.5105L181.918 25.5547Z" fill="url(#paint45_linear_2013_6)"/>
<path d="M188.483 34.5107L175.346 38.985L188.483 42.4617V34.5107Z" fill="url(#paint46_linear_2013_6)"/>
<path d="M202.873 30.2783L181.918 25.5547L188.482 34.5105L202.873 30.2783Z" fill="url(#paint47_linear_2013_6)"/>
<path d="M188.482 42.4617L199.749 41.7209L188.482 34.5107V42.4617Z" fill="url(#paint48_linear_2013_6)"/>
<path d="M199.749 41.7206L202.873 30.2783L188.482 34.5105L199.749 41.7206Z" fill="url(#paint49_linear_2013_6)"/>
<path d="M187.235 6.41846L181.918 25.555L201.934 18.1028L187.235 6.41846Z" fill="url(#paint50_linear_2013_6)"/>
<path d="M198.81 2.68457L187.236 6.41799L201.935 18.1023L198.81 2.68457Z" fill="url(#paint51_linear_2013_6)"/>
<path d="M176.6 4.67236L181.918 25.5546L187.236 6.41805L176.6 4.67236Z" fill="url(#paint52_linear_2013_6)"/>
<path d="M184.104 -6.51282L174.099 -6.76221L176.6 4.67276L184.104 -6.51282Z" fill="url(#paint53_linear_2013_6)"/>
<path d="M187.236 6.41808L184.104 -6.51318L176.6 4.6724L187.236 6.41808Z" fill="url(#paint54_linear_2013_6)"/>
<path d="M198.81 2.68466L184.104 -6.51318L187.236 6.41808L198.81 2.68466Z" fill="url(#paint55_linear_2013_6)"/>
<path d="M205.066 -10.2393L184.104 -6.51318L198.81 2.68467L205.066 -10.2393Z" fill="url(#paint56_linear_2013_6)"/>
<path d="M174.099 -6.76221L168.781 8.15679L176.6 4.67276L174.099 -6.76221Z" fill="url(#paint57_linear_2013_6)"/>
<path d="M176.6 4.67236L168.781 8.1564L181.918 25.5546L176.6 4.67236Z" fill="url(#paint58_linear_2013_6)"/>
<path d="M168.781 8.15674L146.879 18.3448L181.918 25.5549L168.781 8.15674Z" fill="url(#paint59_linear_2013_6)"/>
<path d="M181.918 25.5548L146.879 18.3447L175.346 38.9849L181.918 25.5548Z" fill="url(#paint60_linear_2013_6)"/>
<path d="M132.804 3.68213L125.608 25.0631L146.879 18.3444L132.804 3.68213Z" fill="url(#paint61_linear_2013_6)"/>
<path d="M128.425 -5.76465L119.975 6.9099L132.804 3.68258L128.425 -5.76465Z" fill="url(#paint62_linear_2013_6)"/>
<path d="M132.804 3.68213L119.975 6.90945L125.609 25.0631L132.804 3.68213Z" fill="url(#paint63_linear_2013_6)"/>
<path d="M116.535 -15.2119L119.975 6.90987L128.425 -5.76468L116.535 -15.2119Z" fill="url(#paint64_linear_2013_6)"/>
<path d="M175.346 38.9849L146.879 18.3447L153.136 41.222L175.346 38.9849Z" fill="url(#paint65_linear_2013_6)"/>
<path d="M175.346 38.9849L153.136 41.222L179.417 50.1704L175.346 38.9849Z" fill="url(#paint66_linear_2013_6)"/>
<path d="M125.608 25.0635L139.376 47.684L153.136 41.2221L125.608 25.0635Z" fill="url(#paint67_linear_2013_6)"/>
<path d="M146.879 18.3447L125.608 25.0634L153.136 41.222L146.879 18.3447Z" fill="url(#paint68_linear_2013_6)"/>
<path d="M139.376 47.6841L128.425 79.2604L151.574 72.0503L139.376 47.6841Z" fill="url(#paint69_linear_2013_6)"/>
<path d="M128.425 79.2604L155.953 78.5123L151.574 72.0503L128.425 79.2604Z" fill="url(#paint70_linear_2013_6)"/>
<path d="M151.574 72.0503L155.953 78.5123L174.407 74.7862L151.574 72.0503Z" fill="url(#paint71_linear_2013_6)"/>
<path d="M139.376 47.6841L151.574 72.0503L155.637 60.6154L139.376 47.6841Z" fill="url(#paint72_linear_2013_6)"/>
<path d="M153.136 41.2217L139.376 47.6836L155.637 60.6149L153.136 41.2217Z" fill="url(#paint73_linear_2013_6)"/>
<path d="M151.574 72.0502L174.407 74.7861L155.637 60.6152L151.574 72.0502Z" fill="url(#paint74_linear_2013_6)"/>
<path d="M153.136 41.2217L155.637 60.6149L179.417 50.1701L153.136 41.2217Z" fill="url(#paint75_linear_2013_6)"/>
<path d="M155.637 60.6152L174.407 74.7861L179.417 66.5784L155.637 60.6152Z" fill="url(#paint76_linear_2013_6)"/>
<path d="M155.637 60.6152L179.417 66.5784V50.1704L155.637 60.6152Z" fill="url(#paint77_linear_2013_6)"/>
<path d="M174.407 74.7858L203.812 72.0499L179.417 66.5781L174.407 74.7858Z" fill="url(#paint78_linear_2013_6)"/>
<path d="M179.417 66.5784L209.761 53.8965L179.417 50.1704V66.5784Z" fill="url(#paint79_linear_2013_6)"/>
<path d="M179.417 66.5784L203.812 72.0501L209.761 53.8965L179.417 66.5784Z" fill="url(#paint80_linear_2013_6)"/>
<path d="M156.576 -4.27568L128.425 -5.76465L132.804 3.68258L156.576 -4.27568Z" fill="url(#paint81_linear_2013_6)"/>
<path d="M146.879 18.3447L156.576 -4.27588L132.804 3.68239L146.879 18.3447Z" fill="url(#paint82_linear_2013_6)"/>
<path d="M168.781 8.15662L156.576 -4.27588L146.879 18.3447L168.781 8.15662Z" fill="url(#paint83_linear_2013_6)"/>
<path d="M174.099 -6.76221L156.576 -4.27571L168.781 8.15679L174.099 -6.76221Z" fill="url(#paint84_linear_2013_6)"/>
</g>
<path d="M174.128 56.2362C181.671 56.2362 187.786 50.1216 187.786 42.5788C187.786 35.036 181.671 28.9214 174.128 28.9214C166.586 28.9214 160.471 35.036 160.471 42.5788C160.471 50.1216 166.586 56.2362 174.128 56.2362Z" fill="black"/>
<path d="M13.5549 101.91H13.4889L12.3373 104.213L9.26402 109.795L6.25675 104.235L5.06117 101.749H4.99516V112.26H1.75317V96.4824H5.39124L9.25668 103.876H9.30069L13.1221 96.4824H16.7822V112.26H13.5475V101.903L13.5549 101.91Z" fill="black"/>
<path d="M26.4859 112.531C25.5837 112.531 24.7769 112.384 24.0654 112.091C23.354 111.798 22.7598 111.38 22.2684 110.844C21.777 110.309 21.4102 109.656 21.1608 108.886C20.9115 108.116 20.7868 107.257 20.7868 106.311C20.7868 105.365 20.9041 104.529 21.1462 103.766C21.3882 103.003 21.7476 102.35 22.2171 101.808C22.6938 101.265 23.2733 100.847 23.9701 100.553C24.6596 100.26 25.4517 100.113 26.3466 100.113C27.3294 100.113 28.1656 100.282 28.8697 100.612C29.5739 100.942 30.146 101.39 30.5861 101.947C31.0335 102.504 31.3562 103.15 31.5616 103.883C31.767 104.617 31.8623 105.38 31.8623 106.179V107.177H24.2415V107.353C24.2415 108.13 24.4542 108.746 24.8723 109.201C25.2903 109.656 25.9578 109.883 26.86 109.883C27.5568 109.883 28.1216 109.744 28.5543 109.465C28.9944 109.186 29.3978 108.856 29.7793 108.468L31.4516 110.551C30.9235 111.167 30.234 111.651 29.3832 112.003C28.5323 112.355 27.5641 112.524 26.4786 112.524L26.4859 112.531ZM26.4199 102.585C25.7451 102.585 25.2097 102.805 24.8283 103.253C24.4468 103.7 24.2561 104.287 24.2561 105.028V105.211H28.415V105.006C28.415 104.279 28.2536 103.7 27.9309 103.253C27.6081 102.805 27.102 102.585 26.4272 102.585H26.4199Z" fill="black"/>
<path d="M42.9672 110.272H42.8572C42.7692 110.588 42.6225 110.888 42.4245 111.167C42.2264 111.446 41.9917 111.688 41.713 111.893C41.4343 112.099 41.1189 112.253 40.7595 112.37C40.4074 112.48 40.0406 112.539 39.6666 112.539C38.1556 112.539 37.0187 112.011 36.2485 110.947C35.4784 109.884 35.097 108.343 35.097 106.326C35.097 104.309 35.4784 102.769 36.2485 101.713C37.0187 100.656 38.1556 100.128 39.6666 100.128C40.4367 100.128 41.1189 100.341 41.713 100.759C42.3071 101.184 42.6885 101.727 42.8572 102.387H42.9672V95.5366H46.3119V112.267H42.9672V110.28V110.272ZM40.7741 109.817C41.4049 109.817 41.933 109.663 42.3438 109.355C42.7619 109.047 42.9672 108.622 42.9672 108.079V104.573C42.9672 104.03 42.7619 103.605 42.3438 103.297C41.9257 102.989 41.4049 102.835 40.7741 102.835C40.1433 102.835 39.6152 103.055 39.2045 103.502C38.7864 103.95 38.581 104.544 38.581 105.299V107.353C38.581 108.108 38.7864 108.71 39.2045 109.15C39.6226 109.597 40.1433 109.817 40.7741 109.817Z" fill="black"/>
<path d="M52.5539 99.1305C51.8718 99.1305 51.3804 98.9765 51.0723 98.6684C50.7642 98.3603 50.6102 97.9643 50.6102 97.4802V96.9814C50.6102 96.4973 50.7642 96.1012 51.0723 95.7932C51.3804 95.4851 51.8718 95.3311 52.5539 95.3311C53.2361 95.3311 53.7275 95.4851 54.0356 95.7932C54.3436 96.1012 54.4976 96.4973 54.4976 96.9814V97.4802C54.4976 97.9643 54.3436 98.3603 54.0356 98.6684C53.7275 98.9765 53.2361 99.1305 52.5539 99.1305ZM50.8816 100.392H54.2263V112.26H50.8816V100.392Z" fill="black"/>
<path d="M67.561 112.26C66.9595 112.26 66.4534 112.069 66.0573 111.695C65.6613 111.321 65.4045 110.815 65.3019 110.177H65.1698C64.9865 110.947 64.5904 111.526 63.9743 111.93C63.3581 112.326 62.5953 112.531 61.6931 112.531C60.5049 112.531 59.588 112.216 58.9573 111.585C58.3265 110.954 58.0037 110.118 58.0037 109.084C58.0037 107.837 58.4585 106.913 59.3753 106.304C60.2849 105.695 61.5244 105.394 63.0941 105.394H64.9718V104.646C64.9718 104.074 64.8178 103.619 64.517 103.275C64.2163 102.937 63.7102 102.768 62.9987 102.768C62.3386 102.768 61.8105 102.915 61.4144 103.201C61.0257 103.487 60.6956 103.81 60.4389 104.177L58.4511 102.402C58.9352 101.69 59.5367 101.133 60.2702 100.729C61.0037 100.326 61.9939 100.128 63.2408 100.128C64.9278 100.128 66.1967 100.495 67.0402 101.235C67.8837 101.976 68.3018 103.055 68.3018 104.47V109.671H69.4094V112.267H67.5536L67.561 112.26ZM62.9254 110.206C63.4828 110.206 63.9596 110.089 64.363 109.847C64.7591 109.605 64.9645 109.216 64.9645 108.68V107.287H63.3361C62.0232 107.287 61.3704 107.727 61.3704 108.614V108.952C61.3704 109.384 61.5098 109.7 61.7811 109.905C62.0525 110.111 62.4339 110.206 62.9327 110.206H62.9254Z" fill="black"/>
<path d="M89.7854 112.26L88.6559 108.504H83.3895L82.2599 112.26H78.7759L83.9763 96.4824H88.2231L93.3575 112.26H89.7854ZM86.052 99.5997H85.942L84.2036 105.592H87.8197L86.0593 99.5997H86.052Z" fill="black"/>
<path d="M96.8122 100.392H100.157V102.38H100.267C100.436 101.72 100.817 101.177 101.411 100.751C102.005 100.326 102.687 100.121 103.458 100.121C104.961 100.121 106.105 100.649 106.868 101.705C107.631 102.761 108.02 104.294 108.02 106.319C108.02 108.343 107.638 109.876 106.868 110.939C106.098 112.003 104.961 112.531 103.458 112.531C103.061 112.531 102.695 112.472 102.35 112.362C102.005 112.252 101.69 112.091 101.411 111.886C101.132 111.68 100.898 111.438 100.7 111.159C100.502 110.881 100.362 110.58 100.267 110.265H100.157V116.778H96.8122V100.385V100.392ZM102.357 109.817C102.988 109.817 103.516 109.597 103.927 109.15C104.345 108.702 104.55 108.108 104.55 107.353V105.299C104.55 104.543 104.345 103.949 103.927 103.502C103.509 103.055 102.988 102.834 102.357 102.834C101.727 102.834 101.198 102.989 100.788 103.297C100.37 103.605 100.164 104.03 100.164 104.573V108.079C100.164 108.622 100.37 109.047 100.788 109.355C101.206 109.663 101.727 109.817 102.357 109.817Z" fill="black"/>
<path d="M112.01 100.392H115.355V102.38H115.465C115.633 101.72 116.015 101.177 116.609 100.751C117.203 100.326 117.885 100.121 118.655 100.121C120.159 100.121 121.303 100.649 122.066 101.705C122.836 102.761 123.217 104.294 123.217 106.319C123.217 108.343 122.836 109.876 122.066 110.939C121.296 112.003 120.159 112.531 118.655 112.531C118.259 112.531 117.892 112.472 117.548 112.362C117.203 112.252 116.888 112.091 116.609 111.886C116.33 111.68 116.095 111.438 115.897 111.159C115.699 110.881 115.56 110.58 115.465 110.265H115.355V116.778H112.01V100.385V100.392ZM117.548 109.817C118.178 109.817 118.707 109.597 119.117 109.15C119.535 108.702 119.741 108.108 119.741 107.353V105.299C119.741 104.543 119.535 103.949 119.117 103.502C118.699 103.055 118.178 102.834 117.548 102.834C116.917 102.834 116.389 102.989 115.978 103.297C115.56 103.605 115.355 104.03 115.355 104.573V108.079C115.355 108.622 115.56 109.047 115.978 109.355C116.396 109.663 116.917 109.817 117.548 109.817Z" fill="black"/>
<path d="M132.151 112.531C131.249 112.531 130.442 112.384 129.731 112.091C129.019 111.798 128.425 111.38 127.934 110.844C127.442 110.309 127.076 109.656 126.826 108.886C126.577 108.116 126.452 107.257 126.452 106.311C126.452 105.365 126.57 104.529 126.812 103.766C127.054 103.003 127.413 102.35 127.883 101.808C128.359 101.265 128.939 100.847 129.636 100.553C130.325 100.26 131.117 100.113 132.012 100.113C132.995 100.113 133.831 100.282 134.535 100.612C135.239 100.942 135.811 101.39 136.252 101.947C136.699 102.504 137.022 103.15 137.227 103.883C137.432 104.617 137.528 105.38 137.528 106.179V107.177H129.907V107.353C129.907 108.13 130.12 108.746 130.538 109.201C130.956 109.656 131.623 109.883 132.525 109.883C133.222 109.883 133.787 109.744 134.22 109.465C134.66 109.186 135.063 108.856 135.445 108.468L137.117 110.551C136.589 111.167 135.899 111.651 135.049 112.003C134.198 112.355 133.23 112.524 132.144 112.524L132.151 112.531ZM132.078 102.585C131.403 102.585 130.868 102.805 130.486 103.253C130.105 103.7 129.914 104.287 129.914 105.028V105.211H134.073V105.006C134.073 104.279 133.912 103.7 133.589 103.253C133.266 102.805 132.76 102.585 132.085 102.585H132.078Z" fill="black"/>
<path d="M150.122 112.26C149.52 112.26 149.014 112.069 148.618 111.695C148.222 111.321 147.965 110.815 147.862 110.177H147.73C147.547 110.947 147.151 111.526 146.535 111.93C145.919 112.326 145.156 112.531 144.254 112.531C143.065 112.531 142.149 112.216 141.518 111.585C140.887 110.954 140.564 110.118 140.564 109.084C140.564 107.837 141.019 106.913 141.936 106.304C142.845 105.695 144.085 105.394 145.655 105.394H147.532V104.646C147.532 104.074 147.378 103.619 147.078 103.275C146.777 102.937 146.271 102.768 145.559 102.768C144.899 102.768 144.371 102.915 143.975 103.201C143.586 103.487 143.256 103.81 142.999 104.177L141.012 102.402C141.496 101.69 142.097 101.133 142.831 100.729C143.564 100.326 144.554 100.128 145.801 100.128C147.488 100.128 148.757 100.495 149.601 101.235C150.444 101.976 150.862 103.055 150.862 104.47V109.671H151.97V112.267H150.114L150.122 112.26ZM145.486 110.206C146.043 110.206 146.52 110.089 146.924 109.847C147.32 109.605 147.525 109.216 147.525 108.68V107.287H145.897C144.584 107.287 143.931 107.727 143.931 108.614V108.952C143.931 109.384 144.07 109.7 144.342 109.905C144.613 110.111 144.994 110.206 145.493 110.206H145.486Z" fill="black"/>
<path d="M155.659 112.26V100.392H159.004V102.967H159.114C159.173 102.637 159.283 102.314 159.429 102.006C159.576 101.698 159.781 101.419 160.031 101.184C160.28 100.942 160.574 100.751 160.926 100.605C161.27 100.465 161.681 100.392 162.143 100.392H162.73V103.509H161.894C160.911 103.509 160.185 103.634 159.715 103.891C159.239 104.148 159.004 104.624 159.004 105.314V112.252H155.659V112.26Z" fill="black"/>
<path d="M174.701 112.26C174.099 112.26 173.593 112.069 173.197 111.695C172.801 111.321 172.544 110.815 172.442 110.177H172.31C172.126 110.947 171.73 111.526 171.114 111.93C170.498 112.326 169.735 112.531 168.833 112.531C167.645 112.531 166.728 112.216 166.097 111.585C165.466 110.954 165.143 110.118 165.143 109.084C165.143 107.837 165.598 106.913 166.515 106.304C167.425 105.695 168.664 105.394 170.234 105.394H172.111V104.646C172.111 104.074 171.957 103.619 171.657 103.275C171.356 102.937 170.85 102.768 170.138 102.768C169.478 102.768 168.95 102.915 168.554 103.201C168.165 103.487 167.835 103.81 167.579 104.177L165.591 102.402C166.075 101.69 166.676 101.133 167.41 100.729C168.143 100.326 169.134 100.128 170.38 100.128C172.067 100.128 173.336 100.495 174.18 101.235C175.023 101.976 175.441 103.055 175.441 104.47V109.671H176.549V112.267H174.693L174.701 112.26ZM170.065 110.206C170.622 110.206 171.099 110.089 171.503 109.847C171.899 109.605 172.104 109.216 172.104 108.68V107.287H170.476C169.163 107.287 168.51 107.727 168.51 108.614V108.952C168.51 109.384 168.649 109.7 168.921 109.905C169.192 110.111 169.574 110.206 170.072 110.206H170.065Z" fill="black"/>
<path d="M180.231 112.26V100.392H183.576V102.402H183.708C183.92 101.786 184.287 101.25 184.815 100.795C185.343 100.341 186.077 100.121 187.008 100.121C188.226 100.121 189.15 100.524 189.781 101.338C190.404 102.152 190.72 103.311 190.72 104.822V112.26H187.375V105.094C187.375 104.323 187.258 103.759 187.016 103.385C186.774 103.018 186.348 102.827 185.725 102.827C185.453 102.827 185.189 102.864 184.933 102.93C184.676 102.996 184.449 103.106 184.243 103.26C184.038 103.414 183.876 103.597 183.759 103.81C183.634 104.03 183.576 104.279 183.576 104.565V112.252H180.231V112.26Z" fill="black"/>
<path d="M199.947 112.531C199.059 112.531 198.267 112.384 197.57 112.091C196.881 111.798 196.294 111.38 195.832 110.844C195.363 110.309 195.011 109.656 194.768 108.886C194.526 108.116 194.409 107.257 194.409 106.311C194.409 105.365 194.526 104.507 194.768 103.744C195.011 102.981 195.363 102.328 195.832 101.786C196.301 101.243 196.881 100.825 197.57 100.539C198.267 100.253 199.052 100.106 199.947 100.106C201.15 100.106 202.162 100.377 202.961 100.92C203.768 101.463 204.348 102.226 204.692 103.201L201.979 104.375C201.869 103.92 201.656 103.539 201.326 103.223C200.996 102.908 200.534 102.746 199.947 102.746C199.272 102.746 198.759 102.967 198.414 103.414C198.069 103.861 197.893 104.455 197.893 105.211V107.426C197.893 108.182 198.069 108.776 198.414 109.216C198.759 109.656 199.272 109.869 199.947 109.869C200.548 109.869 201.032 109.707 201.384 109.384C201.737 109.062 202.001 108.636 202.169 108.108L204.766 109.238C204.377 110.367 203.768 111.196 202.947 111.724C202.125 112.252 201.128 112.516 199.947 112.516V112.531Z" fill="black"/>
<path d="M213.127 112.531C212.225 112.531 211.418 112.384 210.707 112.091C209.995 111.798 209.401 111.38 208.91 110.844C208.419 110.309 208.052 109.656 207.802 108.886C207.553 108.116 207.428 107.257 207.428 106.311C207.428 105.365 207.546 104.529 207.788 103.766C208.03 103.003 208.389 102.35 208.859 101.808C209.335 101.265 209.915 100.847 210.612 100.553C211.301 100.26 212.093 100.113 212.988 100.113C213.971 100.113 214.807 100.282 215.511 100.612C216.215 100.942 216.788 101.39 217.228 101.947C217.675 102.504 217.998 103.15 218.203 103.883C218.409 104.617 218.504 105.38 218.504 106.179V107.177H210.883V107.353C210.883 108.13 211.096 108.746 211.514 109.201C211.932 109.656 212.599 109.883 213.502 109.883C214.198 109.883 214.763 109.744 215.196 109.465C215.636 109.186 216.039 108.856 216.421 108.468L218.093 110.551C217.565 111.167 216.876 111.651 216.025 112.003C215.174 112.355 214.206 112.524 213.12 112.524L213.127 112.531ZM213.061 102.585C212.387 102.585 211.851 102.805 211.47 103.253C211.088 103.7 210.898 104.287 210.898 105.028V105.211H215.057V105.006C215.057 104.279 214.895 103.7 214.572 103.253C214.25 102.805 213.744 102.585 213.069 102.585H213.061Z" fill="black"/>
<defs>
<linearGradient id="paint0_linear_2013_6" x1="207.45" y1="53.5001" x2="238.746" y2="71.6508" gradientUnits="userSpaceOnUse">
<stop stop-color="#C49935"/>
<stop offset="1" stop-color="#B58B2D"/>
</linearGradient>
<linearGradient id="paint1_linear_2013_6" x1="178.683" y1="68.3022" x2="198.851" y2="93.247" gradientUnits="userSpaceOnUse">
<stop stop-color="#BF9433"/>
<stop offset="1" stop-color="#BE9331"/>
</linearGradient>
<linearGradient id="paint2_linear_2013_6" x1="185.395" y1="67.048" x2="210.392" y2="84.4515" gradientUnits="userSpaceOnUse">
<stop stop-color="#BA8F2E"/>
<stop offset="1" stop-color="#BD9130"/>
</linearGradient>
<linearGradient id="paint3_linear_2013_6" x1="188.717" y1="74.5735" x2="210.423" y2="100.031" gradientUnits="userSpaceOnUse">
<stop stop-color="#C49935"/>
<stop offset="1" stop-color="#B58A2D"/>
</linearGradient>
<linearGradient id="paint4_linear_2013_6" x1="159.092" y1="71.1774" x2="174.479" y2="87.9888" gradientUnits="userSpaceOnUse">
<stop stop-color="#A77E2C"/>
<stop offset="1" stop-color="#B1862D"/>
</linearGradient>
<linearGradient id="paint5_linear_2013_6" x1="173.035" y1="76.9059" x2="189.219" y2="86.8714" gradientUnits="userSpaceOnUse">
<stop stop-color="#B78C2E"/>
<stop offset="1" stop-color="#B1862D"/>
</linearGradient>
<linearGradient id="paint6_linear_2013_6" x1="115.802" y1="26.0903" x2="140.158" y2="46.699" gradientUnits="userSpaceOnUse">
<stop stop-color="#DFC965"/>
<stop offset="1" stop-color="#E3CF6C"/>
</linearGradient>
<linearGradient id="paint7_linear_2013_6" x1="218.585" y1="62.742" x2="253.605" y2="90.2576" gradientUnits="userSpaceOnUse">
<stop stop-color="#B0842D"/>
<stop offset="1" stop-color="#A97E2C"/>
</linearGradient>
<linearGradient id="paint8_linear_2013_6" x1="220.037" y1="68.1115" x2="251.559" y2="97.832" gradientUnits="userSpaceOnUse">
<stop stop-color="#A97C2C"/>
<stop offset="1" stop-color="#A2772B"/>
</linearGradient>
<linearGradient id="paint9_linear_2013_6" x1="155.63" y1="78.7909" x2="178.249" y2="95.2668" gradientUnits="userSpaceOnUse">
<stop stop-color="#A0762B"/>
<stop offset="1" stop-color="#9E732A"/>
</linearGradient>
<linearGradient id="paint10_linear_2013_6" x1="134.88" y1="72.8497" x2="157.94" y2="98.3697" gradientUnits="userSpaceOnUse">
<stop stop-color="#9D732A"/>
<stop offset="1" stop-color="#976D29"/>
</linearGradient>
<linearGradient id="paint11_linear_2013_6" x1="91.0616" y1="51.2412" x2="127.197" y2="80.0412" gradientUnits="userSpaceOnUse">
<stop stop-color="#BF9534"/>
<stop offset="1" stop-color="#A7802D"/>
</linearGradient>
<linearGradient id="paint12_linear_2013_6" x1="98.8365" y1="33.0145" x2="140.713" y2="59.8781" gradientUnits="userSpaceOnUse">
<stop stop-color="#CDA53E"/>
<stop offset="1" stop-color="#C2A040"/>
</linearGradient>
<linearGradient id="paint13_linear_2013_6" x1="97.2155" y1="76.9642" x2="106.109" y2="98.5632" gradientUnits="userSpaceOnUse">
<stop stop-color="#A17C2C"/>
<stop offset="1" stop-color="#9B762B"/>
</linearGradient>
<linearGradient id="paint14_linear_2013_6" x1="100.956" y1="74.7934" x2="121.435" y2="102.644" gradientUnits="userSpaceOnUse">
<stop stop-color="#98722B"/>
<stop offset="1" stop-color="#976F2A"/>
</linearGradient>
<linearGradient id="paint15_linear_2013_6" x1="118.626" y1="31.8336" x2="152.639" y2="48.101" gradientUnits="userSpaceOnUse">
<stop stop-color="#D6BB58"/>
<stop offset="1" stop-color="#C6A645"/>
</linearGradient>
<linearGradient id="paint16_linear_2013_6" x1="114.276" y1="82.0768" x2="133.873" y2="113.231" gradientUnits="userSpaceOnUse">
<stop stop-color="#946828"/>
<stop offset="1" stop-color="#976C29"/>
</linearGradient>
<linearGradient id="paint17_linear_2013_6" x1="198.927" y1="-9.75516" x2="213.727" y2="3.62113" gradientUnits="userSpaceOnUse">
<stop stop-color="#B09139"/>
<stop offset="1" stop-color="#B39237"/>
</linearGradient>
<linearGradient id="paint18_linear_2013_6" x1="198.905" y1="-6.70376" x2="208.724" y2="7.7513" gradientUnits="userSpaceOnUse">
<stop stop-color="#B19038"/>
<stop offset="1" stop-color="#B49136"/>
</linearGradient>
<linearGradient id="paint19_linear_2013_6" x1="201.627" y1="-3.58655" x2="214.329" y2="11.3738" gradientUnits="userSpaceOnUse">
<stop stop-color="#AF8F36"/>
<stop offset="1" stop-color="#B18D33"/>
</linearGradient>
<linearGradient id="paint20_linear_2013_6" x1="214.638" y1="-0.28589" x2="227.738" y2="14.5607" gradientUnits="userSpaceOnUse">
<stop stop-color="#B08B30"/>
<stop offset="1" stop-color="#B48F30"/>
</linearGradient>
<linearGradient id="paint21_linear_2013_6" x1="217.829" y1="-6.65248" x2="226.829" y2="7.74681" gradientUnits="userSpaceOnUse">
<stop stop-color="#B69332"/>
<stop offset="1" stop-color="#B89331"/>
</linearGradient>
<linearGradient id="paint22_linear_2013_6" x1="213.355" y1="10.5843" x2="222.66" y2="18.7265" gradientUnits="userSpaceOnUse">
<stop stop-color="#A7812D"/>
<stop offset="1" stop-color="#AA842E"/>
</linearGradient>
<linearGradient id="paint23_linear_2013_6" x1="216.135" y1="2.37679" x2="226.196" y2="16.2455" gradientUnits="userSpaceOnUse">
<stop stop-color="#AE8930"/>
<stop offset="1" stop-color="#B0882E"/>
</linearGradient>
<linearGradient id="paint24_linear_2013_6" x1="198.715" y1="2.6919" x2="216.627" y2="17.7153" gradientUnits="userSpaceOnUse">
<stop stop-color="#AF8D36"/>
<stop offset="1" stop-color="#AC8831"/>
</linearGradient>
<linearGradient id="paint25_linear_2013_6" x1="204.568" y1="14.6332" x2="217.251" y2="24.6743" gradientUnits="userSpaceOnUse">
<stop stop-color="#A37C2C"/>
<stop offset="1" stop-color="#A7832E"/>
</linearGradient>
<linearGradient id="paint26_linear_2013_6" x1="201.348" y1="8.94126" x2="211.14" y2="21.4942" gradientUnits="userSpaceOnUse">
<stop stop-color="#A7812D"/>
<stop offset="1" stop-color="#AB8730"/>
</linearGradient>
<linearGradient id="paint27_linear_2013_6" x1="183.443" y1="15.506" x2="197.144" y2="34.2389" gradientUnits="userSpaceOnUse">
<stop stop-color="#B5963E"/>
<stop offset="1" stop-color="#A98631"/>
</linearGradient>
<linearGradient id="paint28_linear_2013_6" x1="201.04" y1="19.8189" x2="212.349" y2="25.8198" gradientUnits="userSpaceOnUse">
<stop stop-color="#A88430"/>
<stop offset="1" stop-color="#A37E2D"/>
</linearGradient>
<linearGradient id="paint29_linear_2013_6" x1="203.959" y1="54.2706" x2="224.418" y2="70.9423" gradientUnits="userSpaceOnUse">
<stop stop-color="#BA902F"/>
<stop offset="1" stop-color="#AA802D"/>
</linearGradient>
<linearGradient id="paint30_linear_2013_6" x1="205.25" y1="59.5957" x2="218.791" y2="79.9074" gradientUnits="userSpaceOnUse">
<stop stop-color="#BD9231"/>
<stop offset="1" stop-color="#B0872E"/>
</linearGradient>
<linearGradient id="paint31_linear_2013_6" x1="211.418" y1="44.5592" x2="226.091" y2="59.4375" gradientUnits="userSpaceOnUse">
<stop stop-color="#A37B2C"/>
<stop offset="1" stop-color="#AA802D"/>
</linearGradient>
<linearGradient id="paint32_linear_2013_6" x1="209.24" y1="19.3496" x2="222.673" y2="33.3542" gradientUnits="userSpaceOnUse">
<stop stop-color="#A0782B"/>
<stop offset="1" stop-color="#9F782C"/>
</linearGradient>
<linearGradient id="paint33_linear_2013_6" x1="214.396" y1="11.6186" x2="227.318" y2="22.2933" gradientUnits="userSpaceOnUse">
<stop stop-color="#A37D2D"/>
<stop offset="1" stop-color="#A17A2C"/>
</linearGradient>
<linearGradient id="paint34_linear_2013_6" x1="211.756" y1="22.7455" x2="222.349" y2="36.0547" gradientUnits="userSpaceOnUse">
<stop stop-color="#9E772B"/>
<stop offset="1" stop-color="#9B742B"/>
</linearGradient>
<linearGradient id="paint35_linear_2013_6" x1="217.521" y1="20.0904" x2="233.376" y2="25.5514" gradientUnits="userSpaceOnUse">
<stop stop-color="#9A722B"/>
<stop offset="1" stop-color="#A0792C"/>
</linearGradient>
<linearGradient id="paint36_linear_2013_6" x1="198.509" y1="32.4788" x2="210.779" y2="41.5687" gradientUnits="userSpaceOnUse">
<stop stop-color="#A0792C"/>
<stop offset="1" stop-color="#A27B2C"/>
</linearGradient>
<linearGradient id="paint37_linear_2013_6" x1="202.36" y1="37.2172" x2="215.787" y2="46.255" gradientUnits="userSpaceOnUse">
<stop stop-color="#9F782C"/>
<stop offset="1" stop-color="#9E772B"/>
</linearGradient>
<linearGradient id="paint38_linear_2013_6" x1="204.619" y1="26.8748" x2="215.154" y2="32.8607" gradientUnits="userSpaceOnUse">
<stop stop-color="#A37D2D"/>
<stop offset="1" stop-color="#A0782B"/>
</linearGradient>
<linearGradient id="paint39_linear_2013_6" x1="209.13" y1="41.7942" x2="224.386" y2="56.6692" gradientUnits="userSpaceOnUse">
<stop stop-color="#A0792C"/>
<stop offset="1" stop-color="#A37B2C"/>
</linearGradient>
<linearGradient id="paint40_linear_2013_6" x1="210.039" y1="30.1021" x2="219.766" y2="34.5231" gradientUnits="userSpaceOnUse">
<stop stop-color="#A0782B"/>
<stop offset="1" stop-color="#9E772C"/>
</linearGradient>
<linearGradient id="paint41_linear_2013_6" x1="211.067" y1="35.0902" x2="224.896" y2="48.3776" gradientUnits="userSpaceOnUse">
<stop stop-color="#9F782C"/>
<stop offset="1" stop-color="#A37B2C"/>
</linearGradient>
<linearGradient id="paint42_linear_2013_6" x1="190.837" y1="39.9017" x2="204.244" y2="58.0298" gradientUnits="userSpaceOnUse">
<stop stop-color="#9F782C"/>
<stop offset="1" stop-color="#A27B2C"/>
</linearGradient>
<linearGradient id="paint43_linear_2013_6" x1="178.294" y1="43.4516" x2="187.8" y2="64.0388" gradientUnits="userSpaceOnUse">
<stop stop-color="#A47E2D"/>
<stop offset="1" stop-color="#A6802D"/>
</linearGradient>
<linearGradient id="paint44_linear_2013_6" x1="176.277" y1="38.1854" x2="189.449" y2="50.4786" gradientUnits="userSpaceOnUse">
<stop stop-color="#B39035"/>
<stop offset="1" stop-color="#B49239"/>
</linearGradient>
<linearGradient id="paint45_linear_2013_6" x1="174.737" y1="27.3444" x2="189.325" y2="38.6906" gradientUnits="userSpaceOnUse">
<stop stop-color="#BEA145"/>
<stop offset="1" stop-color="#B99A40"/>
</linearGradient>
<linearGradient id="paint46_linear_2013_6" x1="176.585" y1="32.677" x2="185.637" y2="44.5575" gradientUnits="userSpaceOnUse">
<stop stop-color="#BA9B3F"/>
<stop offset="1" stop-color="#AE8A34"/>
</linearGradient>
<linearGradient id="paint47_linear_2013_6" x1="182.461" y1="25.3933" x2="191.393" y2="41.6018" gradientUnits="userSpaceOnUse">
<stop stop-color="#B8983E"/>
<stop offset="1" stop-color="#AB8833"/>
</linearGradient>
<linearGradient id="paint48_linear_2013_6" x1="186.913" y1="35.7283" x2="196.004" y2="45.9554" gradientUnits="userSpaceOnUse">
<stop stop-color="#A7812D"/>
<stop offset="1" stop-color="#A7832E"/>
</linearGradient>
<linearGradient id="paint49_linear_2013_6" x1="190.602" y1="27.4177" x2="203.761" y2="40.5764" gradientUnits="userSpaceOnUse">
<stop stop-color="#A37D2D"/>
<stop offset="1" stop-color="#A98430"/>
</linearGradient>
<linearGradient id="paint50_linear_2013_6" x1="180.854" y1="8.47954" x2="202.055" y2="26.5645" gradientUnits="userSpaceOnUse">
<stop stop-color="#BA9B42"/>
<stop offset="1" stop-color="#B18F39"/>
</linearGradient>
<linearGradient id="paint51_linear_2013_6" x1="189.37" y1="-0.491401" x2="206.126" y2="12.545" gradientUnits="userSpaceOnUse">
<stop stop-color="#AF8E3A"/>
<stop offset="1" stop-color="#AF8E39"/>
</linearGradient>
<linearGradient id="paint52_linear_2013_6" x1="178.375" y1="0.249475" x2="194.232" y2="6.66761" gradientUnits="userSpaceOnUse">
<stop stop-color="#BEA047"/>
<stop offset="1" stop-color="#BB9C44"/>
</linearGradient>
<linearGradient id="paint53_linear_2013_6" x1="175.104" y1="-8.31719" x2="186.492" y2="-0.394923" gradientUnits="userSpaceOnUse">
<stop stop-color="#BFA149"/>
<stop offset="1" stop-color="#BD9F46"/>
</linearGradient>
<linearGradient id="paint54_linear_2013_6" x1="177.128" y1="-5.99975" x2="189.846" y2="2.54682" gradientUnits="userSpaceOnUse">
<stop stop-color="#BD9E44"/>
<stop offset="1" stop-color="#B89943"/>
</linearGradient>
<linearGradient id="paint55_linear_2013_6" x1="183.414" y1="-5.99975" x2="198.213" y2="7.37654" gradientUnits="userSpaceOnUse">
<stop stop-color="#B4943F"/>
<stop offset="1" stop-color="#B4953E"/>
</linearGradient>
<linearGradient id="paint56_linear_2013_6" x1="187.595" y1="-13.5693" x2="202.098" y2="4.63836" gradientUnits="userSpaceOnUse">
<stop stop-color="#B0913B"/>
<stop offset="1" stop-color="#B4953E"/>
</linearGradient>
<linearGradient id="paint57_linear_2013_6" x1="168.862" y1="-5.43461" x2="180.424" y2="-0.617067" gradientUnits="userSpaceOnUse">
<stop stop-color="#C5A64C"/>
<stop offset="1" stop-color="#C8A84C"/>
</linearGradient>
<linearGradient id="paint58_linear_2013_6" x1="170.116" y1="1.48172" x2="189.339" y2="11.0933" gradientUnits="userSpaceOnUse">
<stop stop-color="#C5A64C"/>
<stop offset="1" stop-color="#C8A94D"/>
</linearGradient>
<linearGradient id="paint59_linear_2013_6" x1="147.202" y1="6.33771" x2="165.663" y2="35.8747" gradientUnits="userSpaceOnUse">
<stop stop-color="#D2B758"/>
<stop offset="1" stop-color="#D4BE5D"/>
</linearGradient>
<linearGradient id="paint60_linear_2013_6" x1="152.953" y1="13.8485" x2="175.085" y2="43.7145" gradientUnits="userSpaceOnUse">
<stop stop-color="#CDB556"/>
<stop offset="1" stop-color="#D4BE5E"/>
</linearGradient>
<linearGradient id="paint61_linear_2013_6" x1="124.207" y1="6.16129" x2="147.672" y2="25.2029" gradientUnits="userSpaceOnUse">
<stop stop-color="#E5D674"/>
<stop offset="1" stop-color="#E5D36F"/>
</linearGradient>
<linearGradient id="paint62_linear_2013_6" x1="120.086" y1="-4.42971" x2="133.524" y2="6.08176" gradientUnits="userSpaceOnUse">
<stop stop-color="#E1D26E"/>
<stop offset="1" stop-color="#E1D16D"/>
</linearGradient>
<linearGradient id="paint63_linear_2013_6" x1="121.89" y1="-0.777434" x2="140.022" y2="7.86714" gradientUnits="userSpaceOnUse">
<stop stop-color="#E3D573"/>
<stop offset="1" stop-color="#E1D26E"/>
</linearGradient>
<linearGradient id="paint64_linear_2013_6" x1="116.902" y1="-16.5835" x2="135.762" y2="-8.53107" gradientUnits="userSpaceOnUse">
<stop stop-color="#E2D572"/>
<stop offset="1" stop-color="#E3D773"/>
</linearGradient>
<linearGradient id="paint65_linear_2013_6" x1="144.532" y1="20.1638" x2="170.848" y2="46.1934" gradientUnits="userSpaceOnUse">
<stop stop-color="#E5D470"/>
<stop offset="1" stop-color="#D8C261"/>
</linearGradient>
<linearGradient id="paint66_linear_2013_6" x1="157.537" y1="36.535" x2="167.979" y2="56.0263" gradientUnits="userSpaceOnUse">
<stop stop-color="#C8AA4D"/>
<stop offset="1" stop-color="#CBAF50"/>
</linearGradient>
<linearGradient id="paint67_linear_2013_6" x1="126.481" y1="24.0879" x2="152.498" y2="49.2469" gradientUnits="userSpaceOnUse">
<stop stop-color="#E7D673"/>
<stop offset="1" stop-color="#E4CF6C"/>
</linearGradient>
<linearGradient id="paint68_linear_2013_6" x1="129.063" y1="14.0905" x2="155.354" y2="39.2387" gradientUnits="userSpaceOnUse">
<stop stop-color="#E7D977"/>
<stop offset="1" stop-color="#E7D673"/>
</linearGradient>
<linearGradient id="paint69_linear_2013_6" x1="126.973" y1="52.305" x2="157.369" y2="69.5499" gradientUnits="userSpaceOnUse">
<stop stop-color="#AA832E"/>
<stop offset="1" stop-color="#C19F40"/>
</linearGradient>
<linearGradient id="paint70_linear_2013_6" x1="129.855" y1="72.1676" x2="134.534" y2="86.3662" gradientUnits="userSpaceOnUse">
<stop stop-color="#9E762B"/>
<stop offset="1" stop-color="#A47C2C"/>
</linearGradient>
<linearGradient id="paint71_linear_2013_6" x1="152.161" y1="71.9403" x2="156.983" y2="85.4792" gradientUnits="userSpaceOnUse">
<stop stop-color="#A67D2C"/>
<stop offset="1" stop-color="#B0862E"/>
</linearGradient>
<linearGradient id="paint72_linear_2013_6" x1="141.356" y1="43.4739" x2="163.975" y2="55.4757" gradientUnits="userSpaceOnUse">
<stop stop-color="#D5B957"/>
<stop offset="1" stop-color="#BF9B3D"/>
</linearGradient>
<linearGradient id="paint73_linear_2013_6" x1="141.356" y1="37.3636" x2="161.952" y2="51.0943" gradientUnits="userSpaceOnUse">
<stop stop-color="#DFC662"/>
<stop offset="1" stop-color="#D8BD5C"/>
</linearGradient>
<linearGradient id="paint74_linear_2013_6" x1="149.483" y1="62.7717" x2="164.896" y2="82.5112" gradientUnits="userSpaceOnUse">
<stop stop-color="#AE8930"/>
<stop offset="1" stop-color="#BB9436"/>
</linearGradient>
<linearGradient id="paint75_linear_2013_6" x1="152.608" y1="41.3684" x2="175.43" y2="65.9458" gradientUnits="userSpaceOnUse">
<stop stop-color="#D9C15F"/>
<stop offset="1" stop-color="#C3A143"/>
</linearGradient>
<linearGradient id="paint76_linear_2013_6" x1="159.312" y1="57.7547" x2="174.564" y2="78.0903" gradientUnits="userSpaceOnUse">
<stop stop-color="#C09A3C"/>
<stop offset="1" stop-color="#B99030"/>
</linearGradient>
<linearGradient id="paint77_linear_2013_6" x1="157.64" y1="46.5837" x2="176.812" y2="68.6614" gradientUnits="userSpaceOnUse">
<stop stop-color="#C09D3E"/>
<stop offset="1" stop-color="#B79233"/>
</linearGradient>
<linearGradient id="paint78_linear_2013_6" x1="172.478" y1="67.429" x2="178.113" y2="83.9033" gradientUnits="userSpaceOnUse">
<stop stop-color="#BD9232"/>
<stop offset="1" stop-color="#C19634"/>
</linearGradient>
<linearGradient id="paint79_linear_2013_6" x1="179.717" y1="49.9724" x2="198.18" y2="77.1064" gradientUnits="userSpaceOnUse">
<stop stop-color="#AC872F"/>
<stop offset="1" stop-color="#AB822D"/>
</linearGradient>
<linearGradient id="paint80_linear_2013_6" x1="181.14" y1="49.987" x2="201.581" y2="77.8272" gradientUnits="userSpaceOnUse">
<stop stop-color="#BD9231"/>
<stop offset="1" stop-color="#B0862D"/>
</linearGradient>
<linearGradient id="paint81_linear_2013_6" x1="130.281" y1="-6.54214" x2="138.335" y2="12.9999" gradientUnits="userSpaceOnUse">
<stop stop-color="#E1CF6B"/>
<stop offset="1" stop-color="#DDC764"/>
</linearGradient>
<linearGradient id="paint82_linear_2013_6" x1="136.427" y1="-9.73298" x2="161.924" y2="11.0149" gradientUnits="userSpaceOnUse">
<stop stop-color="#E2CC68"/>
<stop offset="1" stop-color="#DFC966"/>
</linearGradient>
<linearGradient id="paint83_linear_2013_6" x1="146.227" y1="-1.72337" x2="170.742" y2="17.1345" gradientUnits="userSpaceOnUse">
<stop stop-color="#E1CB68"/>
<stop offset="1" stop-color="#D4B858"/>
</linearGradient>
<linearGradient id="paint84_linear_2013_6" x1="160.441" y1="-11.1558" x2="176.716" y2="4.44429" gradientUnits="userSpaceOnUse">
<stop stop-color="#CDAE51"/>
<stop offset="1" stop-color="#CBAF52"/>
</linearGradient>
</defs>
</svg>
