<svg width="176" height="95" viewBox="0 0 176 95" fill="none" xmlns="http://www.w3.org/2000/svg">
<path d="M50.7691 54.4514H68.4221L84.9778 0.800598H79.0616L50.7691 54.4514Z" fill="#00758C"/>
<path d="M93.4463 0.800598H87.5063L104.062 54.4514H121.715L93.4463 0.800598Z" fill="#00758C"/>
<path d="M2.53347 44.0277V54.4048H32.1142C40.9645 54.3332 48.0735 47.1289 48.0019 38.2785C47.9303 29.4282 40.7021 22.3193 31.8756 22.3908H15.9641C12.8867 22.3908 10.4058 19.9099 10.4058 16.8325V16.7132C10.4058 13.6359 12.8867 11.1549 15.9641 11.1549H42.6344V0.777832H15.6301C6.80359 0.992531 -0.209898 8.31614 0.00480078 17.1665C0.2195 25.8022 7.23299 32.7202 15.8925 32.7918H31.8041C34.8814 32.7918 37.3624 35.2728 37.3624 38.3501V38.4932C37.3624 41.5467 34.8576 44.0277 31.8041 44.0277H2.53347Z" fill="#3D3836"/>
<path d="M130.088 54.4525H140.227L140.346 54.3332V11.298L140.465 11.1788H158.476C161.625 11.1788 164.154 13.7313 164.154 16.8563C164.154 19.9337 161.673 22.4146 158.596 22.4146H146L145.881 22.5339V22.6055L163.939 54.3093L164.058 54.3809H175.27L175.39 54.2616V54.1901L163.414 33.5074L162.842 32.4816L162.889 32.3146H162.913L164.035 31.9091C172.36 28.951 176.726 19.7906 173.768 11.465C171.644 5.45345 166.134 1.27875 159.788 0.849356C159.502 0.849356 159.216 0.8255 158.929 0.8255H130.088L129.969 0.944778V54.3809L130.088 54.5002V54.4525Z" fill="#3D3836"/>
<path d="M7.70974 65.9263L8.90251 67.0714L10.31 65.6401L8.87865 64.2087L7.70974 65.3538L6.54082 64.2087L5.1095 65.6401L6.54082 67.0714L7.70974 65.9263Z" fill="#3D3836"/>
<path d="M10.3103 76.2795H11.5747C13.8171 76.2795 15.0099 75.0868 15.0099 73.2499C14.9622 71.7709 14.7952 70.2918 14.5566 68.8367H12.6005C12.8629 70.1964 13.006 71.5562 13.0537 72.9398C13.0537 73.8463 12.6959 74.2518 11.5747 74.2518H10.3103C9.49926 74.2518 9.23685 73.8463 9.23685 73.1783V68.0256H7.28071V68.8844C3.67854 69.4569 2.46191 71.6277 2.46191 73.3215C2.46191 75.2061 3.72625 76.3273 5.73011 76.3273C6.5889 76.3034 7.39999 76.041 8.11565 75.5639C8.71203 76.1126 9.49926 76.375 10.2865 76.3273M5.77782 74.2995C4.89517 74.2995 4.3942 73.8463 4.3942 73.0829C4.3942 71.8901 5.44384 70.9359 7.32842 70.5542V73.0829C7.32842 73.393 7.32842 73.6793 7.39998 73.9894C6.89902 74.2041 6.32649 74.2995 5.77782 74.2995Z" fill="#3D3836"/>
<path d="M12.6001 78.3076L11.4312 77.2102L9.99988 78.6415L11.4551 80.0729L12.6001 78.9755L13.7213 80.0729L15.1526 78.6415L13.7213 77.2102L12.6001 78.3076Z" fill="#3D3836"/>
<path d="M18.6361 68.8365C19.6857 71.0074 20.2583 72.7965 20.2583 73.3691C20.2583 74.0132 19.7812 74.2517 18.6838 74.2517C17.825 74.2517 16.9662 74.1086 16.1551 73.87L15.7973 75.7785C16.8947 76.0886 18.0159 76.2556 19.1371 76.2794C21.1409 76.2794 22.1667 75.3252 22.1667 73.6553C22.1667 72.6057 21.5703 70.7688 20.5922 68.8365H18.6122H18.6361Z" fill="#3D3836"/>
<path d="M55.9457 72.9408C55.9457 73.8474 55.5879 74.2529 54.4667 74.2529C53.8226 74.2529 53.2024 74.1098 52.6298 73.7996C52.8684 72.75 52.9877 71.6765 52.9638 70.603V69.5295H51.1747V70.603C51.1747 72.0821 51.1031 72.9886 50.8407 73.5372C50.6021 74.0382 50.0535 74.3483 49.5048 74.2529C48.98 74.2529 48.4551 74.1336 47.978 73.8951C48.2643 72.8216 48.3836 71.7004 48.3359 70.603H46.5467C46.5467 72.0821 46.4751 72.9886 46.2127 73.5372C45.9742 74.0382 45.4255 74.3245 44.8768 74.2529C44.3043 74.2529 43.7556 74.1098 43.2547 73.8474C43.5171 72.7739 43.6363 71.7004 43.6125 70.603H41.8233C41.8233 72.0821 41.7518 72.9886 41.4894 73.5372C41.3224 74.0143 40.8214 74.3245 40.3204 74.2529H40.2966C39.6048 74.2529 38.9368 74.229 38.2689 74.1336C39.1038 73.4418 39.5809 72.3922 39.6048 71.3187C39.6048 69.7442 38.1735 68.5037 36.0026 68.5037C34.6667 68.5037 32.973 69.1478 31.2315 70.269L32.0188 71.8912L32.4482 71.6527C33.1161 72.3922 33.7125 73.2033 34.1896 74.0621C33.1877 74.1813 32.2096 74.2529 31.1838 74.229H30.325C30.325 73.3702 30.3012 72.8454 30.2773 72.2968C30.158 69.9828 28.846 68.6946 26.9376 68.6946C24.886 68.6946 23.3354 70.3406 23.3354 72.5592C23.3354 74.7777 24.9337 76.2329 27.367 76.2329H28.4166C28.0826 77.211 26.7944 77.7835 24.6474 77.7835V79.5249C28.4643 79.5249 30.0865 78.189 30.3489 76.2329H31.2315C33.5932 76.2329 34.6906 76.0659 36.265 75.398C37.5294 75.9943 38.913 76.2806 40.2966 76.2329H40.3204C41.1792 76.2806 42.0142 75.9228 42.5867 75.2548C43.5886 75.9228 44.2566 76.2329 45.0438 76.2329C45.9026 76.2806 46.7137 75.9228 47.2624 75.2787C48.2404 75.9228 48.8845 76.2329 49.6479 76.2329C50.5544 76.2806 51.4132 75.8751 51.9857 75.1833C52.6537 75.8274 53.5363 76.209 54.4667 76.2329C56.7091 76.2329 57.9019 75.064 57.9019 73.2033V65.1163H55.9457V72.8931V72.9408ZM27.5817 74.3245C26.0311 74.3245 25.1961 73.7519 25.1961 72.5592C25.1245 71.6288 25.8164 70.8177 26.7467 70.7462H26.8421C27.7486 70.7462 28.3212 71.2948 28.3689 72.5115C28.3927 73.084 28.4404 73.6088 28.4643 74.3006H27.5817M36.0026 73.9189C35.4301 72.8693 34.7621 71.8912 33.9749 70.9847C34.5474 70.7223 35.1677 70.5792 35.8118 70.5553C37.0045 70.5553 37.6963 71.0801 37.6963 71.8674C37.6963 72.6546 37.0284 73.4657 36.0026 73.9189Z" fill="#3D3836"/>
<path d="M62.2674 65.164H60.3351V76.3045H62.2674V65.164Z" fill="#3D3836"/>
<path d="M72.5731 65.9263L73.7658 67.0714L75.1733 65.6401L73.7181 64.2087L72.5731 65.3538L71.3803 64.2087L69.949 65.6401L71.4042 67.0714L72.5731 65.9263Z" fill="#3D3836"/>
<path d="M77.4391 78.3076L76.294 77.2102L74.8627 78.6415L76.3179 80.0729L77.4391 78.9755L78.5841 80.0729L79.9916 78.6415L78.5603 77.2102L77.4391 78.3076Z" fill="#3D3836"/>
<path d="M75.173 76.2795H76.4374C78.6798 76.2795 79.8726 75.0868 79.8726 73.2499C79.8248 71.7709 79.6579 70.2918 79.4193 68.8367H77.4632C77.7256 70.1964 77.8687 71.5562 77.9164 72.9398C77.9164 73.8463 77.5586 74.2518 76.4374 74.2518H75.173C74.362 74.2518 74.1234 73.8463 74.1234 73.1783V68.0256H72.1911V68.8844C68.5889 69.4569 67.3723 71.6277 67.3723 73.3215C67.3723 75.2061 68.6367 76.3273 70.6405 76.3273C71.4993 76.3034 72.3104 76.041 73.026 75.5639C73.6224 76.1126 74.4097 76.375 75.1969 76.3273M70.6405 74.2995C69.7579 74.2995 69.2569 73.8463 69.2569 73.0829C69.2569 71.8901 70.3065 70.9359 72.1911 70.5542V73.0829C72.1911 73.393 72.1911 73.6793 72.2627 73.9894C71.7617 74.2041 71.213 74.2995 70.6405 74.2995Z" fill="#3D3836"/>
<path d="M88.3176 76.2794H89.5819C91.8243 76.2794 93.0171 75.1105 93.0171 73.2498C92.9694 71.7708 92.8024 70.2917 92.54 68.8365H90.5838C90.8462 70.1963 91.0132 71.5561 91.0848 72.9397C91.0848 73.8462 90.727 74.2517 89.6058 74.2517H88.3414C87.5542 74.2517 86.8624 73.7031 86.7192 72.9397C86.3376 71.6038 86.0751 70.2202 85.9082 68.8365H83.9043C84.1667 70.4587 84.5484 72.057 85.0255 73.6076L85.2164 74.0847C84.62 74.204 83.9997 74.2756 83.4033 74.2517C82.5923 74.2517 81.805 74.1324 81.0178 73.87L80.66 75.7785C81.5188 76.1124 82.4491 76.2794 83.3556 76.2794C84.3576 76.2794 85.3118 75.9932 86.1467 75.4445C86.7431 75.9932 87.5303 76.3033 88.3414 76.2794" fill="#3D3836"/>
<path d="M90.6074 78.3076L89.4385 77.2102L88.031 78.6415L89.4862 80.0729L90.6074 78.9755L91.7286 80.0729L93.1599 78.6415L91.7286 77.2102L90.6074 78.3076Z" fill="#3D3836"/>
<path d="M112.65 72.9403C112.65 73.8468 112.292 74.2524 111.171 74.2524C110.241 74.2524 109.74 74.0377 109.501 73.6798L109.978 73.5844L110.527 71.6283C107.712 70.9365 106.686 68.7418 104.348 68.7418C103.585 68.7656 102.822 68.9803 102.154 69.362L102.702 71.0796C103.18 70.8649 103.704 70.7456 104.229 70.7218C105.589 70.7218 106.328 71.6998 108.094 72.5586C106.281 73.2504 105.064 74.2524 101.486 74.2524C100.699 74.2524 100.007 73.7037 99.8637 72.9403C99.482 71.6044 99.2196 70.2208 99.0526 68.8372H97.0487C97.3111 70.4593 97.6928 72.0577 98.1699 73.6083L98.3608 74.1092C97.7644 74.2285 97.1441 74.3001 96.5478 74.2762C95.7367 74.2762 94.9494 74.1331 94.1622 73.8945L93.8044 75.803C94.6632 76.1131 95.5935 76.2801 96.5 76.3039C97.502 76.3039 98.48 76.0177 99.2911 75.469C99.8875 76.0177 100.675 76.3278 101.486 76.3039C105.565 76.3039 106.209 74.8965 108.285 74.0615C108.475 75.5405 109.454 76.3039 111.171 76.3039C113.414 76.3039 114.606 75.135 114.606 73.2743V65.1396H112.674V72.9165L112.65 72.9403Z" fill="#3D3836"/>
<path d="M118.996 65.164H117.063V76.3045H118.996V65.164Z" fill="#3D3836"/>
<path d="M132.88 68.1221C131.257 68.1221 129.945 69.0047 127.584 71.5811C127.822 70.603 127.965 69.6011 127.989 68.5992V65.164H126.057V73.2748C125.89 73.4895 125.699 73.6804 125.508 73.9189C125.007 73.8474 124.578 73.752 124.101 73.6804L123.743 75.5888C125.651 76.0421 127.584 76.2806 129.54 76.2806C133.834 76.2806 136.196 74.3722 136.196 71.5334C136.267 69.7204 134.86 68.1936 133.047 68.0982H132.832M129.707 74.2768C128.872 74.2768 128.109 74.2291 127.345 74.1813C130.089 71.1756 131.114 70.1498 132.498 70.1498C133.428 70.0782 134.239 70.7939 134.287 71.7242V71.8197C134.287 73.2271 132.498 74.2768 129.707 74.2768Z" fill="#3D3836"/>
<path d="M163.152 66.3566L161.72 64.9253L160.289 66.3566L161.72 67.7879L163.152 66.3566Z" fill="#3D3836"/>
<path d="M168.997 72.9403C168.997 73.8468 168.639 74.2524 167.518 74.2524C166.587 74.2524 166.062 74.0377 165.848 73.6798L166.349 73.5844L166.897 71.6283C164.082 70.9126 163.033 68.7418 160.719 68.7418C159.955 68.7656 159.192 68.9803 158.548 69.362L159.097 71.0796C159.574 70.8649 160.099 70.7456 160.623 70.7218C161.983 70.7218 162.723 71.6998 164.488 72.5586C162.675 73.2504 161.458 74.2762 157.88 74.2762C157.308 74.2762 156.759 74.1569 156.234 73.8945C156.687 73.2027 156.926 72.3916 156.902 71.5567C156.974 69.7437 155.542 68.1931 153.729 68.1215H153.538C151.988 68.1215 150.604 69.0519 148.386 71.6044C148.624 70.6263 148.767 69.6006 148.791 68.5986V65.1634H146.835V73.4413C146.62 73.7275 146.406 73.9899 146.191 74.2762H144.426C144.426 73.4174 144.402 72.8926 144.354 72.3439C144.235 70.0299 142.923 68.7418 141.014 68.7418C138.963 68.7418 137.412 70.3878 137.412 72.6063C137.412 74.8249 138.987 76.2801 141.444 76.2801H142.469C142.135 77.2581 140.847 77.8307 138.7 77.8307V79.5721C142.517 79.5721 144.139 78.2362 144.402 76.2801H150.556C152.179 76.3516 153.777 75.8984 155.113 75.0157C155.805 75.7791 156.783 76.2562 157.832 76.2801C161.912 76.2801 162.532 74.8726 164.631 74.0377C164.822 75.4928 165.824 76.2801 167.518 76.2801C169.76 76.2801 170.953 75.1111 170.953 73.2504V65.1396H169.021V72.9165L168.997 72.9403ZM141.658 74.3239C140.108 74.3239 139.273 73.7514 139.273 72.5586C139.201 71.6283 139.893 70.8172 140.823 70.7456H140.919C141.825 70.7456 142.374 71.3181 142.446 72.5109C142.469 73.0834 142.517 73.6083 142.565 74.3001H141.682M150.389 74.2762H148.004C150.676 71.3181 151.773 70.1492 153.133 70.1492C154.063 70.0777 154.85 70.7933 154.898 71.7237V71.8191C154.898 73.2266 153.109 74.2762 150.366 74.2762" fill="#3D3836"/>
<path d="M175.342 65.164H173.41V76.3045H175.342V65.164Z" fill="#3D3836"/>
<path d="M2.72393 94.1239L3.12947 92.2871C4.01212 92.6449 4.96634 92.8357 5.92055 92.8596C7.08947 92.8596 7.68586 92.4541 7.68586 91.643C7.70971 91.2613 7.54272 90.8796 7.2326 90.6649C6.73164 90.3786 6.18296 90.1401 5.61043 89.9731C4.8232 89.7345 4.08369 89.329 3.46345 88.7803C2.96248 88.2555 2.70007 87.5398 2.74778 86.8242C2.70007 85.9654 3.0579 85.1304 3.72586 84.5579C4.51308 83.9854 5.4673 83.6991 6.42152 83.7468C7.39959 83.7468 8.37766 83.9138 9.28417 84.2955L8.85477 86.1085C8.13911 85.7984 7.35188 85.6314 6.56465 85.6076C5.49116 85.6076 4.96634 85.9892 4.96634 86.7049C4.96634 87.0389 5.08561 87.349 5.32417 87.5637C5.72971 87.85 6.18296 88.0647 6.68393 88.2078C7.11332 88.3509 7.54272 88.5179 7.94826 88.7088C8.3061 88.8757 8.64007 89.0904 8.92634 89.329C9.23646 89.5676 9.47501 89.9015 9.61814 90.2594C9.78513 90.6888 9.8567 91.1182 9.8567 91.5714C9.90441 92.4779 9.52272 93.3367 8.80706 93.8854C7.99598 94.4579 6.99405 94.7442 5.99212 94.6965C4.87092 94.7203 3.74971 94.5056 2.70007 94.0762" fill="#3D3836"/>
<path d="M15.3674 86.228C14.8187 87.5878 14.3416 88.9476 13.936 90.355H16.7748C16.3932 88.9476 15.916 87.5639 15.3674 86.228ZM17.9676 94.5536L17.3235 92.2158H13.4112C13.1965 92.9314 12.9818 93.6948 12.7671 94.5536H10.5247C11.4551 90.9037 12.6956 87.3492 14.2223 83.9141H16.4886C18.0153 87.3492 19.2558 90.9037 20.21 94.5536H17.9676Z" fill="#3D3836"/>
<path d="M20.6155 90.3312V83.9141H22.7864V90.1642C22.7864 91.9295 23.4782 92.8121 24.8379 92.8121C26.1977 92.8121 26.8895 91.9295 26.8895 90.1642V83.9141H29.0604V90.3312C29.0604 91.7625 28.7025 92.836 27.9869 93.5994C27.1519 94.3866 26.0069 94.816 24.8618 94.7206C23.6929 94.7921 22.5717 94.3866 21.7129 93.5994C20.9972 92.836 20.6394 91.7386 20.6394 90.3312" fill="#3D3836"/>
<path d="M34.6668 85.7745H33.3547V92.7165H34.6668C36.7422 92.7165 37.768 91.5475 37.768 89.2097C37.768 86.8719 36.7422 85.7268 34.6668 85.7745ZM31.16 94.5533V83.9138H34.7145C37.6487 83.7945 40.1297 86.0608 40.2728 89.0189C40.3921 91.9531 38.1258 94.434 35.1916 94.5772H31.1839L31.16 94.5533Z" fill="#3D3836"/>
<path d="M43.8269 83.9141H41.6561V94.5536H43.8269V83.9141Z" fill="#3D3836"/>
<path d="M53.5361 86.228C52.9636 87.5639 52.4865 88.9476 52.1048 90.355H54.9436C54.5619 88.9476 54.0848 87.5639 53.5361 86.228ZM56.1364 94.5536L55.4923 92.2158H51.58C51.3653 92.9314 51.1506 93.6948 50.9359 94.5536H48.6935C49.6238 90.9037 50.8643 87.3492 52.3911 83.9141H54.6573C56.1841 87.3492 57.4246 90.9037 58.3788 94.5536H56.1364Z" fill="#3D3836"/>
<path d="M62.6968 85.7744H61.8619V88.7802H62.6968C64.0804 88.7802 64.7722 88.2793 64.7722 87.2535C64.82 86.8002 64.6291 86.3708 64.2951 86.1084C63.818 85.8699 63.2932 85.7506 62.7445 85.7744M62.5298 90.6171H61.8857V94.5771H59.691V83.9376H62.8161C63.9134 83.866 64.9869 84.1523 65.8934 84.7725C66.633 85.3212 67.0385 86.2038 66.9908 87.1103C66.9908 88.6371 66.299 89.5913 64.8677 89.9491C65.4402 90.2593 65.8934 90.7602 66.132 91.3566L67.6826 94.5771H65.3448L63.8896 91.5713C63.7703 91.285 63.5556 91.0465 63.3171 90.8556C63.0785 90.6887 62.7922 90.6171 62.506 90.6409" fill="#3D3836"/>
<path d="M73.1212 86.228C72.5725 87.5878 72.0954 88.9476 71.6899 90.355H74.5287C74.147 88.9476 73.6699 87.5639 73.1212 86.228ZM75.7453 94.5536L75.1012 92.2158H71.1889C70.9742 92.9314 70.7595 93.6948 70.5448 94.5536H68.3024C69.2328 90.9037 70.4733 87.3492 72 83.9141H74.2663C75.8169 87.3492 77.0574 90.9037 77.9639 94.5536H75.7215H75.7453Z" fill="#3D3836"/>
<path d="M81.4232 89.973V92.6925H82.7353C83.2601 92.7163 83.7849 92.6209 84.2382 92.4062C84.5722 92.1915 84.763 91.786 84.7153 91.3804C84.7153 90.4501 84.095 89.973 82.8784 89.973H81.3994H81.4232ZM81.4232 85.7744V88.3508H82.9977C83.9042 88.3508 84.3813 87.8976 84.3813 87.0149C84.3813 86.2038 83.7849 85.7744 82.6399 85.7744H81.4471H81.4232ZM82.9023 94.5532H79.3001V83.9137H82.5922C83.5941 83.866 84.596 84.1045 85.4787 84.6055C86.1705 85.0588 86.5521 85.846 86.5044 86.6571C86.5521 87.5397 86.0989 88.3985 85.3355 88.8518C86.3375 89.2812 86.9816 90.3069 86.91 91.3804C86.9816 92.2869 86.576 93.1696 85.8603 93.7421C85.0016 94.3147 83.9519 94.6009 82.9261 94.5294" fill="#3D3836"/>
<path d="M90.6794 83.9141H88.5086V94.5536H90.6794V83.9141Z" fill="#3D3836"/>
<path d="M96.8578 86.228C96.2853 87.5639 95.8082 88.9476 95.4265 90.355H98.2653C97.8836 88.9476 97.4065 87.5639 96.8578 86.228ZM99.4342 94.5536L98.7901 92.2158H94.8778C94.6631 92.9314 94.4484 93.6948 94.2337 94.5536H91.9913C92.9217 90.9037 94.1622 87.3492 95.6889 83.9141H97.9552C99.5058 87.3492 100.746 90.9037 101.677 94.5536H99.4581H99.4342Z" fill="#3D3836"/>
<path d="M109.549 85.7744H108.714V88.7802H109.549C110.932 88.7802 111.624 88.2793 111.624 87.2535C111.672 86.8002 111.481 86.3708 111.099 86.1084C110.622 85.8699 110.097 85.7506 109.549 85.7744ZM109.382 90.6171H108.737V94.5771H106.543V83.9376H109.668C110.765 83.866 111.839 84.1523 112.745 84.7725C113.485 85.3212 113.914 86.2038 113.866 87.1103C113.866 88.6371 113.151 89.5913 111.743 89.9491C112.316 90.2593 112.769 90.7602 113.008 91.3566L114.558 94.5771H112.22L110.741 91.5713C110.598 91.285 110.407 91.0465 110.169 90.8556C109.93 90.6887 109.644 90.6171 109.358 90.6409" fill="#3D3836"/>
<path d="M119.997 86.228C119.449 87.5639 118.972 88.9476 118.566 90.355H121.381C120.999 88.9476 120.522 87.5639 119.974 86.228M122.598 94.5536L121.954 92.2158H118.041C117.827 92.9314 117.612 93.6948 117.397 94.5536H115.155C116.085 90.9037 117.326 87.3492 118.852 83.9141H121.119C122.645 87.3492 123.886 90.9037 124.816 94.5536H122.598Z" fill="#3D3836"/>
<path d="M128.323 83.9141H126.152V94.5536H128.323V83.9141Z" fill="#3D3836"/>
<path d="M130.518 94.5536V83.9141H132.688V92.7167H136.982V94.5536H130.518Z" fill="#3D3836"/>
<path d="M147.026 92.502C147.36 91.5478 147.694 90.2596 148.075 88.6374C148.433 87.0153 148.743 85.4408 148.958 83.9141H151.177C150.461 88.3035 149.507 91.8341 148.29 94.5536H145.904C145.07 92.4066 144.425 90.188 143.948 87.9218C143.447 90.188 142.779 92.3827 141.944 94.5536H139.559C138.891 92.9076 138.342 91.2377 137.889 89.5201C137.388 87.6117 136.983 85.7271 136.696 83.9141H138.915C139.153 85.4647 139.44 87.063 139.821 88.6851C140.108 89.9733 140.442 91.2615 140.847 92.502C141.324 91.2138 141.73 89.8779 142.064 88.542C142.445 87.0153 142.756 85.4647 142.97 83.9141H144.926C145.141 85.4885 145.451 87.063 145.857 88.5897C146.191 89.9256 146.572 91.2377 147.05 92.502" fill="#3D3836"/>
<path d="M155.661 86.228C155.089 87.5639 154.612 88.9476 154.23 90.355H157.069C156.687 88.9476 156.234 87.5639 155.685 86.228M158.261 94.5536L157.617 92.2158H153.705C153.49 92.9314 153.276 93.6948 153.061 94.5536H150.819C151.749 90.9037 152.989 87.3492 154.516 83.9141H156.782C158.309 87.3492 159.55 90.9037 160.48 94.5536H158.238H158.261Z" fill="#3D3836"/>
<path d="M163.939 94.553H161.769V90.3068C160.313 88.3506 159.121 86.2036 158.238 83.9374H160.48C161.101 85.5595 161.912 87.1101 162.866 88.5653C163.82 87.1101 164.607 85.5595 165.228 83.9374H167.47C166.563 86.2036 165.371 88.3506 163.939 90.3068V94.553Z" fill="#3D3836"/>
<path d="M168.114 94.1239L168.519 92.2871C169.402 92.6449 170.356 92.8357 171.31 92.8596C172.479 92.8596 173.076 92.4541 173.076 91.643C173.099 91.2613 172.932 90.8796 172.622 90.6649C172.121 90.3786 171.573 90.1401 171 89.9731C170.213 89.7345 169.473 89.329 168.853 88.7803C168.352 88.2555 168.09 87.5398 168.138 86.8242C168.09 85.9654 168.448 85.1304 169.092 84.5579C169.879 83.9854 170.833 83.6991 171.787 83.7468C172.766 83.7468 173.744 83.9138 174.65 84.2955L174.221 86.1085C173.505 85.7984 172.718 85.6314 171.931 85.6076C170.857 85.6076 170.332 85.9892 170.332 86.7049C170.308 87.0389 170.452 87.349 170.69 87.5637C171.096 87.85 171.549 88.0647 172.05 88.2078C172.479 88.3509 172.909 88.5179 173.314 88.7088C173.672 88.8757 174.006 89.0904 174.292 89.329C174.602 89.5676 174.841 89.9015 175.008 90.2594C175.175 90.6888 175.246 91.1182 175.223 91.5714C175.27 92.4779 174.889 93.3367 174.173 93.8854C173.362 94.4579 172.36 94.7442 171.382 94.6965C170.261 94.7203 169.139 94.5056 168.09 94.0762" fill="#3D3836"/>
</svg>
