<svg width="174" height="114" viewBox="0 0 174 114" fill="none" xmlns="http://www.w3.org/2000/svg">
<path d="M117.152 91.4405C111.461 91.9661 104.742 90.5949 102.113 89.9778L101.839 89.9092L103.439 93.1317H103.507C106.227 93.7031 110.318 94.3658 114.386 94.3658C115.46 94.3658 116.466 94.3201 117.426 94.2287H117.563L117.289 91.4176H117.152V91.4405Z" fill="#00A9C5"/>
<path d="M132.396 79.876C127.482 80.9502 122.477 81.6358 117.449 81.9558C113.701 82.1843 109.93 82.1386 106.181 81.8415C103.21 81.613 100.262 81.1559 97.3825 80.4245L97.1083 80.356L98.7309 83.6242H98.7995C101.131 84.1041 103.508 84.4469 105.884 84.6297C108.033 84.8126 110.272 84.904 112.535 84.904C114.181 84.904 115.895 84.8583 117.586 84.744C122.774 84.4241 127.939 83.7156 133.035 82.5957H133.173L132.578 79.8303L132.441 79.876H132.396Z" fill="#00A9C5"/>
<path d="M158.998 61.5243C152.073 64.8611 144.257 67.4436 135.732 69.2034C128.602 70.6661 121.357 71.5574 114.089 71.8545C107.004 72.1974 99.8966 72.0145 92.8346 71.306H92.606L94.0687 74.2543H94.1373C96.8798 74.5057 101.336 74.8028 107.004 74.8028C109.381 74.8028 111.781 74.7571 114.158 74.6428C121.585 74.3228 128.99 73.4315 136.258 71.946C145.011 70.1405 153.056 67.4665 160.209 64.0383L160.324 63.9926L159.112 61.4786L158.998 61.5243Z" fill="#00A9C5"/>
<path d="M171.728 41.8014L171.614 41.87C163.569 47.6064 154.176 52.2687 143.663 55.7426C134.818 58.6222 125.699 60.6106 116.466 61.7304C102.548 63.4674 91.6005 62.9417 88.5837 62.7589H88.3552L89.795 65.6386H89.8636C91.6919 65.73 93.7031 65.7757 95.7829 65.7985H96.3771C103.188 65.7985 109.975 65.3643 116.718 64.5415C126.156 63.4217 135.458 61.3648 144.486 58.4394C155.273 54.8741 164.94 50.0747 173.214 44.1782L173.328 44.1097L171.682 41.8242L171.728 41.8014Z" fill="#00A9C5"/>
<path d="M130.293 50.1883C139.572 47.2401 148.508 43.2634 156.918 38.3726L157.032 38.304L155.615 35.8815L155.501 35.95C147.274 40.7495 138.566 44.6119 129.493 47.5144C121.882 49.9369 114.112 51.7653 106.204 52.9766C95.6912 54.5764 87.5779 54.6907 84.584 54.6449H84.3783L85.7724 57.456H85.8638C92.7887 57.3875 99.7136 56.8161 106.57 55.742C114.615 54.5307 122.545 52.6566 130.316 50.1883" fill="#00A9C5"/>
<path d="M115.575 43.1264C122.751 40.7038 129.653 37.5271 136.166 33.619L136.281 33.5504L134.841 31.1507L134.727 31.2193C128.419 35.0131 121.7 38.0984 114.729 40.4524C108.924 42.4179 102.959 43.9263 96.9254 44.9548C91.5317 45.8918 86.0695 46.4174 80.6073 46.5089H80.4016L81.7729 49.2971H81.8643C87.0523 49.1371 92.2174 48.6115 97.3368 47.7202C103.53 46.6688 109.655 45.1376 115.597 43.1036" fill="#00A9C5"/>
<path d="M112.261 33.1386C119.094 30.5332 125.676 27.265 131.893 23.4026L132.007 23.334L130.521 20.98L130.407 21.0486C124.351 24.8196 117.952 27.9963 111.278 30.5332C105.542 32.7272 99.668 34.5556 93.6802 35.9725C88.1265 37.321 82.4586 38.2808 76.7679 38.8979H76.5851L77.9106 41.5947H78.002C83.4871 40.9548 88.9264 39.9949 94.2972 38.7151C100.399 37.2752 106.41 35.424 112.261 33.1614" fill="#00A9C5"/>
<path d="M101.999 27.2428C107.644 25.0259 112.718 22.3976 117.106 19.4494L117.22 19.3808L115.666 17.0497L115.552 17.1182C111.347 19.9522 106.456 22.4662 101.016 24.6145C96.4454 26.3971 91.7374 27.8827 86.9608 29.0483C82.4128 30.1681 77.8191 30.9909 73.1796 31.5622H72.9968L74.3224 34.2591H74.4138C78.8475 33.6877 83.2356 32.8649 87.5779 31.7908C92.4916 30.6024 97.3139 29.094 102.022 27.2656" fill="#00A9C5"/>
<path d="M95.3256 20.6373C100.239 18.5575 104.627 16.1349 108.375 13.4381L108.49 13.3695L106.844 11.0841L106.73 11.1527C103.165 13.7124 98.9823 16.0207 94.2515 18.0319C90.252 19.7002 86.161 21.0943 81.9786 22.2142C77.9563 23.2884 73.8882 24.134 69.7744 24.7282H69.5916L70.8943 27.4022H70.9857C74.9166 26.7851 78.8019 25.9852 82.6414 24.9339C86.9609 23.7912 91.189 22.3513 95.3028 20.6144" fill="#00A9C5"/>
<path d="M89.3604 13.941C93.4742 12.1355 97.428 9.96433 101.13 7.45035L101.245 7.38178L99.6449 5.07349L99.5306 5.14205C92.1029 10.2386 83.3268 13.5753 77.2933 15.4951C73.7737 16.615 70.1856 17.5291 66.5517 18.2833H66.3917L67.7173 20.9116H67.8087C69.6599 20.5002 73.4309 19.6318 78.0932 18.1691C81.9327 16.9806 85.6809 15.5637 89.3604 13.941Z" fill="#00A9C5"/>
<path d="M81.2243 8.70819C81.2243 8.70819 83.0069 8.06827 85.2466 7.06267C88.2634 5.71426 90.6403 4.36585 92.3087 3.08601L92.4001 2.99459L90.686 0.77771L90.5717 0.869128C86.9836 3.63451 80.3101 6.03423 80.2415 6.05708L80.1273 6.10279L81.0643 8.73105L81.1786 8.68534L81.2243 8.70819Z" fill="#00A9C5"/>
<path d="M42.5549 111.827C43.9033 113.016 45.823 113.61 48.2913 113.61C49.8911 113.61 51.4909 113.313 52.9765 112.742V106.479H47.7657V108.079H50.8282V111.667C50.0054 111.85 49.2055 111.942 48.3827 111.942C45.8688 111.942 42.532 110.822 42.5549 107.096C42.5549 103.371 45.6174 102.091 48.2456 102.114C49.5255 102.114 50.8053 102.32 52.0166 102.754L52.5651 101.154C51.171 100.652 49.7083 100.423 48.2228 100.446C45.823 100.446 43.9261 101.063 42.5777 102.297C41.2293 103.531 40.5437 105.131 40.5437 107.142C40.5437 109.131 41.2065 110.707 42.5549 111.896" fill="#00A9C5"/>
<path d="M62.3238 113.679C63.6722 113.702 65.0206 113.45 66.3005 112.947L65.8205 111.279C64.7464 111.736 63.5808 111.965 62.4152 111.965C60.3355 111.965 57.0444 111.165 57.0673 107.142C57.0673 103.12 60.4497 102.137 62.3924 102.137C63.5122 102.183 64.6092 102.389 65.6605 102.731L66.209 101.086C64.9749 100.674 63.6722 100.446 62.3695 100.423C60.0155 100.423 58.21 101.04 56.953 102.251C55.7189 103.463 55.0789 105.108 55.0789 107.142C55.0789 109.131 55.696 110.73 56.953 111.896C58.1871 113.062 59.9926 113.656 62.3238 113.656" fill="#00A9C5"/>
<path d="M34.9214 113.586C36.2698 113.609 37.6182 113.381 38.898 112.878L38.4181 111.232C37.3439 111.689 36.1784 111.918 35.0128 111.918C32.933 111.918 29.642 111.118 29.6648 107.096C29.6648 103.073 33.0473 102.091 34.9899 102.091C36.1098 102.136 37.2068 102.319 38.2581 102.662L38.8066 101.016C37.5725 100.605 36.2698 100.376 34.9671 100.354C32.6131 100.354 30.8076 100.971 29.5506 102.182C28.3164 103.393 27.6765 105.039 27.6765 107.073C27.6765 109.084 28.2936 110.661 29.5506 111.826C30.7847 112.992 32.5902 113.586 34.9214 113.586Z" fill="#00A9C5"/>
<path d="M39.9724 74.7111H38.9668C36.3614 74.7111 35.6529 73.5684 35.5386 73.3398C35.3558 72.9513 35.2415 72.5171 35.2415 72.06C35.2415 71.6258 35.333 71.1915 35.5386 70.803C35.7215 70.4145 36.0186 70.0945 36.3843 69.866C37.1156 69.4089 38.0526 69.4089 38.784 69.866C39.1496 70.0945 39.4468 70.4373 39.6524 70.803C39.8581 71.1687 39.9496 71.6029 39.9724 72.0143V74.6882V74.7111ZM60.7014 72.6542C60.7014 73.1113 60.7014 73.5455 60.61 73.9798C60.5642 74.2083 60.45 74.3911 60.2671 74.5283C60.0157 74.6654 59.7186 74.734 59.4444 74.7111H54.4164C54.2793 74.7111 54.165 74.5968 54.165 74.4597V69.226H52.4738V71.9457C52.4738 71.9457 52.4738 72.0371 52.4738 72.06V73.1799C52.2681 73.5227 51.7196 73.9569 51.3082 74.2083C50.7826 74.4826 50.1883 74.6654 49.5941 74.6882H41.6179L41.6636 72.1285C41.6636 69.386 39.4468 67.9005 37.367 67.9005C36.6585 67.9005 35.9729 68.0833 35.3787 68.4718C34.7845 68.8375 34.3045 69.3632 33.9845 70.0031C33.6417 70.643 33.4818 71.3515 33.4818 72.06C33.4818 72.7685 33.6417 73.4541 33.9617 74.0712C34.1445 74.414 35.2644 76.1966 38.7154 76.1966H39.9038C39.9038 77.1108 39.6296 77.7507 39.3553 78.0478C38.8982 78.5049 38.2812 78.7563 37.6413 78.7335H35.6072V80.2419H37.6184C38.9897 80.2419 39.9724 79.8991 40.6352 79.1677C41.138 78.6192 41.5951 77.545 41.5951 76.2195H50.1198C50.874 76.2195 51.6053 76.0366 52.2452 75.671C52.3824 75.6024 52.4966 75.511 52.6109 75.4196C52.8394 75.8995 53.3422 76.2195 53.8907 76.2195H59.6044C60.45 76.2195 61.0899 76.0595 61.5013 75.7395C61.9127 75.4196 62.1869 74.9625 62.2783 74.4368C62.3926 73.6598 62.4612 72.8827 62.4383 72.0828V64.4495H60.7242V72.6771L60.7014 72.6542Z" fill="#434E7E"/>
<path d="M66.4153 64.4495H64.7012V76.2195H66.4153V64.4495Z" fill="#434E7E"/>
<path d="M31.5164 64.4495H29.8023V76.2195H31.5164V64.4495Z" fill="#434E7E"/>
<path d="M25.5741 74.1616C25.1399 74.5273 24.4314 74.7101 23.4715 74.7101H16.1809V72.5161C16.5237 72.219 19.5634 69.6593 23.1515 69.6593C24.2714 69.6593 25.0713 69.8879 25.597 70.3221C26.0312 70.7106 26.2369 71.5562 26.2369 72.219C26.2369 72.8818 26.0083 73.796 25.597 74.1616H25.5741ZM27.9281 72.219C27.9281 70.7335 27.6081 69.7507 26.8768 69.0423C26.1455 68.3109 25.0942 67.9224 23.8143 67.9224C19.9519 67.9224 16.9123 70.1621 16.2038 70.7335V69.2251H14.6268V74.6873H11.4958C10.5359 74.6873 9.75884 73.9102 9.75884 72.9504V64.4257H8.04476V75.1672C8.04476 76.1271 7.86192 76.8356 7.49625 77.2698C7.13058 77.7041 6.58207 77.9098 5.87359 77.9098C3.26818 77.9098 2.67397 77.7041 2.28544 77.2698C1.91977 76.8128 1.73694 76.1271 1.73694 75.1672V73.2018H0V75.2587C0 76.6756 0.342816 77.7269 1.00559 78.4354C1.66837 79.1439 2.62826 79.4867 5.85073 79.4867C7.15343 79.4867 8.15903 79.1211 8.84466 78.4354C9.41602 77.8184 9.576 76.9956 9.62171 75.9214C10.0559 76.15 10.5359 76.2642 11.0158 76.2642H14.6268C14.6268 76.2642 14.6725 76.2642 14.6954 76.2642H23.7C25.117 76.2642 26.1683 75.9214 26.8768 75.2587C27.5853 74.5959 27.9281 73.5674 27.9281 72.2647" fill="#434E7E"/>
<path d="M56.5877 65.9347H54.0509V67.8316H56.5877V65.9347Z" fill="#434E7E"/>
<path d="M52.4738 65.9347H49.937V67.8316H52.4738V65.9347Z" fill="#434E7E"/>
<path d="M31.3565 91.7599H30.3509C27.7455 91.7599 27.037 90.6172 26.9227 90.3658C26.7399 89.9773 26.6256 89.543 26.6256 89.0859C26.6256 88.6517 26.717 88.2175 26.9227 87.8289C27.1055 87.4404 27.4027 87.1204 27.7683 86.8919C28.4997 86.4348 29.4367 86.4348 30.1909 86.8919C30.5566 87.1204 30.8537 87.4633 31.0594 87.8289C31.2651 88.1946 31.3565 88.6288 31.3565 89.0402V91.7142V91.7599ZM60.7015 89.7259C60.7015 90.1829 60.7015 90.6172 60.6101 91.0514C60.5644 91.28 60.4502 91.4628 60.2673 91.5999C60.0159 91.737 59.7188 91.7828 59.4446 91.7599H58.0276C56.4735 89.0859 55.6736 87.7147 54.7137 86.7091C53.6624 85.5892 52.8168 85.2007 51.6512 85.2007C50.8056 85.2007 49.8686 85.4749 48.7944 86.0463L48.703 86.092L49.3886 87.2804L49.6629 87.1433C50.2342 86.8919 50.8056 86.6177 51.5598 86.6177C52.314 86.6177 53.0225 87.0747 53.731 87.8061C54.5766 88.6746 55.3993 90.4343 56.1078 91.7599H46.9432C45.7319 91.7599 44.2921 90.8686 43.1722 90.023C42.3037 89.383 41.321 88.6745 38.1442 86.0463C37.9843 85.932 37.87 85.7263 37.8928 85.5206C37.8928 85.2692 38.03 85.0407 38.2357 84.9036C38.4642 84.7664 43.2179 83.3038 46.3718 82.3667H46.4632L46.0519 80.8583H45.9604C45.6633 80.9726 38.7385 83.0067 37.6871 83.5552C37.2758 83.738 36.9101 84.0122 36.613 84.3779C36.3159 84.7664 36.1788 85.2235 36.1788 85.7035C36.1788 86.2977 36.453 86.8462 36.933 87.2119C37.8471 87.9889 39.1955 88.9488 40.5439 90.1829C40.7953 90.4115 41.0239 90.5943 41.0239 90.8686C41.0239 91.1428 40.8639 91.3942 40.6125 91.5085C40.2697 91.6913 39.8583 91.7828 39.4698 91.7599H33.0706V89.2231C33.0706 86.4805 30.8537 84.995 28.7739 84.995C28.0654 84.995 27.3798 85.1778 26.7856 85.5664C26.1914 85.932 25.7114 86.4577 25.3915 87.0976C25.0487 87.7375 24.8887 88.446 24.8887 89.1545C24.8887 89.863 25.0487 90.5486 25.3915 91.1657C25.5743 91.5085 26.6942 93.2911 30.1452 93.2911H31.3336C31.3336 94.2053 31.0594 94.8452 30.7851 95.1423C30.3509 95.5994 29.7338 95.8508 29.0939 95.828H27.0598V97.3364H29.0482C30.4194 97.3364 31.4022 96.9936 32.065 96.2622C32.5678 95.7137 33.0248 94.6396 33.0248 93.314H39.6298C40.5668 93.314 41.3667 93.0855 41.9381 92.6284C42.2809 92.3541 42.5551 91.9884 42.6923 91.5542C43.7664 92.3084 45.1834 93.314 46.509 93.314H59.8788C60.6101 93.2911 61.1815 93.1312 61.5472 92.8341C61.9585 92.5141 62.2328 92.057 62.3242 91.5314C62.4385 90.7543 62.507 89.9772 62.4842 89.1773V81.5211H60.7701V89.7487L60.7015 89.7259Z" fill="#434E7E"/>
<path d="M66.4153 81.4985H64.7012V93.2686H66.4153V81.4985Z" fill="#434E7E"/>
<path d="M8.70737 95.3943H6.17053V97.2912H8.70737V95.3943Z" fill="#434E7E"/>
<path d="M4.59391 95.3943H2.05707V97.2912H4.59391V95.3943Z" fill="#434E7E"/>
<path d="M20.6375 90.4581C20.409 90.8237 20.089 91.1209 19.7234 91.3265C18.9463 91.7379 18.0321 91.7379 17.2551 91.3265C16.8894 91.1209 16.5695 90.8237 16.3409 90.4581C16.1124 90.0924 15.9981 89.6582 15.9981 89.2239C15.9981 88.1498 16.5009 87.167 17.3465 86.5271H18.4664C19.7691 86.5271 20.4319 87.6013 20.6147 87.9898C20.8204 88.3783 20.9347 88.7897 20.9575 89.2239C20.9575 89.6582 20.8432 90.0924 20.6147 90.4581H20.6375ZM20.6375 85.5215C19.9748 85.1558 19.2434 84.973 18.4892 84.9959H16.1124H13.2556C11.9529 84.9959 10.9473 85.3615 10.2616 86.07C9.55315 86.8242 9.48458 87.8984 9.48458 89.1325V89.7953C9.48458 90.7552 9.30175 91.4637 8.93608 91.8979C8.57041 92.3321 8.0219 92.5378 7.31342 92.5378H3.95381C3.24533 92.5378 2.62826 92.2864 2.3083 91.8979C1.96548 91.4865 1.75979 90.7552 1.75979 89.7953V88.1955H0V89.8867C0 91.3037 0.342816 92.355 1.00559 93.0635C1.66837 93.7491 2.65111 94.1148 3.93096 94.1148H7.31342C8.61612 94.1148 9.62171 93.7491 10.3073 93.0635C10.993 92.355 11.1072 91.418 11.1072 90.001V89.3154C11.1072 88.3783 11.2901 87.6698 11.6786 87.2127C12.0443 86.7785 12.5699 86.5728 13.2556 86.5728H15.2896C15.1525 86.7328 15.0382 86.8928 14.9239 87.0528C14.5583 87.6927 14.3526 88.424 14.3754 89.1782C14.3754 90.6638 15.1525 92.0122 16.4323 92.7435C18.3978 93.8862 20.9347 93.2235 22.1002 91.2808C22.4888 90.6409 22.6716 89.9096 22.6716 89.1782C22.6716 88.4469 22.4887 87.7155 22.1459 87.0528C21.8031 86.4357 21.2775 85.9329 20.6604 85.5901" fill="#434E7E"/>
</svg>
