<svg width="192" height="98" viewBox="0 0 192 98" fill="none" xmlns="http://www.w3.org/2000/svg">
<path d="M4.53083 92.267C4.64882 92.4086 4.71962 92.4086 4.79041 92.267L8.42452 85.3764C8.42452 85.3764 8.54251 85.2348 8.6369 85.2348H9.29765C9.41564 85.2348 9.53363 85.3528 9.53363 85.4708V93.3761C9.53363 93.5177 9.41564 93.6121 9.29765 93.6121H8.6369C8.49531 93.6121 8.40092 93.4941 8.40092 93.3761V87.217L5.21518 93.1402C4.86121 93.7773 4.08247 93.7773 3.7521 93.1402L1.13271 87.9958V93.3997C1.13271 93.5413 1.03832 93.6357 0.896727 93.6357H0.235981C0.11799 93.6357 0 93.5177 0 93.3997V85.4944C0 85.3528 0.11799 85.2584 0.235981 85.2584H0.896727C0.896727 85.2584 1.06191 85.3056 1.10911 85.4L4.50724 92.267H4.53083Z" fill="#929497"/>
<path d="M12.4597 87.3835H13.1205C13.2621 87.3835 13.3565 87.5015 13.3565 87.6195V93.3774C13.3565 93.519 13.2621 93.6134 13.1205 93.6134H12.4597C12.3181 93.6134 12.2238 93.4954 12.2238 93.3774V87.6195C12.2238 87.4779 12.3417 87.3835 12.4597 87.3835Z" fill="#929497"/>
<path d="M12.7899 85.2348C13.1203 85.2348 13.4035 85.518 13.4035 85.8483C13.4035 86.1787 13.1203 86.4619 12.7899 86.4619C12.4596 86.4619 12.1764 86.1787 12.1764 85.8483C12.1764 85.518 12.4596 85.2348 12.7899 85.2348Z" fill="#929497"/>
<path d="M24.5183 87.3835H25.1791C25.3207 87.3835 25.4151 87.5015 25.4151 87.6195V93.3774C25.4151 93.519 25.2971 93.6134 25.1791 93.6134H24.5183C24.4003 93.6134 24.2823 93.4954 24.2823 93.3774V87.6195C24.2823 87.4779 24.4003 87.3835 24.5183 87.3835Z" fill="#929497"/>
<path d="M24.8488 85.2348C25.1792 85.2348 25.4623 85.518 25.4623 85.8483C25.4623 86.1787 25.1792 86.4619 24.8488 86.4619C24.5184 86.4619 24.2352 86.1787 24.2352 85.8483C24.2352 85.518 24.5184 85.2348 24.8488 85.2348Z" fill="#929497"/>
<path d="M110.652 87.3835H111.312C111.43 87.3835 111.548 87.5015 111.548 87.6195V93.3774C111.548 93.519 111.43 93.6134 111.312 93.6134H110.652C110.51 93.6134 110.416 93.4954 110.416 93.3774V87.6195C110.416 87.4779 110.534 87.3835 110.652 87.3835Z" fill="#929497"/>
<path d="M110.982 85.2348C111.312 85.2348 111.596 85.518 111.596 85.8483C111.596 86.1787 111.312 86.4619 110.982 86.4619C110.652 86.4619 110.368 86.1787 110.368 85.8483C110.368 85.518 110.652 85.2348 110.982 85.2348Z" fill="#929497"/>
<path d="M20.6481 89.8837C20.6481 88.4206 19.421 87.9251 16.8725 87.9487V93.3762C16.8725 93.4942 16.7545 93.6122 16.6365 93.6122H15.9757C15.8577 93.6122 15.7397 93.4942 15.7397 93.3762V87.6183C15.7397 87.4767 15.8577 87.3823 15.9757 87.3823C16.9668 87.3823 17.9816 87.3587 18.9727 87.3823C20.7425 87.4531 21.8045 88.5622 21.8045 90.3085V93.4234C21.8045 93.5414 21.6865 93.6594 21.5685 93.6594H20.9077C20.7897 93.6594 20.6717 93.5414 20.6717 93.4234V89.9073L20.6481 89.8837Z" fill="#929497"/>
<path d="M126.061 89.8837C126.061 88.4206 124.834 87.9251 122.285 87.9487V93.3762C122.285 93.4942 122.167 93.6122 122.049 93.6122H121.389C121.271 93.6122 121.153 93.4942 121.153 93.3762V87.6183C121.153 87.4767 121.271 87.3823 121.389 87.3823C122.38 87.3823 123.395 87.3587 124.386 87.3823C126.156 87.4531 127.217 88.5622 127.217 90.3085V93.4234C127.217 93.5414 127.099 93.6594 126.981 93.6594H126.321C126.203 93.6594 126.085 93.5414 126.085 93.4234V89.9073L126.061 89.8837Z" fill="#929497"/>
<path d="M84.1032 91.0876C84.1032 92.5507 85.3303 93.0462 87.8789 93.0226V87.5951C87.8789 87.4771 87.9969 87.3591 88.1149 87.3591H88.7756C88.8936 87.3591 89.0116 87.4771 89.0116 87.5951V93.353C89.0116 93.4946 88.8936 93.589 88.7756 93.589C87.7845 93.589 86.7698 93.6126 85.7787 93.589C84.0088 93.5182 82.9469 92.4091 82.9469 90.6628V87.5479C82.9469 87.4299 83.0649 87.3119 83.1829 87.3119H83.8436C83.9616 87.3119 84.0796 87.4299 84.0796 87.5479V91.064L84.1032 91.0876Z" fill="#929497"/>
<path d="M33.4855 90.7096V85.4708C33.4855 85.3292 33.6035 85.2348 33.7215 85.2348H34.3822C34.5238 85.2348 34.6182 85.3528 34.6182 85.4708V87.2642C34.6182 87.2642 34.6654 87.3822 34.7362 87.3822H36.3881C36.3881 87.3822 36.5061 87.4294 36.5061 87.5002V87.8306C36.5061 87.8306 36.4589 87.9486 36.3881 87.9486H34.7362C34.7362 87.9486 34.6182 87.9958 34.6182 88.0666V91.2759C34.6182 92.2198 35.161 92.7626 36.2465 92.9986C36.9072 93.1402 37.096 93.6357 36.2937 93.6121C34.5474 93.5649 33.4619 92.4322 33.4619 90.686" fill="#929497"/>
<path d="M105.46 90.7096V85.4708C105.46 85.3292 105.578 85.2348 105.696 85.2348H106.356C106.474 85.2348 106.592 85.3528 106.592 85.4708V87.2642C106.592 87.2642 106.64 87.3822 106.71 87.3822H108.362C108.362 87.3822 108.48 87.4294 108.48 87.5002V87.8306C108.48 87.8306 108.433 87.9486 108.362 87.9486H106.71C106.71 87.9486 106.592 87.9958 106.592 88.0666V91.2759C106.592 92.2198 107.135 92.7626 108.221 92.9986C108.881 93.1402 109.07 93.6357 108.268 93.6121C106.498 93.5649 105.436 92.4322 105.436 90.686" fill="#929497"/>
<path d="M60.4113 88.1385V93.3772C60.4113 93.4952 60.5293 93.6132 60.6473 93.6132H61.308C61.426 93.6132 61.544 93.4952 61.544 93.3772V89.7667C61.544 89.7667 61.5912 89.6487 61.662 89.6487H63.3139C63.3139 89.6487 63.4318 89.6015 63.4318 89.5307V89.2004C63.4318 89.2004 63.3847 89.0824 63.3139 89.0824H61.662C61.662 89.0824 61.544 89.0352 61.544 88.9644V87.5957C61.544 86.6518 62.0868 86.109 63.1723 85.873C63.833 85.7314 64.0218 85.2359 63.2195 85.2595C61.4496 85.2831 60.3877 86.4158 60.3877 88.162" fill="#929497"/>
<path d="M38.347 90.2845V93.3995C38.347 93.5174 38.465 93.6354 38.5829 93.6354H39.2437C39.3617 93.6354 39.4797 93.5174 39.4797 93.3995V89.7418C39.4797 88.7978 40.0224 88.2551 41.1079 88.0191C41.7687 87.8775 41.9575 87.3819 41.1551 87.4055C39.3853 87.4527 38.3234 88.5618 38.3234 90.3081" fill="#929497"/>
<path d="M47.5268 93.7306C47.5268 93.7306 47.4796 93.6126 47.4088 93.6126C46.9604 93.6126 46.6773 93.6126 46.0637 93.589C44.2938 93.5182 43.2319 92.4091 43.2319 90.6628V87.5479C43.2319 87.4299 43.3499 87.3119 43.4679 87.3119H44.1287C44.2467 87.3119 44.3646 87.4299 44.3646 87.5479V91.0404C44.3646 92.1023 45.049 93.0462 45.9693 93.0462C46.5357 93.0462 47.5268 92.5979 47.5268 91.418V87.5479C47.5268 87.4299 47.6448 87.3119 47.7628 87.3119H48.4235C48.5415 87.3119 48.6595 87.4299 48.6595 87.5479V94.4621C48.6595 96.1848 47.6212 97.3175 45.8277 97.3883C45.0254 97.4119 45.2142 96.9163 45.8749 96.7747C46.9604 96.5387 47.5032 95.9252 47.5268 94.9813L47.4796 93.7306H47.5268Z" fill="#929497"/>
<path d="M68.0333 85.2348H73.4609C73.4609 85.2348 73.6261 85.3056 73.6261 85.4V85.872C73.6261 85.872 73.5553 86.0371 73.4609 86.0371H68.9301V88.8217H72.163C72.163 88.8217 72.3282 88.8925 72.3282 88.9869V89.4589C72.3282 89.4589 72.2574 89.624 72.163 89.624H68.9301V92.8098H73.4609C73.4609 92.8098 73.6261 92.8806 73.6261 92.975V93.4469C73.6261 93.4469 73.5553 93.6121 73.4609 93.6121H68.0333C67.8918 93.6121 67.7974 93.4941 67.7974 93.3761V85.4708C67.7974 85.3528 67.9154 85.2348 68.0333 85.2348Z" fill="#929497"/>
<path d="M57.7914 91.5603C57.7914 92.3391 57.1543 92.9998 56.3519 92.9998H55.5024C54.7237 92.9998 54.0629 92.3627 54.0629 91.5603V89.4601C54.0865 88.6578 54.7237 88.0206 55.5024 88.0206H56.3519C57.1307 88.0206 57.7914 88.6578 57.7914 89.4601V91.5603ZM56.6351 87.3835H55.2192C53.9213 87.3835 52.8358 88.4454 52.8358 89.7433V91.23C52.8358 92.5279 53.8977 93.5898 55.2192 93.5898H56.6351C57.933 93.5898 59.0185 92.5279 59.0185 91.23V89.7433C59.0185 88.4454 57.9566 87.3835 56.6351 87.3835Z" fill="#929497"/>
<path d="M118.415 91.5603C118.415 92.3391 117.778 92.9998 116.976 92.9998H116.126C115.348 92.9998 114.687 92.3627 114.687 91.5603V89.4601C114.71 88.6578 115.348 88.0206 116.126 88.0206H116.976C117.755 88.0206 118.415 88.6578 118.415 89.4601V91.5603ZM117.259 87.3835H115.843C114.545 87.3835 113.46 88.4454 113.46 89.7433V91.23C113.46 92.5279 114.522 93.5898 115.843 93.5898H117.259C118.557 93.5898 119.642 92.5279 119.642 91.23V89.7433C119.642 88.4454 118.58 87.3835 117.259 87.3835Z" fill="#929497"/>
<path d="M79.6908 92.9511C79.6908 92.9511 79.6436 93.0691 79.5728 93.0691H77.4254C76.4815 93.0691 75.7027 92.2904 75.7027 91.3464V89.6946C75.7027 88.7507 76.4815 87.9719 77.4254 87.9719H79.5728C79.5728 87.9719 79.6908 88.0191 79.6908 88.0899V92.9747V92.9511ZM80.5875 85.2345H79.9268C79.8088 85.2345 79.6908 85.3525 79.6908 85.4705V87.264C79.6908 87.264 79.6436 87.382 79.5728 87.382H76.9062C75.6083 87.382 74.5228 88.4439 74.5228 89.7418V91.2285C74.5228 92.5264 75.5847 93.5883 76.9062 93.5883H80.5875C80.7291 93.5883 80.8235 93.4703 80.8235 93.3523V85.4469C80.8235 85.3053 80.7055 85.2109 80.5875 85.2109" fill="#929497"/>
<path d="M102.368 91.6068C102.368 92.1731 101.991 93.1879 100.103 93.0463C99.1591 92.9755 98.3803 92.2675 98.3803 91.3236V89.6717C98.3803 88.7278 99.1591 87.9491 100.103 87.9491H102.25C102.25 87.9491 102.368 87.9963 102.368 88.0671V91.6304V91.6068ZM103.242 87.3827H99.5839C98.286 87.3827 97.2004 88.4446 97.2004 89.7425V91.2292C97.2004 92.5271 98.2624 93.589 99.5839 93.589C100.74 93.589 102.18 93.4238 102.345 93.4474C102.463 93.471 102.51 93.589 102.699 93.589H103.242C103.383 93.589 103.478 93.471 103.478 93.353V87.5951C103.478 87.4535 103.36 87.3591 103.242 87.3591" fill="#929497"/>
<path d="M92.8822 93.6126C91.5843 93.6126 90.4988 92.5507 90.4988 91.2528V89.7661C90.4988 88.4682 91.5607 87.4063 92.8822 87.4063H95.9971C95.9971 87.4063 96.0443 87.4299 96.0443 87.4535V87.9019C96.0443 87.9019 96.0207 87.9491 95.9971 87.9491H93.3777C92.4338 87.9491 91.6551 88.7278 91.6551 89.6717V91.3236C91.6551 92.2675 92.4338 93.0463 93.3777 93.0463H95.9971C95.9971 93.0463 96.0443 93.0699 96.0443 93.0934V93.5418C96.0443 93.5418 96.0207 93.589 95.9971 93.589H92.8822V93.6126Z" fill="#929497"/>
<path d="M30.8663 87.8544C31.4326 87.8544 31.4326 87.0757 30.8899 87.0285C29.3088 86.8633 27.8221 87.2173 27.4445 88.468C27.1614 89.4119 27.7277 90.2614 29.0964 90.521C30.8899 90.8514 31.5978 91.7245 30.8191 92.5269C30.4179 92.928 29.2144 92.7864 28.3177 92.8336C27.3738 92.8808 27.4917 93.5888 28.3177 93.5888C29.7336 93.6124 31.3382 93.8012 31.9046 92.8572C32.4945 91.8661 31.999 90.4974 30.8899 90.2614C29.4032 89.9547 28.4593 89.6243 28.6481 88.7748C28.8132 87.9252 29.5448 87.878 30.8427 87.8544" fill="#929497"/>
<path d="M127.382 39.2894C128.326 39.2894 129.081 40.0446 129.081 40.9885C129.081 41.9324 128.326 42.6876 127.382 42.6876C126.438 42.6876 125.683 41.9324 125.683 40.9885C125.707 40.0446 126.462 39.2894 127.382 39.2894Z" fill="#008A79"/>
<path d="M127.382 24.6124C128.397 24.6124 129.223 25.4383 129.223 26.453C129.223 27.4677 128.397 28.2937 127.382 28.2937C126.368 28.2937 125.542 27.4677 125.542 26.453C125.542 25.4383 126.368 24.6124 127.382 24.6124Z" fill="#008A79"/>
<path d="M135.902 31.573C136.916 31.573 137.742 32.3989 137.742 33.4136C137.742 34.4284 136.916 35.2543 135.902 35.2543C134.887 35.2543 134.061 34.4284 134.061 33.4136C134.061 32.3989 134.887 31.573 135.902 31.573Z" fill="#00897D"/>
<path d="M119.265 31.8806C120.279 31.8806 121.105 32.7065 121.105 33.7213C121.105 34.736 120.279 35.5619 119.265 35.5619C118.25 35.5619 117.424 34.736 117.424 33.7213C117.4 32.7065 118.226 31.8806 119.265 31.8806Z" fill="#00897D"/>
<path d="M102.133 34.4754C103.077 34.4754 103.832 35.2305 103.832 36.1745C103.832 37.1184 103.077 37.8735 102.133 37.8735C101.189 37.8735 100.434 37.1184 100.434 36.1745C100.434 35.2305 101.189 34.4754 102.133 34.4754Z" fill="#008880"/>
<path d="M152.774 34.2637C153.718 34.2637 154.473 35.0189 154.473 35.9628C154.473 36.9067 153.718 37.6619 152.774 37.6619C151.83 37.6619 151.075 36.9067 151.075 35.9628C151.075 35.0189 151.854 34.2637 152.774 34.2637Z" fill="#008880"/>
<path d="M136.326 17.9807C137.435 17.9807 138.332 18.8774 138.332 19.9629C138.332 21.0484 137.435 21.9451 136.326 21.9451C135.217 21.9451 134.32 21.0484 134.32 19.9629C134.32 18.8774 135.193 17.9807 136.326 17.9807Z" fill="#008880"/>
<path d="M118.793 18.1928C119.902 18.1928 120.799 19.0895 120.799 20.175C120.799 21.2606 119.902 22.1573 118.793 22.1573C117.684 22.1573 116.787 21.2606 116.787 20.175C116.787 19.0895 117.684 18.1928 118.793 18.1928Z" fill="#008880"/>
<path d="M110.085 25.626C111.194 25.626 112.091 26.5227 112.091 27.6082C112.091 28.6937 111.194 29.5905 110.085 29.5905C108.976 29.5905 108.079 28.6937 108.079 27.6082C108.079 26.5227 108.976 25.626 110.085 25.626Z" fill="#008880"/>
<path d="M145.034 25.2961C146.214 25.2961 147.181 26.24 147.181 27.4199C147.181 28.5998 146.237 29.5437 145.034 29.5437C143.83 29.5437 142.886 28.5998 142.886 27.4199C142.886 26.24 143.854 25.2961 145.034 25.2961Z" fill="#008880"/>
<path d="M145.671 12.1286C146.969 12.1286 148.031 13.1669 148.031 14.4648C148.031 15.7627 146.992 16.801 145.671 16.801C144.349 16.801 143.311 15.7627 143.311 14.4648C143.311 13.1669 144.349 12.1286 145.671 12.1286Z" fill="#00998B"/>
<path d="M155.606 7.59778C157.21 7.59778 158.532 8.89567 158.532 10.5239C158.532 12.1522 157.234 13.4501 155.606 13.4501C153.977 13.4501 152.679 12.1522 152.679 10.5239C152.679 8.89567 153.977 7.59778 155.606 7.59778Z" fill="#009B8B"/>
<path d="M165.918 4.41217C167.783 4.41217 169.317 5.92245 169.317 7.8103C169.317 9.69814 167.806 11.2084 165.918 11.2084C164.031 11.2084 162.52 9.69814 162.52 7.8103C162.52 5.92245 164.031 4.41217 165.918 4.41217Z" fill="#00A08B"/>
<path d="M176.443 2.2168C178.425 2.2168 179.983 3.79787 179.983 5.75651C179.983 7.71515 178.401 9.29622 176.443 9.29622C174.484 9.29622 172.88 7.71515 172.88 5.75651C172.88 3.79787 174.461 2.2168 176.443 2.2168Z" fill="#00B4A6"/>
<path d="M187.156 0.777771C189.351 0.777771 191.121 2.54763 191.121 4.74225C191.121 6.93687 189.351 8.70673 187.156 8.70673C184.962 8.70673 183.192 6.93687 183.192 4.74225C183.192 2.54763 184.962 0.777771 187.156 0.777771Z" fill="#00B6A7"/>
<path d="M154.945 20.4109C156.243 20.4109 157.305 21.4493 157.305 22.7472C157.305 24.0451 156.267 25.0834 154.945 25.0834C153.624 25.0834 152.585 24.0451 152.585 22.7472C152.562 21.4729 153.624 20.4109 154.945 20.4109Z" fill="#00998B"/>
<path d="M165.257 16.636C166.862 16.636 168.184 17.9339 168.184 19.5622C168.184 21.1905 166.886 22.4884 165.257 22.4884C163.629 22.4884 162.331 21.1905 162.331 19.5622C162.331 17.9339 163.629 16.636 165.257 16.636Z" fill="#009B8B"/>
<path d="M176.136 14.2041C178 14.2041 179.534 15.7144 179.534 17.6022C179.534 19.4901 178.024 21.0004 176.136 21.0004C174.248 21.0004 172.738 19.4901 172.738 17.6022C172.738 15.7144 174.248 14.2041 176.136 14.2041Z" fill="#00A08B"/>
<path d="M187.581 13.8275C189.563 13.8275 191.121 15.4086 191.121 17.3672C191.121 19.3259 189.54 20.9305 187.581 20.9305C185.623 20.9305 184.018 19.3495 184.018 17.3672C184.018 15.385 185.599 13.8275 187.581 13.8275Z" fill="#00B4A6"/>
<path d="M163.865 29.1431C165.163 29.1431 166.225 30.1814 166.225 31.4793C166.225 32.7772 165.186 33.8155 163.865 33.8155C162.543 33.8155 161.505 32.7772 161.505 31.4793C161.505 30.1814 162.543 29.1431 163.865 29.1431Z" fill="#00998B"/>
<path d="M176.136 26.2158C177.741 26.2158 179.062 27.5137 179.062 29.142C179.062 30.7703 177.764 32.0681 176.136 32.0681C174.508 32.0681 173.21 30.7703 173.21 29.142C173.21 27.5137 174.508 26.2158 176.136 26.2158Z" fill="#009B8B"/>
<path d="M187.888 25.9092C189.634 25.9092 191.073 27.3251 191.073 29.095C191.073 30.8648 189.658 32.2807 187.888 32.2807C186.118 32.2807 184.702 30.8648 184.702 29.095C184.678 27.3487 186.118 25.9092 187.888 25.9092Z" fill="#00A08B"/>
<path d="M109.401 12.4352C110.699 12.4352 111.761 13.4735 111.761 14.7714C111.761 16.0693 110.722 17.1076 109.401 17.1076C108.079 17.1076 107.041 16.0693 107.041 14.7714C107.041 13.4735 108.079 12.4352 109.401 12.4352Z" fill="#00998B"/>
<path d="M99.6077 8.02161C101.212 8.02161 102.534 9.3195 102.534 10.9478C102.534 12.576 101.236 13.8739 99.6077 13.8739C97.9795 13.8739 96.6816 12.576 96.6816 10.9478C96.658 9.3431 97.9795 8.02161 99.6077 8.02161Z" fill="#009D8A"/>
<path d="M89.2247 4.81366C91.0889 4.81366 92.6228 6.32394 92.6228 8.21178C92.6228 10.0996 91.1125 11.6099 89.2247 11.6099C87.3368 11.6099 85.8265 10.0996 85.8265 8.21178C85.8265 6.32394 87.3368 4.81366 89.2247 4.81366Z" fill="#00A08B"/>
<path d="M78.6998 2.73657C80.682 2.73657 82.2395 4.31764 82.2395 6.29988C82.2395 8.28212 80.6584 9.8396 78.6998 9.8396C76.7411 9.8396 75.1365 8.25852 75.1365 6.29988C75.1365 4.34124 76.7175 2.73657 78.6998 2.73657Z" fill="#00B4A6"/>
<path d="M68.0094 0.777771C70.204 0.777771 71.9739 2.54763 71.9739 4.74225C71.9739 6.93687 70.204 8.70673 68.0094 8.70673C65.8148 8.70673 64.0449 6.93687 64.0449 4.74225C64.0449 2.54763 65.8148 0.777771 68.0094 0.777771Z" fill="#00B6A7"/>
<path d="M100.174 20.7186C101.472 20.7186 102.533 21.7569 102.533 23.0548C102.533 24.3527 101.495 25.3911 100.174 25.3911C98.8522 25.3911 97.8138 24.3527 97.8138 23.0548C97.8138 21.7569 98.8522 20.7186 100.174 20.7186Z" fill="#00998B"/>
<path d="M89.7435 16.9654C91.3482 16.9654 92.6697 18.2633 92.6697 19.8916C92.6697 21.5198 91.3718 22.8177 89.7435 22.8177C88.1153 22.8177 86.8174 21.5198 86.8174 19.8916C86.8174 18.2633 88.1153 16.9654 89.7435 16.9654Z" fill="#009D8A"/>
<path d="M78.6994 14.5112C80.5636 14.5112 82.0975 16.0214 82.0975 17.9093C82.0975 19.7971 80.5872 21.3074 78.6994 21.3074C76.8115 21.3074 75.3013 19.7971 75.3013 17.9093C75.3013 16.0214 76.8115 14.5112 78.6994 14.5112Z" fill="#00A08B"/>
<path d="M67.5846 14.1346C69.5669 14.1346 71.1479 15.7157 71.1479 17.6743C71.1479 19.6329 69.5669 21.2376 67.5846 21.2376C65.6024 21.2376 64.0449 19.6565 64.0449 17.6743C64.0449 15.6921 65.6024 14.1346 67.5846 14.1346Z" fill="#00B4A6"/>
<path d="M91.3008 29.4497C92.5987 29.4497 93.6607 30.488 93.6607 31.7859C93.6607 33.0838 92.6223 34.1221 91.3008 34.1221C89.9794 34.1221 88.941 33.0838 88.941 31.7859C88.941 30.488 89.9794 29.4497 91.3008 29.4497Z" fill="#00998B"/>
<path d="M79.3135 26.5463C80.9182 26.5463 82.2397 27.8442 82.2397 29.4724C82.2397 31.1007 80.9418 32.3986 79.3135 32.3986C77.6852 32.3986 76.3873 31.1007 76.3873 29.4724C76.3873 27.8442 77.6852 26.5463 79.3135 26.5463Z" fill="#009D8A"/>
<path d="M67.066 26.2407C68.8123 26.2407 70.2517 27.6566 70.2517 29.4265C70.2517 31.1963 68.8358 32.6122 67.066 32.6122C65.2961 32.6122 63.8802 31.1963 63.8802 29.4265C63.8802 27.6566 65.2961 26.2407 67.066 26.2407Z" fill="#00A08B"/>
<path d="M16.9672 75.0647C17.4864 75.0647 17.9112 75.4895 17.9112 76.0086C17.9112 76.5278 17.4864 76.9525 16.9672 76.9525C16.4481 76.9525 16.0233 76.5278 16.0233 76.0086C16.0233 75.4895 16.4481 75.0647 16.9672 75.0647Z" fill="#019A8B"/>
<path d="M64.3753 60.1511C64.8945 60.1511 65.3192 60.5758 65.3192 61.095C65.3192 61.6141 64.8945 62.0389 64.3753 62.0389C63.8562 62.0389 63.4314 61.6141 63.4314 61.095C63.4314 60.5758 63.8562 60.1511 64.3753 60.1511Z" fill="#019A8B"/>
<path d="M20.1766 75.0647C19.6338 75.0647 19.209 75.4895 19.2326 76.0086C19.2326 76.5278 19.6574 76.9525 20.1766 76.9525C20.6957 76.9525 21.1205 76.5278 21.1205 76.0086C21.1205 75.4895 20.6957 75.0647 20.1766 75.0647Z" fill="#019A8B"/>
<path d="M93.5191 60.1511C94.0383 60.1511 94.463 60.5758 94.463 61.095C94.463 61.6141 94.0383 62.0389 93.5191 62.0389C93 62.0389 92.5752 61.6141 92.5752 61.095C92.5752 60.5758 93 60.1511 93.5191 60.1511Z" fill="#019A8B"/>
<path d="M67.5616 62.0617C68.0808 62.0617 68.5056 61.637 68.5056 61.1178C68.5056 60.5987 68.0808 60.1739 67.5616 60.1739C67.0425 60.1739 66.5941 60.5987 66.6177 61.1178C66.6177 61.637 67.0425 62.0617 67.5616 62.0617Z" fill="#019A8B"/>
<path d="M90.3335 62.0617C90.8526 62.0617 91.2774 61.637 91.2774 61.1178C91.2774 60.5987 90.8526 60.1739 90.3335 60.1739C89.8143 60.1739 89.366 60.5987 89.3896 61.1178C89.3896 61.637 89.8143 62.0617 90.3335 62.0617Z" fill="#019A8B"/>
<path d="M113.153 64.5869H111.619C111.619 64.5869 111.454 64.6577 111.43 64.7521V73.1058C111.43 75.8904 110.132 76.0084 109.613 76.1972C108.929 76.4332 109.094 77.2119 109.896 77.0939C111.076 76.9287 113.341 76.0792 113.341 72.3035V64.7521C113.341 64.7521 113.271 64.5869 113.176 64.5869" fill="#019A8B"/>
<path d="M112.398 60.1511C112.917 60.1511 113.341 60.5758 113.341 61.095C113.341 61.6141 112.917 62.0389 112.398 62.0389C111.878 62.0389 111.454 61.6141 111.454 61.095C111.454 60.5758 111.878 60.1511 112.398 60.1511Z" fill="#019A8B"/>
<path d="M125.306 70.9584C125.306 70.9584 125.211 71.1471 125.117 71.1471H118.108C118.108 71.1471 117.92 71.0527 117.92 70.9584V68.5277C117.92 67.4422 118.675 66.1443 120.822 66.1443H125.117C125.117 66.1443 125.306 66.2387 125.306 66.3331V70.982V70.9584ZM127.005 64.5397H121.53C118.156 64.5397 116.008 65.696 116.032 68.9761V72.4922C116.032 72.4922 116.102 72.6574 116.197 72.6574H125.141C125.141 72.6574 125.329 72.7754 125.329 72.8698V74.9936C125.306 75.5128 124.574 75.9375 124.149 76.2915C123.772 76.6219 123.772 76.8579 124.574 76.7871C125.589 76.6927 127.217 75.442 127.194 74.2857V64.7049C127.194 64.7049 127.123 64.5397 127.028 64.5397" fill="#019A8B"/>
<path d="M107.843 60.1266H106.309C106.309 60.1266 106.144 60.221 106.144 60.3154V72.5392C106.144 72.5392 106.215 72.7044 106.309 72.7044H107.843C107.843 72.7044 108.008 72.6336 108.008 72.5392V60.2918C108.008 60.2918 107.938 60.1266 107.843 60.1266Z" fill="#019A8B"/>
<path d="M78.7467 60.1266H77.2128C77.2128 60.1266 77.0476 60.221 77.0476 60.3154V72.5392C77.0476 72.5392 77.1184 72.7044 77.2128 72.7044H78.7467C78.7467 72.7044 78.9118 72.6336 78.9118 72.5392V60.2918C78.9118 60.2918 78.8411 60.1266 78.7467 60.1266Z" fill="#019A8B"/>
<path d="M102.77 64.5869H101.236C101.236 64.5869 101.071 64.6577 101.047 64.7521V73.1058C101.047 75.8904 99.7491 76.0084 99.2299 76.1972C98.5456 76.4332 98.7107 77.2119 99.5131 77.0939C100.693 76.9287 102.958 76.0792 102.958 72.3035V64.7521C102.958 64.7521 102.888 64.5869 102.793 64.5869" fill="#019A8B"/>
<path d="M95.2184 70.9584C95.2184 70.9584 95.124 71.1472 95.0296 71.1472H88.021C88.021 71.1472 87.8322 71.0528 87.8322 70.9584V68.5278C87.8322 67.4423 88.5874 66.1444 90.7348 66.1444H95.0296C95.0296 66.1444 95.2184 66.2388 95.2184 66.3332V70.982V70.9584ZM96.9411 64.5869H91.4663C88.0918 64.5869 85.9444 65.7432 85.968 69.0234V72.5395C85.968 72.5395 86.0388 72.7047 86.1332 72.7047H96.9647C96.9647 72.7047 97.1299 72.6339 97.1299 72.5395V64.7757C97.1299 64.7757 97.0591 64.6105 96.9647 64.6105" fill="#019A8B"/>
<path d="M11.988 70.6278C11.988 70.6278 11.9172 70.8166 11.7992 70.8166H3.4927C3.4927 70.8166 3.30391 70.7222 3.30391 70.6278V66.3094C3.30391 66.3094 3.3983 66.1206 3.4927 66.1206H9.06185C11.2093 66.1206 11.9644 67.4185 11.9644 68.504V70.6042L11.988 70.6278ZM73.7206 60.1031H72.2103C72.2103 60.1031 72.0452 60.1739 72.0452 60.2683V70.6514C72.0452 70.6514 71.9744 70.8166 71.88 70.8166H67.1132C67.1132 70.8166 66.948 70.7458 66.948 70.6514V64.7047C66.948 64.7047 66.8772 64.5395 66.7828 64.5395H65.2489C65.2489 64.5395 65.0837 64.6103 65.0837 64.7047V70.6514C65.0837 70.6514 65.0129 70.8166 64.9185 70.8166H45.4029C45.4029 70.8166 45.2141 70.7222 45.2141 70.6278V68.5276C45.2141 67.4421 45.9693 66.1206 48.1167 66.1206H56.022C56.022 66.1206 56.1872 66.0498 56.1872 65.9554V64.7519C56.1872 64.7519 56.1164 64.5867 56.022 64.5867H48.8246C45.4501 64.5867 43.3027 65.743 43.3263 69.0231V70.6514C43.3263 70.6514 43.2555 70.8166 43.1611 70.8166H27.3032C27.3032 70.8166 27.138 70.7458 27.138 70.6514V60.2447C27.138 60.2447 27.0672 60.0795 26.9728 60.0795H25.4389C25.4389 60.0795 25.2737 60.1503 25.2737 60.2447V70.675C25.2737 70.675 25.2029 70.8402 25.1085 70.8402H19.7754C19.7754 70.8402 19.6102 70.7694 19.6102 70.675V64.8463C19.6102 64.8463 19.5394 64.6811 19.445 64.6811H17.9111C17.9111 64.6811 17.7459 64.7519 17.7459 64.8463V70.675C17.7459 70.675 17.6751 70.8402 17.5808 70.8402H14.1118C14.1118 70.8402 13.9467 70.7694 13.9467 70.675V69.0467C13.9702 65.7666 11.7992 64.6103 8.4483 64.6103H1.58125C1.58125 64.6103 1.41606 64.6811 1.41606 64.7755V75.0171H1.43966C1.41606 75.5362 0.684523 75.961 0.259758 76.3149C-0.117812 76.6453 -0.117812 76.8813 0.684523 76.8105C1.69924 76.7161 3.32751 75.4654 3.30391 74.3091V72.7044H73.7442C73.7442 72.7044 73.9094 72.6337 73.9094 72.5393V60.3154C73.9094 60.3154 73.8386 60.1503 73.7442 60.1503" fill="#019A8B"/>
</svg>
