<svg width="1928" height="549" viewBox="0 0 1928 549" fill="none" xmlns="http://www.w3.org/2000/svg">
<g filter="url(#filter0_d_4057_2)">
<mask id="mask0_4057_2" style="mask-type:alpha" maskUnits="userSpaceOnUse" x="4" y="0" width="1920" height="541">
<rect x="4" y="0.777832" width="1920" height="540" fill="#ECEBE7"/>
</mask>
<g mask="url(#mask0_4057_2)">
<mask id="mask1_4057_2" style="mask-type:luminance" maskUnits="userSpaceOnUse" x="4" y="0" width="1920" height="1081">
<path d="M1924 0.777832H4V1080.78H1924V0.777832Z" fill="white"/>
</mask>
<g mask="url(#mask1_4057_2)">
<path d="M1527.17 3.00781L1690.35 12.1078L1647.41 132.688L1527.17 3.00781Z" stroke="#A37B2C" stroke-opacity="0.05" stroke-miterlimit="10"/>
<path d="M1527.17 3.00783L1651.95 0.777832H1905.96L1690.35 12.1078L1527.17 3.00783Z" stroke="#A37B2C" stroke-opacity="0.05" stroke-miterlimit="10"/>
<path d="M1489.67 0.777832H1651.95L1527.17 3.00783L1489.67 0.777832Z" stroke="#A37B2C" stroke-opacity="0.05" stroke-miterlimit="10"/>
<path d="M1341.09 55.3378L1248.08 0.777832H1489.67L1527.17 3.00783L1341.09 55.3378Z" stroke="#A37B2C" stroke-opacity="0.05" stroke-miterlimit="10"/>
<path d="M1341.09 55.3378L1527.17 3.00781L1363.99 100.838L1341.09 55.3378Z" stroke="#A37B2C" stroke-opacity="0.05" stroke-miterlimit="10"/>
<path d="M1286.7 137.238L1363.99 100.838L1421.25 219.148L1286.7 137.238Z" stroke="#A37B2C" stroke-opacity="0.05" stroke-miterlimit="10"/>
<path d="M1286.7 137.238L1341.09 55.3379L1363.99 100.838L1286.7 137.238Z" stroke="#A37B2C" stroke-opacity="0.05" stroke-miterlimit="10"/>
<path d="M1269.52 187.298L1286.7 137.238L1421.25 219.148L1269.52 187.298Z" stroke="#A37B2C" stroke-opacity="0.05" stroke-miterlimit="10"/>
<path d="M1272.38 289.678L1269.52 187.298L1421.25 219.148L1272.38 289.678Z" stroke="#A37B2C" stroke-opacity="0.05" stroke-miterlimit="10"/>
<path d="M1143.56 68.9879L1341.09 55.3379L1286.7 137.238L1143.56 68.9879Z" stroke="#A37B2C" stroke-opacity="0.05" stroke-miterlimit="10"/>
<path d="M1143.56 68.9878L1206.19 0.777832H1248.08L1341.09 55.3378L1143.56 68.9878Z" stroke="#A37B2C" stroke-opacity="0.05" stroke-miterlimit="10"/>
<path d="M981.71 0.777832H1206.19L1143.56 68.9878L981.71 0.777832Z" stroke="#A37B2C" stroke-opacity="0.05" stroke-miterlimit="10"/>
<path d="M1269.52 187.298L1109.2 153.168L1286.7 137.238L1269.52 187.298Z" stroke="#A37B2C" stroke-opacity="0.05" stroke-miterlimit="10"/>
<path d="M1109.2 153.168L1143.56 68.9878L1286.7 137.238L1109.2 153.168Z" stroke="#A37B2C" stroke-opacity="0.05" stroke-miterlimit="10"/>
<path d="M1109.2 153.168L965.39 0.777832H981.71L1143.56 68.9878L1109.2 153.168Z" stroke="#A37B2C" stroke-opacity="0.05" stroke-miterlimit="10"/>
<path d="M964 0.777832H965.39L1109.2 153.168L964 258.078" stroke="#A37B2C" stroke-opacity="0.05" stroke-miterlimit="10"/>
<path d="M1272.38 289.678L1126.38 232.798L1269.52 187.298L1272.38 289.678Z" stroke="#A37B2C" stroke-opacity="0.05" stroke-miterlimit="10"/>
<path d="M1126.38 232.798L1109.2 153.168L1269.52 187.298L1126.38 232.798Z" stroke="#A37B2C" stroke-opacity="0.05" stroke-miterlimit="10"/>
<path d="M1126.38 232.798L964 264.538V258.078L1109.2 153.168L1126.38 232.798Z" stroke="#A37B2C" stroke-opacity="0.05" stroke-miterlimit="10"/>
<path d="M1206.54 316.978L1272.38 289.678L1286.7 362.488L1206.54 316.978Z" stroke="#A37B2C" stroke-opacity="0.05" stroke-miterlimit="10"/>
<path d="M1206.54 316.978L1126.38 232.798L1272.38 289.678L1206.54 316.978Z" stroke="#A37B2C" stroke-opacity="0.05" stroke-miterlimit="10"/>
<path d="M1392.62 360.208L1272.38 289.678L1421.25 219.148L1392.62 360.208Z" stroke="#A37B2C" stroke-opacity="0.05" stroke-miterlimit="10"/>
<path d="M1286.7 362.488L1392.62 360.208L1318.19 469.418L1286.7 362.488Z" stroke="#A37B2C" stroke-opacity="0.05" stroke-miterlimit="10"/>
<path d="M1286.7 362.488L1272.38 289.678L1392.62 360.208L1286.7 362.488Z" stroke="#A37B2C" stroke-opacity="0.05" stroke-miterlimit="10"/>
<path d="M1392.62 360.208L1575.84 428.468L1384.03 471.698L1392.62 360.208Z" stroke="#A37B2C" stroke-opacity="0.05" stroke-miterlimit="10"/>
<path d="M1318.19 469.418L1392.62 360.208L1384.03 471.698L1318.19 469.418Z" stroke="#A37B2C" stroke-opacity="0.05" stroke-miterlimit="10"/>
<path d="M1063.4 405.718L1126.38 232.798L1206.54 316.978L1063.4 405.718Z" stroke="#A37B2C" stroke-opacity="0.05" stroke-miterlimit="10"/>
<path d="M1172.18 626.408L964 571.258V545.928L1063.4 405.718L1172.18 626.408Z" stroke="#A37B2C" stroke-opacity="0.05" stroke-miterlimit="10"/>
<path d="M1063.4 405.718L964 282.158V264.538L1126.38 232.798L1063.4 405.718Z" stroke="#A37B2C" stroke-opacity="0.05" stroke-miterlimit="10"/>
<path d="M964 282.158L1063.4 405.718L964 545.928" stroke="#A37B2C" stroke-opacity="0.05" stroke-miterlimit="10"/>
<path d="M1318.19 469.418L1177.91 421.638L1286.7 362.488L1318.19 469.418Z" stroke="#A37B2C" stroke-opacity="0.05" stroke-miterlimit="10"/>
<path d="M1177.91 421.638L1206.54 316.978L1286.7 362.488L1177.91 421.638Z" stroke="#A37B2C" stroke-opacity="0.05" stroke-miterlimit="10"/>
<path d="M1177.91 421.638L1063.4 405.718L1206.54 316.978L1177.91 421.638Z" stroke="#A37B2C" stroke-opacity="0.05" stroke-miterlimit="10"/>
<path d="M1172.18 626.408L1063.4 405.718L1177.91 421.638L1172.18 626.408Z" stroke="#A37B2C" stroke-opacity="0.05" stroke-miterlimit="10"/>
<path d="M1260.93 510.378L1177.91 421.638L1318.19 469.418L1260.93 510.378Z" stroke="#A37B2C" stroke-opacity="0.05" stroke-miterlimit="10"/>
<path d="M1260.93 510.378L1172.18 626.408L1177.91 421.638L1260.93 510.378Z" stroke="#A37B2C" stroke-opacity="0.05" stroke-miterlimit="10"/>
<path d="M1412.66 576.348L1312.46 569.528L1384.03 471.698L1412.66 576.348Z" stroke="#A37B2C" stroke-opacity="0.05" stroke-miterlimit="10"/>
<path d="M1384.03 471.698L1312.46 569.528L1318.19 469.418L1384.03 471.698Z" stroke="#A37B2C" stroke-opacity="0.05" stroke-miterlimit="10"/>
<path d="M1312.46 569.528L1260.93 510.378L1318.19 469.418L1312.46 569.528Z" stroke="#A37B2C" stroke-opacity="0.05" stroke-miterlimit="10"/>
<path d="M1312.46 569.528L1172.18 626.408L1260.93 510.378L1312.46 569.528Z" stroke="#A37B2C" stroke-opacity="0.05" stroke-miterlimit="10"/>
<path d="M1575.84 428.468L1635.96 551.328L1515.72 510.378L1575.84 428.468Z" stroke="#A37B2C" stroke-opacity="0.05" stroke-miterlimit="10"/>
<path d="M1515.72 510.378L1635.96 551.328L1515.72 583.178V510.378Z" stroke="#A37B2C" stroke-opacity="0.05" stroke-miterlimit="10"/>
<path d="M1384.03 471.698L1575.84 428.468L1515.72 510.378L1384.03 471.698Z" stroke="#A37B2C" stroke-opacity="0.05" stroke-miterlimit="10"/>
<path d="M1515.72 583.178L1412.66 576.348L1515.72 510.378V583.178Z" stroke="#A37B2C" stroke-opacity="0.05" stroke-miterlimit="10"/>
<path d="M1412.66 576.348L1384.03 471.698L1515.72 510.378L1412.66 576.348Z" stroke="#A37B2C" stroke-opacity="0.05" stroke-miterlimit="10"/>
<path d="M1527.17 253.278L1575.84 428.468L1392.62 360.208L1527.17 253.278Z" stroke="#A37B2C" stroke-opacity="0.05" stroke-miterlimit="10"/>
<path d="M1421.25 219.148L1527.17 253.278L1392.62 360.208L1421.25 219.148Z" stroke="#A37B2C" stroke-opacity="0.05" stroke-miterlimit="10"/>
<path d="M1624.51 237.348L1575.84 428.468L1527.17 253.278L1624.51 237.348Z" stroke="#A37B2C" stroke-opacity="0.05" stroke-miterlimit="10"/>
<path d="M1555.8 134.968L1647.41 132.688L1624.51 237.348L1555.8 134.968Z" stroke="#A37B2C" stroke-opacity="0.05" stroke-miterlimit="10"/>
<path d="M1555.8 134.968L1527.17 3.00781L1647.41 132.688L1555.8 134.968Z" stroke="#A37B2C" stroke-opacity="0.05" stroke-miterlimit="10"/>
<path d="M1527.17 253.278L1555.8 134.968L1624.51 237.348L1527.17 253.278Z" stroke="#A37B2C" stroke-opacity="0.05" stroke-miterlimit="10"/>
<path d="M1421.25 219.148L1555.8 134.968L1527.17 253.278L1421.25 219.148Z" stroke="#A37B2C" stroke-opacity="0.05" stroke-miterlimit="10"/>
<path d="M1363.99 100.838L1527.17 3.00781L1555.8 134.968L1363.99 100.838Z" stroke="#A37B2C" stroke-opacity="0.05" stroke-miterlimit="10"/>
<path d="M1363.99 100.838L1555.8 134.968L1421.25 219.148L1363.99 100.838Z" stroke="#A37B2C" stroke-opacity="0.05" stroke-miterlimit="10"/>
<path d="M1647.41 132.688L1696.08 269.208L1624.51 237.348L1647.41 132.688Z" stroke="#A37B2C" stroke-opacity="0.05" stroke-miterlimit="10"/>
<path d="M1624.51 237.348L1696.08 269.208L1575.84 428.468L1624.51 237.348Z" stroke="#A37B2C" stroke-opacity="0.05" stroke-miterlimit="10"/>
<path d="M1696.08 269.208L1896.47 362.488L1575.84 428.468L1696.08 269.208Z" stroke="#A37B2C" stroke-opacity="0.05" stroke-miterlimit="10"/>
<path d="M1575.84 428.468L1896.47 362.488L1635.96 551.328L1575.84 428.468Z" stroke="#A37B2C" stroke-opacity="0.05" stroke-miterlimit="10"/>
<path d="M2025.3 228.248L2091.15 423.918L1896.47 362.488L2025.3 228.248Z" stroke="#A37B2C" stroke-opacity="0.05" stroke-miterlimit="10"/>
<path d="M1635.96 551.328L1896.47 362.488L1839.22 571.798L1635.96 551.328Z" stroke="#A37B2C" stroke-opacity="0.05" stroke-miterlimit="10"/>
<path d="M2091.15 423.918L1965.18 630.958L1839.22 571.798L2091.15 423.918Z" stroke="#A37B2C" stroke-opacity="0.05" stroke-miterlimit="10"/>
<path d="M1896.47 362.488L2091.15 423.918L1839.22 571.798L1896.47 362.488Z" stroke="#A37B2C" stroke-opacity="0.05" stroke-miterlimit="10"/>
<path d="M1807.73 155.448L2027.01 0.777832H2038.08L2065.38 141.788L1807.73 155.448Z" stroke="#A37B2C" stroke-opacity="0.05" stroke-miterlimit="10"/>
<path d="M1807.73 155.448L2065.38 141.788L2025.3 228.248L1807.73 155.448Z" stroke="#A37B2C" stroke-opacity="0.05" stroke-miterlimit="10"/>
<path d="M1690.35 12.1078L1905.96 0.777832H2027.01L1807.73 155.448L1690.35 12.1078Z" stroke="#A37B2C" stroke-opacity="0.05" stroke-miterlimit="10"/>
<path d="M1896.47 362.488L1807.73 155.448L2025.3 228.248L1896.47 362.488Z" stroke="#A37B2C" stroke-opacity="0.05" stroke-miterlimit="10"/>
<path d="M1696.08 269.208L1807.73 155.448L1896.47 362.488L1696.08 269.208Z" stroke="#A37B2C" stroke-opacity="0.05" stroke-miterlimit="10"/>
<path d="M1647.41 132.688L1807.73 155.448L1696.08 269.208L1647.41 132.688Z" stroke="#A37B2C" stroke-opacity="0.05" stroke-miterlimit="10"/>
<path d="M1690.35 12.1079L1807.73 155.448L1647.41 132.688L1690.35 12.1079Z" stroke="#A37B2C" stroke-opacity="0.05" stroke-miterlimit="10"/>
<path d="M400.84 3.00781L237.66 12.1078L280.6 132.688L400.84 3.00781Z" stroke="#A37B2C" stroke-opacity="0.05" stroke-miterlimit="10"/>
<path d="M400.84 3.00783L276.05 0.777832H22.05L237.66 12.1078L400.84 3.00783Z" stroke="#A37B2C" stroke-opacity="0.05" stroke-miterlimit="10"/>
<path d="M438.34 0.777832H276.05L400.84 3.00783L438.34 0.777832Z" stroke="#A37B2C" stroke-opacity="0.05" stroke-miterlimit="10"/>
<path d="M586.92 55.3378L679.93 0.777832H438.34L400.84 3.00783L586.92 55.3378Z" stroke="#A37B2C" stroke-opacity="0.05" stroke-miterlimit="10"/>
<path d="M586.92 55.3378L400.84 3.00781L564.02 100.838L586.92 55.3378Z" stroke="#A37B2C" stroke-opacity="0.05" stroke-miterlimit="10"/>
<path d="M641.31 137.238L564.02 100.838L506.76 219.148L641.31 137.238Z" stroke="#A37B2C" stroke-opacity="0.05" stroke-miterlimit="10"/>
<path d="M641.31 137.238L586.92 55.3379L564.02 100.838L641.31 137.238Z" stroke="#A37B2C" stroke-opacity="0.05" stroke-miterlimit="10"/>
<path d="M658.49 187.298L641.31 137.238L506.76 219.148L658.49 187.298Z" stroke="#A37B2C" stroke-opacity="0.05" stroke-miterlimit="10"/>
<path d="M655.63 289.678L658.49 187.298L506.76 219.148L655.63 289.678Z" stroke="#A37B2C" stroke-opacity="0.05" stroke-miterlimit="10"/>
<path d="M784.45 68.9879L586.92 55.3379L641.31 137.238L784.45 68.9879Z" stroke="#A37B2C" stroke-opacity="0.05" stroke-miterlimit="10"/>
<path d="M784.45 68.9878L721.82 0.777832H679.93L586.92 55.3378L784.45 68.9878Z" stroke="#A37B2C" stroke-opacity="0.05" stroke-miterlimit="10"/>
<path d="M946.3 0.777832H721.82L784.45 68.9878L946.3 0.777832Z" stroke="#A37B2C" stroke-opacity="0.05" stroke-miterlimit="10"/>
<path d="M658.49 187.298L818.81 153.168L641.31 137.238L658.49 187.298Z" stroke="#A37B2C" stroke-opacity="0.05" stroke-miterlimit="10"/>
<path d="M818.81 153.168L784.45 68.9878L641.31 137.238L818.81 153.168Z" stroke="#A37B2C" stroke-opacity="0.05" stroke-miterlimit="10"/>
<path d="M818.81 153.168L962.62 0.777832H946.3L784.45 68.9878L818.81 153.168Z" stroke="#A37B2C" stroke-opacity="0.05" stroke-miterlimit="10"/>
<path d="M964 0.777832H962.62L818.81 153.168L964 258.078" stroke="#A37B2C" stroke-opacity="0.05" stroke-miterlimit="10"/>
<path d="M655.63 289.678L801.63 232.798L658.49 187.298L655.63 289.678Z" stroke="#A37B2C" stroke-opacity="0.05" stroke-miterlimit="10"/>
<path d="M801.63 232.798L818.81 153.168L658.49 187.298L801.63 232.798Z" stroke="#A37B2C" stroke-opacity="0.05" stroke-miterlimit="10"/>
<path d="M801.63 232.798L964 264.538V258.078L818.81 153.168L801.63 232.798Z" stroke="#A37B2C" stroke-opacity="0.05" stroke-miterlimit="10"/>
<path d="M721.47 316.978L655.63 289.678L641.31 362.488L721.47 316.978Z" stroke="#A37B2C" stroke-opacity="0.05" stroke-miterlimit="10"/>
<path d="M721.47 316.978L801.63 232.798L655.63 289.678L721.47 316.978Z" stroke="#A37B2C" stroke-opacity="0.05" stroke-miterlimit="10"/>
<path d="M535.39 360.208L655.63 289.678L506.76 219.148L535.39 360.208Z" stroke="#A37B2C" stroke-opacity="0.05" stroke-miterlimit="10"/>
<path d="M641.31 362.488L535.39 360.208L609.82 469.418L641.31 362.488Z" stroke="#A37B2C" stroke-opacity="0.05" stroke-miterlimit="10"/>
<path d="M641.31 362.488L655.63 289.678L535.39 360.208L641.31 362.488Z" stroke="#A37B2C" stroke-opacity="0.05" stroke-miterlimit="10"/>
<path d="M535.39 360.208L352.17 428.468L543.98 471.698L535.39 360.208Z" stroke="#A37B2C" stroke-opacity="0.05" stroke-miterlimit="10"/>
<path d="M609.82 469.418L535.39 360.208L543.98 471.698L609.82 469.418Z" stroke="#A37B2C" stroke-opacity="0.05" stroke-miterlimit="10"/>
<path d="M864.61 405.718L801.63 232.798L721.47 316.978L864.61 405.718Z" stroke="#A37B2C" stroke-opacity="0.05" stroke-miterlimit="10"/>
<path d="M755.82 626.408L964 571.258V545.928L864.61 405.718L755.82 626.408Z" stroke="#A37B2C" stroke-opacity="0.05" stroke-miterlimit="10"/>
<path d="M864.61 405.718L964 282.158V264.538L801.63 232.798L864.61 405.718Z" stroke="#A37B2C" stroke-opacity="0.05" stroke-miterlimit="10"/>
<path d="M964 282.158L864.61 405.718L964 545.928" stroke="#A37B2C" stroke-opacity="0.05" stroke-miterlimit="10"/>
<path d="M609.82 469.418L750.1 421.638L641.31 362.488L609.82 469.418Z" stroke="#A37B2C" stroke-opacity="0.05" stroke-miterlimit="10"/>
<path d="M750.1 421.638L721.47 316.978L641.31 362.488L750.1 421.638Z" stroke="#A37B2C" stroke-opacity="0.05" stroke-miterlimit="10"/>
<path d="M750.1 421.638L864.61 405.718L721.47 316.978L750.1 421.638Z" stroke="#A37B2C" stroke-opacity="0.05" stroke-miterlimit="10"/>
<path d="M755.82 626.408L864.61 405.718L750.1 421.638L755.82 626.408Z" stroke="#A37B2C" stroke-opacity="0.05" stroke-miterlimit="10"/>
<path d="M667.08 510.378L750.1 421.638L609.82 469.418L667.08 510.378Z" stroke="#A37B2C" stroke-opacity="0.05" stroke-miterlimit="10"/>
<path d="M667.08 510.378L755.82 626.408L750.1 421.638L667.08 510.378Z" stroke="#A37B2C" stroke-opacity="0.05" stroke-miterlimit="10"/>
<path d="M515.35 576.348L615.55 569.528L543.98 471.698L515.35 576.348Z" stroke="#A37B2C" stroke-opacity="0.05" stroke-miterlimit="10"/>
<path d="M543.98 471.698L615.55 569.528L609.82 469.418L543.98 471.698Z" stroke="#A37B2C" stroke-opacity="0.05" stroke-miterlimit="10"/>
<path d="M615.55 569.528L667.08 510.378L609.82 469.418L615.55 569.528Z" stroke="#A37B2C" stroke-opacity="0.05" stroke-miterlimit="10"/>
<path d="M615.55 569.528L755.82 626.408L667.08 510.378L615.55 569.528Z" stroke="#A37B2C" stroke-opacity="0.05" stroke-miterlimit="10"/>
<path d="M352.17 428.468L292.05 551.328L412.29 510.378L352.17 428.468Z" stroke="#A37B2C" stroke-opacity="0.05" stroke-miterlimit="10"/>
<path d="M412.29 510.378L292.05 551.328L412.29 583.178V510.378Z" stroke="#A37B2C" stroke-opacity="0.05" stroke-miterlimit="10"/>
<path d="M543.98 471.698L352.17 428.468L412.29 510.378L543.98 471.698Z" stroke="#A37B2C" stroke-opacity="0.05" stroke-miterlimit="10"/>
<path d="M412.29 583.178L515.35 576.348L412.29 510.378V583.178Z" stroke="#A37B2C" stroke-opacity="0.05" stroke-miterlimit="10"/>
<path d="M515.35 576.348L543.98 471.698L412.29 510.378L515.35 576.348Z" stroke="#A37B2C" stroke-opacity="0.05" stroke-miterlimit="10"/>
<path d="M400.84 253.278L352.17 428.468L535.39 360.208L400.84 253.278Z" stroke="#A37B2C" stroke-opacity="0.05" stroke-miterlimit="10"/>
<path d="M506.76 219.148L400.84 253.278L535.39 360.208L506.76 219.148Z" stroke="#A37B2C" stroke-opacity="0.05" stroke-miterlimit="10"/>
<path d="M303.5 237.348L352.17 428.468L400.84 253.278L303.5 237.348Z" stroke="#A37B2C" stroke-opacity="0.05" stroke-miterlimit="10"/>
<path d="M372.21 134.968L280.6 132.688L303.5 237.348L372.21 134.968Z" stroke="#A37B2C" stroke-opacity="0.05" stroke-miterlimit="10"/>
<path d="M372.21 134.968L400.84 3.00781L280.6 132.688L372.21 134.968Z" stroke="#A37B2C" stroke-opacity="0.05" stroke-miterlimit="10"/>
<path d="M400.84 253.278L372.21 134.968L303.5 237.348L400.84 253.278Z" stroke="#A37B2C" stroke-opacity="0.05" stroke-miterlimit="10"/>
<path d="M506.76 219.148L372.21 134.968L400.84 253.278L506.76 219.148Z" stroke="#A37B2C" stroke-opacity="0.05" stroke-miterlimit="10"/>
<path d="M564.02 100.838L400.84 3.00781L372.21 134.968L564.02 100.838Z" stroke="#A37B2C" stroke-opacity="0.05" stroke-miterlimit="10"/>
<path d="M564.02 100.838L372.21 134.968L506.76 219.148L564.02 100.838Z" stroke="#A37B2C" stroke-opacity="0.05" stroke-miterlimit="10"/>
<path d="M280.6 132.688L231.93 269.208L303.5 237.348L280.6 132.688Z" stroke="#A37B2C" stroke-opacity="0.05" stroke-miterlimit="10"/>
<path d="M303.5 237.348L231.93 269.208L352.17 428.468L303.5 237.348Z" stroke="#A37B2C" stroke-opacity="0.05" stroke-miterlimit="10"/>
<path d="M231.93 269.208L31.53 362.488L352.17 428.468L231.93 269.208Z" stroke="#A37B2C" stroke-opacity="0.05" stroke-miterlimit="10"/>
<path d="M352.17 428.468L31.53 362.488L292.05 551.328L352.17 428.468Z" stroke="#A37B2C" stroke-opacity="0.05" stroke-miterlimit="10"/>
<path d="M-97.2999 228.248L-163.14 423.918L31.5301 362.488L-97.2999 228.248Z" stroke="#A37B2C" stroke-opacity="0.05" stroke-miterlimit="10"/>
<path d="M292.05 551.328L31.53 362.488L88.79 571.798L292.05 551.328Z" stroke="#A37B2C" stroke-opacity="0.05" stroke-miterlimit="10"/>
<path d="M-163.14 423.918L-37.1699 630.958L88.7901 571.798L-163.14 423.918Z" stroke="#A37B2C" stroke-opacity="0.05" stroke-miterlimit="10"/>
<path d="M31.5301 362.488L-163.14 423.918L88.7901 571.798L31.5301 362.488Z" stroke="#A37B2C" stroke-opacity="0.05" stroke-miterlimit="10"/>
<path d="M120.28 155.448L-98.9999 0.777832H-110.07L-137.37 141.788L120.28 155.448Z" stroke="#A37B2C" stroke-opacity="0.05" stroke-miterlimit="10"/>
<path d="M120.28 155.448L-137.37 141.788L-97.2999 228.248L120.28 155.448Z" stroke="#A37B2C" stroke-opacity="0.05" stroke-miterlimit="10"/>
<path d="M237.66 12.1078L22.05 0.777832H-99L120.28 155.448L237.66 12.1078Z" stroke="#A37B2C" stroke-opacity="0.05" stroke-miterlimit="10"/>
<path d="M31.5299 362.488L120.28 155.448L-97.3 228.248L31.5299 362.488Z" stroke="#A37B2C" stroke-opacity="0.05" stroke-miterlimit="10"/>
<path d="M231.93 269.208L120.28 155.448L31.53 362.488L231.93 269.208Z" stroke="#A37B2C" stroke-opacity="0.05" stroke-miterlimit="10"/>
<path d="M280.6 132.688L120.28 155.448L231.93 269.208L280.6 132.688Z" stroke="#A37B2C" stroke-opacity="0.05" stroke-miterlimit="10"/>
<path d="M237.66 12.1079L120.28 155.448L280.6 132.688L237.66 12.1079Z" stroke="#A37B2C" stroke-opacity="0.05" stroke-miterlimit="10"/>
</g>
</g>
<path d="M164.62 270.838V270.631L164.5 270.511C164.512 234.649 167.535 198.91 173.422 164.516L179.928 126.925L216.858 117.401C260.951 106.096 307.231 100.278 354.38 100.278C401.529 100.278 447.689 106.096 492.082 117.521C492.082 117.521 492.082 117.521 492.082 117.521L529.012 127.045L535.519 164.637C541.476 199.096 544.5 234.907 544.5 270.838C544.5 306.769 541.446 342.579 535.519 377.039L529.012 414.63L492.082 424.154C447.989 435.46 401.709 441.278 354.56 441.278C307.41 441.278 261.13 435.55 217.038 424.155L217.038 424.155L180.108 414.63L173.601 377.039C167.644 342.579 164.62 306.769 164.62 270.838Z" stroke="#B48F36"/>
<path d="M774.62 270.838V270.631L774.5 270.511C774.512 234.649 777.535 198.91 783.422 164.516L789.928 126.925L826.858 117.401C870.951 106.096 917.231 100.278 964.38 100.278C1011.53 100.278 1057.69 106.096 1102.08 117.521C1102.08 117.521 1102.08 117.521 1102.08 117.521L1139.01 127.045L1145.52 164.637C1151.48 199.096 1154.5 234.907 1154.5 270.838C1154.5 306.769 1151.45 342.579 1145.52 377.039L1139.01 414.63L1102.08 424.154C1057.99 435.46 1011.71 441.278 964.56 441.278C917.41 441.278 871.13 435.55 827.038 424.155L827.038 424.155L790.108 414.63L783.601 377.039C777.644 342.579 774.62 306.769 774.62 270.838Z" stroke="#B48F36"/>
<path d="M1384.62 270.838V270.631L1384.5 270.511C1384.51 234.649 1387.54 198.91 1393.42 164.516L1399.93 126.925L1436.86 117.401C1480.95 106.096 1527.23 100.278 1574.38 100.278C1621.53 100.278 1667.69 106.096 1712.08 117.521C1712.08 117.521 1712.08 117.521 1712.08 117.521L1749.01 127.045L1755.52 164.637C1761.48 199.096 1764.5 234.907 1764.5 270.838C1764.5 306.769 1761.45 342.579 1755.52 377.039L1749.01 414.63L1712.08 424.154C1667.99 435.46 1621.71 441.278 1574.56 441.278C1527.41 441.278 1481.13 435.55 1437.04 424.155L1437.04 424.155L1400.11 414.63L1393.6 377.039C1387.64 342.579 1384.62 306.769 1384.62 270.838Z" stroke="#B48F36"/>
<line x1="551" y1="278.278" x2="768" y2="278.278" stroke="#B48F36"/>
<line x1="1161" y1="278.278" x2="1378" y2="278.278" stroke="#B48F36"/>
</g>
<defs>
<filter id="filter0_d_4057_2" x="0" y="0.777832" width="1928" height="548" filterUnits="userSpaceOnUse" color-interpolation-filters="sRGB">
<feFlood flood-opacity="0" result="BackgroundImageFix"/>
<feColorMatrix in="SourceAlpha" type="matrix" values="0 0 0 0 0 0 0 0 0 0 0 0 0 0 0 0 0 0 127 0" result="hardAlpha"/>
<feOffset dy="4"/>
<feGaussianBlur stdDeviation="2"/>
<feComposite in2="hardAlpha" operator="out"/>
<feColorMatrix type="matrix" values="0 0 0 0 0 0 0 0 0 0 0 0 0 0 0 0 0 0 0.25 0"/>
<feBlend mode="normal" in2="BackgroundImageFix" result="effect1_dropShadow_4057_2"/>
<feBlend mode="normal" in="SourceGraphic" in2="effect1_dropShadow_4057_2" result="shape"/>
</filter>
</defs>
</svg>
