<svg width="280" height="89" viewBox="0 0 280 89" fill="none" xmlns="http://www.w3.org/2000/svg">
<path d="M6.79407 64.7557L2.83302 57.6108H2.73274V64.7557H0.00012207V53.374H3.00851L6.96956 60.4186H7.04477V53.374H9.7774V64.7557H6.79407Z" fill="#343333"/>
<path d="M15.1677 60.5199H17.9003L16.5716 56.3833H16.4713L15.1426 60.5199H15.1677ZM10.8306 64.7567L15.0674 53.2997H18.0758L22.3126 64.6815H19.229L18.6022 62.6508H14.5409L13.7387 64.7567H10.8306Z" fill="#343333"/>
<path d="M24.4932 64.7557V55.8559H21.0586V53.374H30.7607V55.8559H27.3261V64.7557H24.4932Z" fill="#343333"/>
<path d="M35.1736 53.2997H32.2655V64.6815H35.1736V53.2997Z" fill="#343333"/>
<path d="M42.4935 55.5811C42.0422 55.5811 41.616 55.6814 41.265 55.8569C40.9141 56.0324 40.6383 56.3081 40.3876 56.6591C40.1118 57.0101 40.0366 57.3611 39.9363 57.8123C39.8611 58.2636 39.7608 58.6898 39.7608 59.141C39.7608 59.5923 39.8611 60.0185 39.9363 60.4697C40.0366 60.8207 40.2121 61.272 40.3876 61.623C40.5631 61.9739 40.9141 62.2497 41.265 62.4252C41.616 62.6007 42.0673 62.701 42.4935 62.701C42.9196 62.701 43.3709 62.6007 43.7219 62.4252C44.0729 62.2497 44.3486 61.9739 44.5993 61.623C44.8751 61.272 44.9503 60.921 45.0506 60.4697C45.1258 60.0185 45.2261 59.5923 45.2261 59.141C45.2261 58.6898 45.1258 58.2636 45.0506 57.8123C44.9503 57.4614 44.7748 57.0101 44.5993 56.6591C44.4238 56.3081 44.0729 56.0324 43.7219 55.8569C43.3709 55.6814 42.9196 55.5811 42.4935 55.5811ZM42.4935 64.9322C41.6912 64.9322 40.9141 64.7567 40.1118 64.4809C39.4099 64.2052 38.7831 63.779 38.3569 63.2525C37.8305 62.726 37.4795 62.0241 37.304 61.3973C37.0282 60.6954 36.953 59.8931 36.953 59.116C36.953 58.3388 37.0533 57.5366 37.304 56.8346C37.5798 56.1326 37.9307 55.5059 38.3569 54.9794C38.8834 54.453 39.4099 54.0017 40.1118 53.751C40.8138 53.4 41.6912 53.2997 42.4935 53.2997C43.2957 53.2997 44.0729 53.4752 44.8751 53.751C45.5771 54.0268 46.2038 54.453 46.63 54.9794C47.1565 55.5059 47.5074 56.2079 47.6829 56.8346C47.9587 57.5366 48.0339 58.3388 48.0339 59.116C48.0339 59.8931 47.9336 60.6954 47.6829 61.3973C47.4072 62.0993 47.0562 62.726 46.63 63.2525C46.1035 63.779 45.5771 64.2302 44.8751 64.4809C44.0729 64.8319 43.2957 64.9322 42.4935 64.9322Z" fill="#343333"/>
<path d="M56.5831 64.7557L52.6221 57.6108H52.5218V64.7557H49.7892V53.374H52.7976L56.7586 60.4186H56.8589V53.374H59.5915V64.7557H56.5831Z" fill="#343333"/>
<path d="M64.9562 60.5199H67.6888L66.3601 56.3833H66.2598L64.9311 60.5199H64.9562ZM60.6442 64.7567L64.881 53.2997H67.8894L72.1262 64.6815H69.0426L68.4158 62.6508H64.3545L63.5523 64.7567H60.6442Z" fill="#343333"/>
<path d="M73.0535 64.7557V53.374H75.9616V62.2738H81.3516V64.7557H73.0535Z" fill="#343333"/>
<path d="M89.9008 62.2749H91.405C92.2824 62.3501 93.1599 62.0994 93.8618 61.4726C94.3883 60.7707 94.6641 59.8932 94.6641 59.0158C94.7393 58.1383 94.3883 57.2609 93.8618 56.6341C93.1599 56.1077 92.3576 55.7567 91.4802 55.8319H89.976L89.8757 62.2749H89.9008ZM86.9927 64.7568V53.375H91.8312C93.3354 53.2748 94.8145 53.8263 95.8925 54.8792C96.9454 56.0325 97.4719 57.5116 97.3967 59.0158C97.497 60.5952 96.9705 62.0994 95.8925 63.2526C94.7393 64.3055 93.3354 64.832 91.756 64.7568H86.9927Z" fill="#343333"/>
<path d="M99.2521 64.7557V53.374H108.327V55.6804H102.16V57.7863H107.801V59.9924H102.16V62.2738H108.503V64.7557H99.2521Z" fill="#343333"/>
<path d="M112.539 64.7557L109.029 53.374H112.113L114.319 61.9228H114.394L116.701 53.374H119.684L115.999 64.7557H112.539Z" fill="#343333"/>
<path d="M120.661 64.7557V53.374H129.737V55.6804H123.569V57.7863H129.21V59.9924H123.569V62.2738H129.912V64.7557H120.661Z" fill="#343333"/>
<path d="M131.667 64.7557V53.374H134.575V62.2738H139.966V64.7557H131.667Z" fill="#343333"/>
<path d="M146.76 55.5811C146.308 55.5811 145.882 55.6814 145.531 55.8569C145.18 56.0324 144.905 56.3081 144.654 56.6591C144.378 57.0101 144.303 57.3611 144.203 57.8123C144.127 58.2636 144.027 58.6898 144.027 59.141C144.027 59.5923 144.127 60.0185 144.203 60.4697C144.303 60.8207 144.478 61.272 144.654 61.623C144.829 61.9739 145.18 62.2497 145.531 62.4252C145.882 62.6007 146.334 62.701 146.76 62.701C147.186 62.701 147.637 62.6007 147.988 62.4252C148.339 62.2497 148.615 61.9739 148.866 61.623C149.141 61.272 149.217 60.921 149.317 60.4697C149.392 60.0185 149.492 59.5923 149.492 59.141C149.492 58.6898 149.392 58.2636 149.317 57.8123C149.217 57.4614 149.041 57.0101 148.866 56.6591C148.69 56.3081 148.339 56.0324 147.988 55.8569C147.537 55.6814 147.111 55.5811 146.76 55.5811ZM146.76 64.9322C145.957 64.9322 145.18 64.7567 144.378 64.4809C143.676 64.2052 143.049 63.779 142.623 63.2525C142.097 62.726 141.746 62.0241 141.57 61.3973C141.294 60.6954 141.219 59.8931 141.219 59.116C141.219 58.3388 141.32 57.5366 141.57 56.8346C141.846 56.1326 142.197 55.5059 142.623 54.9794C143.15 54.453 143.676 54.0017 144.378 53.751C145.08 53.4 145.957 53.2997 146.76 53.2997C147.562 53.2997 148.339 53.4752 149.141 53.751C149.843 54.0268 150.47 54.453 150.896 54.9794C151.423 55.5059 151.774 56.2079 151.949 56.8346C152.225 57.5366 152.3 58.3388 152.3 59.116C152.3 59.8931 152.2 60.6954 151.949 61.3973C151.673 62.0993 151.322 62.726 150.896 63.2525C150.37 63.779 149.843 64.2302 149.141 64.4809C148.339 64.8319 147.562 64.9322 146.76 64.9322Z" fill="#343333"/>
<path d="M156.963 58.6637H158.993C159.445 58.6637 159.871 58.5634 160.222 58.3127C160.573 58.037 160.748 57.6108 160.673 57.1595C160.673 56.7083 160.498 56.2821 160.222 56.0063C159.871 55.7305 159.42 55.555 158.993 55.6553H156.963V58.6637ZM154.055 64.7557V53.374H159.445C159.971 53.374 160.498 53.4742 161.024 53.5495C161.475 53.6497 161.901 53.9004 162.353 54.1762C162.704 54.452 163.055 54.8782 163.23 55.3294C163.506 55.8559 163.581 56.3824 163.581 57.0091C163.681 58.062 163.305 59.2153 162.528 60.0175C161.651 60.7195 160.598 60.9952 159.52 60.9952H156.963V64.7808H154.055V64.7557Z" fill="#343333"/>
<path d="M170.275 64.7557L167.894 56.0314H167.718V64.7557H165.086V53.374H169.398L171.328 61.0454H171.428L173.459 53.374H177.771V64.7557H175.038V56.0314H174.938L172.582 64.7557H170.275Z" fill="#343333"/>
<path d="M179.977 64.7557V53.374H189.053V55.6804H182.885V57.7863H188.526V59.9924H182.885V62.2738H189.228V64.7557H179.977Z" fill="#343333"/>
<path d="M197.777 64.7557L193.816 57.6108H193.715V64.7557H190.983V53.374H193.991L197.952 60.4186H198.052V53.374H200.785V64.7557H197.777Z" fill="#343333"/>
<path d="M205.623 64.7557V55.8559H202.189V53.374H211.891V55.8559H208.431V64.7557H205.623Z" fill="#343333"/>
<path d="M168.345 86.241V74.8843H176.718V77.1657H171.253V79.6476H176.016V81.8538H171.253V86.241H168.345Z" fill="#343333"/>
<path d="M183.06 86.5168C181.732 86.6171 180.328 86.1658 179.275 85.2884C178.397 84.2354 177.946 82.9067 178.046 81.578V74.8843H180.955V81.7535C180.854 82.3802 181.03 82.9819 181.406 83.5084C181.857 83.9597 182.384 84.1351 182.985 84.0349C183.612 84.1101 184.138 83.8594 184.565 83.5084C184.916 82.9819 185.091 82.3552 184.991 81.7535V74.8843H187.899V81.578C187.974 82.9067 187.548 84.2104 186.67 85.2884C185.793 86.1658 184.464 86.6171 183.06 86.5168Z" fill="#343333"/>
<path d="M196.9 86.241L192.938 79.1212H192.838V86.241H190.106V74.8843H193.114L197.075 81.929H197.15V74.8843H199.883V86.241H196.9Z" fill="#343333"/>
<path d="M204.922 83.7843H206.426C207.304 83.8595 208.181 83.6088 208.883 82.982C209.41 82.2801 209.685 81.4026 209.685 80.5252C209.786 79.6477 209.41 78.7703 208.883 78.1435C208.181 77.6171 207.379 77.2661 206.501 77.3413H204.997L204.897 83.7843H204.922ZM202.089 86.2411V74.8594H206.928C208.432 74.7591 209.936 75.3106 210.989 76.3636C212.042 77.5168 212.568 78.9959 212.493 80.5001C212.593 82.0795 212.042 83.5837 210.989 84.7369C209.836 85.7899 208.432 86.3163 206.852 86.2411H202.089Z" fill="#343333"/>
<path d="M148.339 10.104H141.018V15.469H143.4V12.8366H145.606V16.196H140.918H128.057V12.9118H129.11V10.104H125.149V18.9286H148.339V10.104Z" fill="#343333"/>
<path d="M152.927 13.0121H155.133V16.196H152.927V13.0121ZM158.116 10.104H150.194V18.9286H155.208V20.9593H150.194V23.6919H158.116V10.104Z" fill="#343333"/>
<path d="M197.501 11.3324V10.104H194.768V15.469H197.501V14.2405H209.334V16.196H182.534V10.104H179.626V16.196H170.626V10.2795H159.796V13.0121H167.994V16.2712H159.796V19.0038H212.142V11.5079H197.501V11.3324Z" fill="#343333"/>
<path d="M181.205 5.60112L179.592 7.21429L181.205 8.82746L182.819 7.21429L181.205 5.60112Z" fill="#343333"/>
<path d="M144.804 7.5467L146.133 8.87541L147.712 7.296L146.133 5.69153L144.804 7.02023L143.476 5.69153L141.896 7.296L143.476 8.87541L144.804 7.5467Z" fill="#343333"/>
<path d="M211.966 28.0792H209.058V40.5891H211.966V28.0792Z" fill="#343333"/>
<path d="M109.806 27.553L108.227 29.1324L109.806 30.7369L111.135 29.4082L112.464 30.7369L114.043 29.1324L112.464 27.553L111.135 28.8817L109.806 27.553Z" fill="#343333"/>
<path d="M133.272 45.102L134.851 43.4976L133.272 41.9182L131.943 43.2469L130.614 41.9182L129.035 43.4976L130.614 45.102L131.943 43.7733L133.272 45.102Z" fill="#343333"/>
<path d="M191.509 29.1317L192.838 30.4604L194.417 28.881L192.838 27.3016L191.509 28.6052L190.206 27.3016L188.601 28.881L190.206 30.4604L191.509 29.1317Z" fill="#343333"/>
<path d="M174.429 27.2765L172.816 28.8896L174.429 30.5028L176.042 28.8897L174.429 27.2765Z" fill="#343333"/>
<path d="M155.283 37.8564H153.077V34.4971H155.283V37.8564ZM203.142 28.0792V30.887H204.195V37.8564H193.089V31.965H190.281V37.8564H175.841V31.7895H172.933V37.8564H157.941V31.7895H150.62V37.8564H133.698V31.7895H130.715V37.8564H110.007V34.4971H112.213V37.1545H114.67V31.7895H107.35V40.5891H207.028V28.0792H203.142Z" fill="#343333"/>
<path d="M57.5607 28.0792H54.7278V37.1545H57.5607V35.9261H69.5441V37.8564H40.7137V31.7895H37.8056V37.8564H21.6856V31.7895H14.29V37.8564H2.80795V34.5973H3.88596V31.7895H0.00012207V40.5891H17.0226V34.6976H18.8527V40.5891H72.2767V33.1182H57.5607V28.0792Z" fill="#343333"/>
<path d="M100.38 28.0792H97.4716V40.5891H100.38V28.0792Z" fill="#343333"/>
<path d="M9.60159 42.7953L8.29796 41.4917L6.69348 43.0711L8.29796 44.6505L9.60159 43.3218L10.9303 44.6505L12.5097 43.0711L10.9303 41.4917L9.60159 42.7953Z" fill="#343333"/>
<path d="M39.3198 27.2738L37.7067 28.887L39.3198 30.5001L40.933 28.887L39.3198 27.2738Z" fill="#343333"/>
<path d="M76.94 34.6976H79.1461V37.8815H76.94V34.6976ZM91.5808 28.0792V30.887H92.6338V37.8564H82.1545V31.7895H74.2324V40.5891H79.2464V42.6197H74.2324V45.3523H82.1545V40.5891H95.5419V28.0792H91.5808Z" fill="#343333"/>
<path d="M271.332 21.5858L263.134 29.7837L259.8 33.118L258.923 33.9954L250.449 42.4691L243.931 35.9509L247.265 32.5915L250.449 35.7754L255.212 31.0121L256.441 29.7837L259.8 26.4243L264.638 21.5858L261.906 18.8532L250.449 7.39623L236.259 21.5858L238.365 23.6917L235.031 27.0511L229.641 21.661L250.549 0.777771L271.332 21.5858Z" fill="#343333"/>
<path d="M241.098 26.4242L242.076 25.4465L250.449 17.0731L256.967 23.6164L253.633 26.9507L250.449 23.7919L246.037 28.1791L244.457 29.7836L241.098 33.1179L236.259 37.9814L238.992 40.7141L250.374 52.0707L264.563 37.8812L262.432 35.7753L265.792 32.4159L271.157 37.806L250.273 58.6892L229.641 37.9814L234.68 32.9424L237.839 29.7836L241.098 26.4242Z" fill="#343333"/>
<path d="M263.761 81.6791L256.616 74.5592L253.282 77.8935L260.326 84.9382L263.761 88.3978L269.577 82.5816L266.218 79.2222L263.761 81.6791Z" fill="#343333"/>
<path d="M247.716 65.6337L227.986 45.9037H221.267L244.357 68.9931L247.716 65.6337Z" fill="#343333"/>
<path d="M253.808 71.7257L279.63 45.9037H272.936L252.479 66.3608L247.014 71.826L237.061 81.7788L234.504 79.2968L231.145 82.6562L236.961 88.4724L240.396 85.0379L250.273 75.1603L253.808 71.7257Z" fill="#343333"/>
</svg>
