<svg width="42" height="39" viewBox="0 0 42 39" fill="none" xmlns="http://www.w3.org/2000/svg">
<path d="M21.0873 38.9326C18.6304 38.9326 16.991 37.7686 15.5272 36.7415C14.4887 36.0008 13.5122 35.2974 12.3622 35.1024C11.8146 35.0078 11.2598 34.9619 10.7043 34.9655C9.72978 34.9655 8.95555 35.1128 8.40429 35.2248C8.05331 35.2871 7.76013 35.3452 7.52889 35.3452C7.2894 35.3452 6.9859 35.2788 6.86821 34.8721C6.76498 34.5401 6.70098 34.2247 6.63698 33.9197C6.47181 33.152 6.33348 32.681 6.04649 32.6333C2.97228 32.1623 1.1327 31.4507 0.773455 30.6083C0.74455 30.517 0.709451 30.4215 0.709451 30.3489C0.688805 30.0896 0.874621 29.8779 1.1327 29.8302C3.57102 29.4235 5.76158 28.1205 7.61148 25.9751C9.04845 24.309 9.74836 22.6989 9.81236 22.5246C9.81236 22.5039 9.83094 22.5039 9.83094 22.5039C10.1819 21.7756 10.2542 21.1552 10.0415 20.6469C9.64719 19.6924 8.33822 19.2858 7.44631 19.0077C7.21713 18.9455 7.02306 18.8708 6.85789 18.8148C6.09398 18.5098 4.82218 17.8604 4.98941 16.964C5.10916 16.3167 5.96391 15.854 6.66382 15.854C6.85789 15.854 7.02306 15.883 7.15933 15.9577C7.94388 16.3167 8.65205 16.5013 9.25904 16.5013C10.0147 16.5013 10.3739 16.215 10.4648 16.1237C10.4456 15.7133 10.4215 15.3031 10.3925 14.8933C10.2067 12.0611 9.99611 8.54633 10.888 6.53164C13.5679 0.500039 19.2559 0.0165986 20.9407 0.0165986L21.6757 0H21.7789C23.4616 0 29.1496 0.470992 31.8295 6.51297C32.7317 8.52765 32.5108 12.0528 32.325 14.8746L32.3085 15.0137C32.2878 15.3913 32.261 15.7523 32.2424 16.1237C32.3353 16.1963 32.6656 16.4743 33.347 16.4826C33.9375 16.4661 34.5816 16.271 35.3166 15.937C35.5201 15.8485 35.7391 15.802 35.9608 15.8C36.2189 15.8 36.4769 15.8623 36.6978 15.937H36.7164C37.3337 16.1693 37.7384 16.603 37.7384 17.0574C37.757 17.4827 37.4246 18.1301 35.8513 18.7691C35.6862 18.8314 35.4921 18.9082 35.2629 18.9621C34.3875 19.2318 33.0806 19.6572 32.6656 20.6012C32.4365 21.0992 32.5294 21.7383 32.8783 22.4582C32.8783 22.479 32.8969 22.479 32.8969 22.479C32.998 22.7363 35.6573 28.8052 41.5765 29.7949C41.6975 29.8154 41.8071 29.8792 41.8849 29.9746C41.9627 30.0699 42.0035 30.1904 41.9998 30.3136C41.9998 30.4049 41.9812 30.4983 41.9358 30.5813C41.5765 31.432 39.7535 32.125 36.6607 32.6063C36.3758 32.652 36.2374 33.1251 36.0723 33.8928C36.0061 34.2128 35.929 34.5304 35.841 34.8451C35.7502 35.1501 35.5561 35.3161 35.2258 35.3161H35.1783C34.9677 35.3161 34.6828 35.2891 34.305 35.2144C33.5483 35.0524 32.7766 34.9717 32.0029 34.9738C31.4599 34.9738 30.8983 35.0215 30.3471 35.1128C29.2053 35.2995 28.2205 36.0112 27.1799 36.7519C25.6996 37.7686 24.052 38.9326 21.6117 38.9326H21.0873Z" fill="black"/>
</svg>
