<svg width="199" height="288" viewBox="0 0 199 288" fill="none" xmlns="http://www.w3.org/2000/svg">
<rect x="16" y="278.778" width="12.7279" height="12.7279" transform="rotate(-45 16 278.778)" fill="#C1AC7F"/>
<rect x="165" y="278.778" width="12.7279" height="12.7279" transform="rotate(-45 165 278.778)" fill="#C1AC7F"/>
<path d="M198.06 99.3055C198.06 124.446 188.646 147.386 173.151 164.793C171.664 166.463 170.123 168.079 168.529 169.642C166.966 171.174 165.359 172.656 163.697 174.081C162.201 175.367 160.665 176.608 159.089 177.805C153.119 182.342 146.617 186.214 139.691 189.308C137.931 190.094 136.141 190.831 134.323 191.519C129.121 193.484 123.704 195.02 118.122 196.087C116.631 196.373 115.13 196.623 113.616 196.837C109.017 197.498 104.315 197.838 99.5321 197.838C87.3099 197.838 75.6057 195.609 64.8036 191.541C62.9861 190.858 61.1955 190.121 59.436 189.335C52.4251 186.209 45.8519 182.289 39.8234 177.689C38.2471 176.488 36.7064 175.237 35.206 173.942C33.518 172.487 31.8837 170.977 30.2984 169.41C28.7801 167.914 27.3154 166.369 25.8998 164.779C10.4089 147.373 1 124.438 1 99.3055C1 44.8884 45.115 0.777832 99.5321 0.777832C153.949 0.777832 198.06 44.8884 198.06 99.3055Z" stroke="#C1AC7F" stroke-width="1.5" stroke-miterlimit="10"/>
<path d="M150.495 141.457V140.957C150.495 140.185 150.488 139.64 150.436 139.24C150.383 138.839 150.295 138.676 150.208 138.59C150.12 138.503 149.952 138.415 149.545 138.363C149.139 138.311 148.587 138.304 147.805 138.304H143.031H142.531V137.804C142.531 137.179 142.533 136.571 142.535 135.974C142.539 134.62 142.542 133.325 142.525 132.027C142.517 131.434 142.384 131.131 142.211 130.961C142.034 130.788 141.715 130.656 141.108 130.639L141.107 130.639C140.749 130.629 140.396 130.631 140.02 130.634C139.84 130.635 139.655 130.637 139.462 130.637H138.962V130.137V82.4198V81.9198H139.462C139.914 81.9198 140.359 81.921 140.798 81.9222C141.789 81.9249 142.752 81.9275 143.717 81.9161C144.431 81.9076 144.768 81.7728 144.946 81.5923C145.125 81.4111 145.259 81.069 145.263 80.3468C145.268 79.52 145.263 78.6863 145.258 77.8493C145.249 76.323 145.241 74.7858 145.287 73.26C145.304 72.7113 145.201 72.3375 145.014 72.0521C144.823 71.7619 144.511 71.5086 144.01 71.2682L144.01 71.2681C129.719 64.3949 115.439 57.4988 101.17 50.5813L101.17 50.5812C100.727 50.3665 100.349 50.2751 99.989 50.2779C99.628 50.2807 99.248 50.3783 98.8015 50.596L98.8014 50.596C94.2903 52.7945 89.764 54.961 85.2395 57.1267C83.8148 57.8086 82.3903 58.4904 80.9665 59.1731L80.9664 59.1732C79.6724 59.7935 78.3783 60.4138 77.0843 61.0342C69.9343 64.4619 62.7844 67.8896 55.6281 71.3054L150.495 141.457ZM150.495 141.457H150.496M150.495 141.457H150.496M150.496 141.457C150.497 141.868 150.497 142.278 150.498 142.688C150.5 144.094 150.503 145.497 150.491 146.901V146.902C150.486 147.491 150.355 147.797 150.183 147.966C150.01 148.136 149.696 148.266 149.094 148.268H149.094C146.479 148.277 143.866 148.276 141.251 148.274C140.27 148.274 139.289 148.273 138.308 148.273H51.7125C51.5966 148.273 51.4865 148.274 51.3801 148.276C51.1134 148.279 50.8703 148.282 50.6203 148.263M150.496 141.457L50.6203 148.263M50.6203 148.263C50.6203 148.263 50.6203 148.263 50.6204 148.263L50.5831 148.762L50.6203 148.263ZM50.6203 148.263C50.2304 148.234 49.9669 148.111 49.8029 147.95C49.6438 147.794 49.5306 147.555 49.5262 147.191L49.5261 147.191M50.6203 148.263L49.5261 147.191M54.447 80.2286V80.2286C54.4483 81.0748 54.5762 81.4292 54.7545 81.6068C54.934 81.7856 55.2936 81.9142 56.1471 81.9186C56.1472 81.9186 56.1473 81.9186 56.1474 81.9186L56.1448 82.4186L54.447 80.2286ZM54.447 80.2286C54.4459 79.496 54.45 78.7597 54.4542 78.0213C54.4633 76.398 54.4725 74.7647 54.4253 73.1391C54.4105 72.6312 54.5159 72.2856 54.6951 72.0232M54.447 80.2286L54.6951 72.0232M49.5261 147.191C49.4932 144.631 49.4894 142.072 49.5261 139.514L49.5261 147.191ZM54.6951 72.0232C54.8789 71.754 55.1745 71.5221 55.628 71.3055L54.6951 72.0232ZM49.8384 138.726C49.6586 138.874 49.5321 139.109 49.5261 139.514L49.8384 138.726ZM49.8384 138.726C50.0346 138.564 50.372 138.443 50.9138 138.437L49.8384 138.726ZM98.5824 50.1466L98.5824 50.1466L98.5824 50.1466ZM56.6066 79.174V79.674H57.1066H142.899H143.399V79.174C143.399 78.7002 143.395 78.2348 143.391 77.7753C143.382 76.6824 143.374 75.6222 143.418 74.5579L143.418 74.5572C143.435 74.1276 143.38 73.7298 143.166 73.3799C142.952 73.0316 142.622 72.7989 142.231 72.6125L142.231 72.6123C128.474 66.0576 114.727 59.4787 100.989 52.8834C100.672 52.7309 100.357 52.6345 100.02 52.6325C99.6812 52.6305 99.3644 52.7237 99.0429 52.8786L99.0427 52.8787C94.0821 55.2716 89.1137 57.6465 84.1447 60.0217C82.5166 60.7999 80.8885 61.5781 79.2605 62.357C78.738 62.607 78.2155 62.857 77.6929 63.107C71.0334 66.2927 64.3728 69.479 57.7209 72.6816L57.7208 72.6816C57.5231 72.7769 57.2884 72.9242 57.0938 73.0948C56.9963 73.1803 56.896 73.2829 56.8155 73.3995C56.7386 73.5108 56.6523 73.6743 56.6439 73.8737L56.6439 73.8739C56.5891 75.1861 56.5956 76.5048 56.6022 77.8419C56.6044 78.2838 56.6066 78.7277 56.6066 79.174ZM136.958 82.4832V81.9832H136.458H129.244H128.744V82.4832V130.237V130.737H129.244H136.458H136.958V130.237V82.4832ZM126.393 82.487V81.987H125.893H106.922H106.422V82.487V130.256V130.756H106.922H125.893H126.393V130.256V82.487ZM104.121 82.4845V81.9845H103.621H96.396H95.896V82.4845V130.239V130.739H96.396H103.621H104.121V130.239V82.4845ZM93.5969 82.5047V82.0047H93.0969H74.086H73.586V82.5047V130.261V130.761H74.086H93.0969H93.5969V130.261V82.5047ZM71.2373 82.4857V81.9857H70.7373H63.5553H63.0553V82.4857V130.239V130.739H63.5553H70.7373H71.2373V130.239V82.4857ZM60.048 132.916H59.548V133.416V137.72V138.22H60.048H139.973H140.473V137.72V133.416V132.916H139.973H60.048ZM147.781 145.881H148.281V145.381V141.025V140.525H147.781H52.0855H51.5855V141.025V145.381V145.881H52.0855H147.781Z" stroke="#C1AC7F"/>
</svg>
