<svg width="199" height="288" viewBox="0 0 199 288" fill="none" xmlns="http://www.w3.org/2000/svg">
<rect x="16" y="278.778" width="12.7279" height="12.7279" transform="rotate(-45 16 278.778)" fill="#C1AC7F"/>
<rect x="165" y="278.778" width="12.7279" height="12.7279" transform="rotate(-45 165 278.778)" fill="#C1AC7F"/>
<path d="M151.493 139.444C151.493 134.451 151.493 129.419 151.493 124.39C151.493 119.474 148.805 116.772 143.92 116.772C130.46 116.772 117.001 116.772 103.542 116.772H101.854V103.197C103.707 102.929 105.529 102.728 107.32 102.389C125.638 98.8966 139.508 82.8296 140.173 64.378C140.865 45.1717 128.406 28.1268 110.089 23.304C107.74 22.6878 105.315 22.3528 102.93 21.8884H96.1562C95.4685 22.0045 94.7853 22.143 94.102 22.2412C72.2834 25.3314 57.0157 44.6939 59.1101 66.6242C60.7489 83.7808 73.6142 98.3876 90.3867 102.085C92.6284 102.581 94.9103 102.858 97.1833 103.242V116.772H95.397C81.8441 116.772 68.2912 116.772 54.7383 116.772C51.1078 116.772 48.3973 118.907 47.723 122.278C47.589 122.966 47.5935 123.68 47.589 124.381C47.5801 129.414 47.589 134.442 47.589 139.439C39.4349 142.132 35.2775 147.919 36.4519 154.836C37.6264 161.767 43.2708 166.572 50.1076 166.465C56.8371 166.353 62.3744 161.361 63.3032 154.466C64.0222 149.125 61.1285 141.601 52.1081 139.488V138.126C52.1081 133.563 52.1081 128.999 52.1081 124.431C52.1081 121.961 52.7958 121.287 55.3188 121.287H97.2904C97.2904 127.105 97.2904 132.745 97.2904 138.385C97.2904 138.756 97.2547 139.127 97.2324 139.475C89.3284 141.971 85.0593 147.785 86.0953 154.582C87.1537 161.521 92.7445 166.465 99.55 166.465C106.364 166.465 111.928 161.553 113 154.586C114.05 147.794 109.745 141.931 101.908 139.493V121.394C102.091 121.349 102.18 121.309 102.27 121.309C116.336 121.3 130.407 121.296 144.482 121.309C146.13 121.309 146.961 122.189 146.987 123.877C147.014 125.712 146.996 127.548 146.996 129.383V139.497C137.967 141.65 135.082 149.089 135.792 154.475C136.703 161.343 142.272 166.371 148.992 166.478C155.847 166.59 161.474 161.798 162.644 154.85C163.818 147.933 159.656 142.132 151.511 139.453L151.493 139.444ZM58.8645 152.894C58.8734 157.877 54.7964 161.954 49.8173 161.95C44.8427 161.941 40.779 157.851 40.8014 152.867C40.8192 147.946 44.8561 143.909 49.7771 143.882C54.7696 143.86 58.8555 147.91 58.8645 152.894ZM64.2856 54.4869C67.8223 38.9423 81.4244 27.4168 97.4244 26.4477C113.349 25.4832 128.237 35.3431 133.591 50.45C138.985 65.6775 133.475 81.615 122.105 90.6488C122.699 79.6055 118.359 71.5765 108.633 66.642C118.591 58.7738 115.867 47.1857 110.562 42.1664C104.319 36.263 94.754 36.1826 88.5246 42.2156C84.97 45.654 83.3847 49.9409 83.7911 54.8575C84.193 59.7651 86.5999 63.6323 90.5653 66.584C80.7099 71.5765 76.3694 79.601 76.9588 90.4836C67.8893 83.8969 60.8204 69.7277 64.2901 54.4913L64.2856 54.4869ZM99.3892 64.8067C93.1777 64.7442 88.1673 59.591 88.2433 53.3347C88.3192 47.1946 93.4277 42.1932 99.608 42.2245C105.829 42.2557 110.875 47.3822 110.83 53.6205C110.785 59.8276 105.632 64.8692 99.3937 64.8067H99.3892ZM82.2728 94.1944C81.8709 93.9845 81.5494 93.2968 81.4958 92.7967C81.3842 91.6803 81.4601 90.5416 81.4601 88.9519C81.0939 83.2762 82.9025 77.9265 87.6225 73.8807C93.3563 68.9597 99.9296 67.8567 106.824 70.9379C113.701 74.0102 117.256 79.601 117.586 87.1523C117.671 89.0769 117.649 91.0105 117.564 92.9351C117.546 93.3772 117.18 93.9935 116.796 94.1944C105.293 100.241 93.7627 100.227 82.2639 94.1944H82.2728ZM108.566 152.921C108.566 157.904 104.475 161.968 99.4875 161.95C94.5709 161.932 90.5296 157.891 90.5028 152.979C90.476 147.986 94.5263 143.896 99.5098 143.882C104.498 143.869 108.57 147.937 108.566 152.921ZM149.242 161.95C144.263 161.95 140.186 157.873 140.2 152.889C140.213 147.968 144.232 143.918 149.153 143.882C154.15 143.847 158.245 147.888 158.263 152.867C158.285 157.855 154.222 161.946 149.242 161.946V161.95Z" stroke="#C1AC7F" stroke-width="1.5" stroke-miterlimit="10"/>
<path d="M103.935 73.2513C103.739 72.1795 102.863 71.6169 101.747 71.599C100.385 71.5767 99.0231 71.5767 97.6566 71.599C95.9955 71.6213 95.2765 72.2287 94.9952 73.8809C94.2673 78.1366 93.4948 82.3878 92.8919 86.6613C92.7803 87.4606 93.1465 88.5457 93.6779 89.1754C94.9059 90.6535 96.3393 91.9574 97.7236 93.2971C98.9561 94.4894 100.081 94.5117 101.305 93.3417C102.729 91.9753 104.136 90.5865 105.476 89.1441C105.927 88.6618 106.146 87.9652 106.373 87.5455C105.538 82.5976 104.784 77.9178 103.935 73.2557V73.2513ZM99.5366 88.5502C98.0585 87.5812 97.2146 86.505 97.746 84.5044C98.3801 82.1109 98.5899 79.6147 99.0052 77.1631C99.0678 76.7924 99.233 76.4397 99.3491 76.0824H99.7197C99.8358 76.4441 100.001 76.8014 100.064 77.1675C100.479 79.6191 100.689 82.1154 101.323 84.5089C101.85 86.5095 101.01 87.5812 99.5366 88.5502Z" stroke="#C1AC7F" stroke-width="1.5" stroke-miterlimit="10"/>
<path d="M99.5321 198.34C153.95 198.34 198.064 154.226 198.064 99.8077C198.064 45.39 153.95 1.27563 99.5321 1.27563C45.1143 1.27563 1 45.39 1 99.8077C1 154.226 45.1143 198.34 99.5321 198.34Z" stroke="#C1AC7F" stroke-width="1.5" stroke-miterlimit="10"/>
</svg>
