<svg width="199" height="288" viewBox="0 0 199 288" fill="none" xmlns="http://www.w3.org/2000/svg">
<rect x="16" y="278.778" width="12.7279" height="12.7279" transform="rotate(-45 16 278.778)" fill="#C1AC7F"/>
<rect x="165" y="278.778" width="12.7279" height="12.7279" transform="rotate(-45 165 278.778)" fill="#C1AC7F"/>
<path d="M154.431 173.181C153.98 173.047 153.529 172.904 152.998 172.739C157.794 166.902 159.085 160.57 155.436 154.015C151.145 146.316 144.237 144.244 135.734 146.423C136.828 132.848 137.909 119.447 138.999 105.988C139.494 105.966 139.816 105.943 140.142 105.934C143.937 105.85 145.951 103.787 145.969 99.9551C145.974 98.3921 146.014 96.8337 145.951 95.2752C145.858 92.8951 144.304 90.8945 142.156 90.314C141.584 90.1577 140.986 90.0907 140.334 89.9701C140.334 84.0086 140.392 78.1633 140.28 72.3223C140.262 71.3265 139.758 70.1476 139.092 69.3974C137.244 67.3165 135.203 65.4097 133.22 63.4538C131.778 62.0293 130.411 61.8819 129.273 62.9849C128.143 64.0789 128.317 65.6196 129.75 67.0709C131.278 68.6159 132.881 70.0896 134.323 71.7105C134.846 72.3 135.261 73.2199 135.279 73.9969C135.364 78.842 135.323 83.6871 135.314 88.5367C135.314 89.0145 135.252 89.4968 135.212 90.0237H122.958V88.1348C122.958 82.9548 122.985 77.7703 122.954 72.5903C122.909 65.7267 118.837 60.31 112.259 58.2871C111.915 58.18 111.576 58.0639 111.205 57.9433C117.01 49.0122 116.827 41.3494 110.741 35.3298C105.311 29.9578 96.7903 29.1942 90.4894 33.5391C87.4037 35.6692 85.2513 38.5361 84.2019 42.1353C82.4738 48.0477 84.0144 53.2813 87.953 57.9433C79.8748 60.3368 75.5879 66.2135 76.1059 73.9478C76.2041 75.4214 77.133 76.4351 78.4503 76.511C79.8436 76.5914 80.951 75.5911 81.0894 74.055C81.1609 73.2824 81.0984 72.4965 81.1386 71.7195C81.3886 67.053 85.3272 62.9447 89.9848 62.842C96.3348 62.7036 102.689 62.708 109.039 62.8375C113.63 62.9313 117.743 66.9324 117.868 71.523C118.033 77.5872 117.89 83.6603 117.868 89.729C117.868 89.8183 117.751 89.9031 117.698 89.9791H112.192V87.8445C112.192 84.8928 112.228 81.9366 112.165 78.9849C112.134 77.3505 110.982 76.2654 109.548 76.3324C108.151 76.3994 107.213 77.4175 107.186 79.034C107.15 81.4856 107.177 83.9372 107.173 86.3888V89.9791H91.8737C91.8737 86.3307 91.8871 82.8208 91.8737 79.3154C91.8648 77.4577 90.9493 76.3636 89.4489 76.3279C87.9083 76.2967 86.8946 77.4666 86.8723 79.3734C86.8455 81.432 86.8634 83.4951 86.8634 85.5582V89.9791H81.1118V88.0142C81.1118 87.4024 81.1252 86.7862 81.1118 86.1744C81.0582 84.3614 80.1026 83.2361 78.6111 83.2227C77.1196 83.2048 76.1327 84.3302 76.1014 86.1298C76.0836 87.3935 76.1014 88.6617 76.1014 89.9925H63.7453C63.7453 84.3525 63.7274 78.8376 63.7765 73.3271C63.7765 72.8537 64.1338 72.2955 64.4866 71.9294C66.0629 70.2816 67.7107 68.6918 69.3138 67.0709C70.7472 65.6196 70.9125 64.0745 69.7872 62.9849C68.6484 61.8819 67.282 62.0337 65.8441 63.4582C63.8614 65.4141 61.8206 67.3209 59.9719 69.4019C59.3065 70.1521 58.8109 71.3265 58.7841 72.3223C58.659 76.7789 58.726 81.2355 58.726 85.6921V89.9344C54.323 90.8766 53.095 92.4172 53.095 96.7845C53.095 98.0662 53.0593 99.3478 53.1039 100.629C53.2066 103.697 55.359 105.827 58.4224 105.93C58.9538 105.948 59.4852 105.934 60.0657 105.934C61.1597 119.559 62.2359 132.942 63.3255 146.477C55.7743 144.418 49.3886 145.87 44.8784 152.059C39.7832 159.052 40.7478 166.09 45.9948 172.73C45.7402 172.846 45.5973 172.931 45.441 172.98C42.4849 173.9 40.1137 175.249 38.3319 177.026C39.6314 178.053 40.9576 179.053 42.3107 180.022C43.9317 178.589 46.093 177.691 48.4196 177.624C54.5373 177.446 60.6685 177.432 66.7863 177.615C72.1316 177.772 75.9943 181.947 76.088 187.292C76.1327 189.998 76.1059 192.709 76.1014 195.531C77.709 195.924 79.3345 196.277 80.9733 196.589C81.1296 192.548 80.9465 188.489 81.5896 184.573C82.2683 180.455 86.265 177.655 90.668 177.584C96.567 177.486 102.47 177.468 108.369 177.584C113.889 177.691 117.877 181.84 117.939 187.323C117.975 190.369 117.948 193.41 117.948 196.616C119.69 196.29 121.418 195.915 123.124 195.495C123.065 192.133 122.851 188.851 123.222 185.635C123.767 180.875 127.736 177.66 132.613 177.58C138.454 177.486 144.299 177.481 150.14 177.58C152.752 177.62 155.021 178.535 156.7 180.067C158.071 179.084 159.419 178.071 160.737 177.026C159.031 175.262 156.87 173.909 154.436 173.181H154.431ZM99.5634 57.7557C93.5215 57.7825 88.4888 52.7409 88.5201 46.6901C88.5469 40.6215 93.5706 35.6871 99.6616 35.7451C105.654 35.7987 110.558 40.7778 110.54 46.7884C110.517 52.7677 105.552 57.729 99.5634 57.7557ZM57.6543 172.529C51.5231 172.529 46.6512 167.639 46.6735 161.49C46.6914 155.462 51.5812 150.59 57.632 150.572C63.6917 150.554 68.7244 155.6 68.6618 161.633C68.5949 167.675 63.6962 172.525 57.6543 172.529ZM99.4696 172.529C93.4456 172.502 88.529 167.599 88.5156 161.588C88.5022 155.524 93.526 150.523 99.5857 150.572C105.614 150.621 110.522 155.538 110.54 161.539C110.553 167.617 105.583 172.551 99.4696 172.529ZM120.471 179.009C118.104 175.74 115.059 173.73 111.049 172.801C114.827 168.376 116.403 163.477 115.095 157.887C114.201 154.055 112.116 150.965 108.941 148.629C102.743 144.079 94.1869 144.637 88.5201 149.951C82.2907 155.792 82.0495 163.553 87.8815 172.806C84.0992 173.717 81.0001 175.664 78.6155 178.986C76.2086 175.789 73.1676 173.677 69.5862 172.895C70.7651 170.502 72.2879 168.255 73.0113 165.777C74.6055 160.32 73.2971 155.341 69.6487 150.956C69.1173 150.317 68.6172 149.456 68.5502 148.656C67.3713 134.675 66.2594 120.684 65.1341 106.698C65.1207 106.533 65.1341 106.363 65.1341 105.934H111.705C112.205 105.934 112.714 105.97 113.21 105.912C114.617 105.742 115.648 104.626 115.528 103.327C115.403 101.929 114.594 101.094 113.179 100.942C112.625 100.884 112.067 100.92 111.509 100.92H58.2393V95.2752H140.954V100.92H138.865C134.35 100.92 129.835 100.911 125.325 100.924C123.378 100.933 122.248 101.884 122.262 103.443C122.275 104.997 123.405 105.921 125.365 105.93C128.192 105.948 131.019 105.934 133.957 105.934C133.573 110.784 133.211 115.437 132.836 120.09C132.099 129.245 131.34 138.403 130.639 147.562C130.527 148.996 130.197 150.161 129.201 151.313C124.231 157.056 124.146 165.482 128.857 171.48C129.161 171.868 129.478 172.248 129.907 172.775C125.981 173.695 122.86 175.7 120.471 179.009ZM141.419 172.529C135.319 172.533 130.335 167.537 130.398 161.486C130.465 155.462 135.404 150.567 141.41 150.572C147.523 150.576 152.413 155.506 152.386 161.642C152.359 167.684 147.483 172.525 141.419 172.529Z" stroke="#C1AC7F" stroke-width="1.5" stroke-miterlimit="10"/>
<path d="M198.064 99.8033C198.064 131.093 183.48 158.976 160.732 177.026C159.415 178.071 158.066 179.084 156.695 180.067C146.724 187.18 135.373 192.481 123.119 195.495C121.413 195.915 119.685 196.29 117.944 196.616C117.559 196.692 117.175 196.759 116.791 196.826C111.187 197.817 105.418 198.335 99.5321 198.335C93.6465 198.335 87.877 197.817 82.2728 196.826C81.8396 196.75 81.402 196.67 80.9689 196.589C79.33 196.277 77.7045 195.924 76.097 195.531C63.7587 192.521 52.3314 187.189 42.3062 180.022C40.9532 179.053 39.6269 178.053 38.3274 177.026C15.5844 158.972 1 131.093 1 99.8033C1 45.3862 45.115 1.27563 99.5321 1.27563C153.949 1.27563 198.064 45.3862 198.064 99.8033Z" stroke="#C1AC7F" stroke-width="1.5" stroke-miterlimit="10"/>
</svg>
