<svg width="199" height="288" viewBox="0 0 199 288" fill="none" xmlns="http://www.w3.org/2000/svg">
<path d="M166.783 145.468C162.501 135.157 155.057 128.767 144.12 126.516C143.004 126.288 142.696 125.882 142.741 124.77C143.143 114.749 141.982 104.885 139.744 95.1189C139.49 93.998 139.539 92.6807 139.865 91.5732C142.357 83.0709 142.906 74.4926 140.95 65.8339C140.182 62.4311 139.083 59.1088 138.114 55.6658C138.213 55.5899 138.378 55.447 138.552 55.322C138.731 55.188 138.932 55.0853 139.106 54.9469C141.714 52.8347 142.875 50.142 142.111 46.8241C141.316 43.3856 139.048 41.3225 135.614 40.6795C134.319 40.4384 132.939 40.6616 131.617 40.5143C131.059 40.4473 130.331 40.1168 130.045 39.6703C126.165 33.5793 120.493 30.1408 113.607 28.569C110.857 27.9393 108.034 27.6312 105.244 27.1802H93.8787C92.289 27.4035 90.6993 27.6089 89.114 27.8545C81.987 28.953 75.4093 31.3376 70.9437 37.308C69.1307 39.7283 67.3981 40.7242 64.3347 40.6706C59.2931 40.5768 55.7743 45.73 57.0693 50.6153C57.6766 52.8972 59.1502 54.4914 61.1463 55.7328C61.0302 56.099 60.9499 56.4116 60.8337 56.7108C56.3414 68.5087 55.6805 80.4317 59.5477 92.5333C59.7352 93.1183 59.6727 93.8462 59.5298 94.4624C57.2033 104.434 55.9484 114.517 56.3816 124.77C56.4263 125.869 56.1315 126.266 55.0151 126.521C47.1737 128.32 40.1806 131.647 35.9652 138.872C33.6297 142.882 31.6515 147.169 30.0662 151.532C28.4229 156.042 27.0832 160.637 25.8998 165.277C27.3154 166.867 28.7801 168.412 30.2984 169.908C31.5086 164.955 32.8527 160.034 34.4112 155.167C36.1661 149.701 38.1667 144.325 41.8106 139.756C43.628 137.475 45.7983 135.626 48.5401 134.402C49.728 135.934 50.8399 137.367 52.0188 138.886C45.1642 143.972 41.7302 150.96 39.5644 158.744C38.4748 162.656 37.2289 166.523 36.2197 170.453C35.8803 171.779 35.5409 173.109 35.206 174.44C36.7064 175.735 38.2471 176.986 39.8234 178.187C40.6763 174.815 41.5471 171.448 42.4402 168.09C43.6861 163.424 45.1284 158.793 46.7986 154.26C48.4553 149.755 51.3311 146.039 55.292 143.137C55.7207 143.668 56.0779 144.097 56.4173 144.53C69.9568 161.937 83.4919 179.348 97.0359 196.75C98.3443 198.434 99.8581 198.773 101.18 197.746C102.524 196.701 102.555 195.192 101.265 193.486C101.131 193.307 100.992 193.128 100.858 192.954C85.5416 173.261 70.2248 153.568 54.908 133.875C54.5597 133.424 54.2515 132.938 53.7916 132.277C55.8949 131.821 57.7213 131.549 59.4673 131.017C61.0258 130.544 61.9412 130.932 62.9504 132.241C79.589 153.725 96.2857 175.168 112.973 196.616C113.188 196.888 113.402 197.13 113.616 197.335C114.822 198.501 116.068 198.639 117.22 197.75C117.662 197.406 117.966 197.018 118.122 196.585C118.453 195.674 118.153 194.58 117.216 193.356C117.01 193.088 116.805 192.825 116.599 192.561C114.733 190.159 112.866 187.761 110.977 185.332C121.989 171.176 132.885 157.168 143.772 143.168C147.934 145.901 151.636 150.898 153.337 157.016C155.311 164.094 157.209 171.198 159.089 178.303C160.665 177.106 162.201 175.865 163.697 174.579C162.251 169.05 160.795 163.531 159.312 158.012C157.874 152.653 155.673 147.616 151.94 143.378C150.515 141.757 149.1 140.118 147.541 138.332C148.34 137.3 149.452 135.871 150.604 134.393C154.9 136.47 158.008 139.68 159.911 143.78C162.126 148.558 164.336 153.434 165.653 158.503C166.654 162.37 167.609 166.25 168.529 170.14C170.123 168.577 171.664 166.96 173.151 165.29C171.45 158.561 169.462 151.916 166.783 145.468ZM81.5717 35.5397C85.6175 33.6418 89.9491 32.9675 94.3565 32.704C100.992 32.3021 107.606 32.3915 114.063 34.2268C117.868 35.303 121.217 37.1562 123.976 40.4741H75.2217C76.9901 38.1475 79.1514 36.6694 81.5717 35.5397ZM64.4106 45.9533C64.9465 45.8417 65.5181 45.8997 66.0763 45.8997H133.091C133.591 45.8997 134.1 45.8506 134.591 45.931C136.038 46.1676 136.882 47.034 136.976 48.5076C137.06 49.8874 136.002 51.044 134.551 51.2182C134.055 51.2762 133.551 51.245 133.046 51.245H66.0316C65.4779 51.245 64.9018 51.2985 64.366 51.1824C63.0174 50.8967 62.1823 50.0348 62.16 48.6326C62.1332 47.1545 62.9772 46.2436 64.4106 45.9533ZM137.386 125.105C134.721 124.556 132.247 124.042 129.273 123.426C131.349 116.603 133.35 110.007 135.355 103.411C135.556 103.438 135.757 103.465 135.957 103.492C137.172 110.61 137.744 117.764 137.386 125.105ZM61.7403 125.114C61.3785 117.79 61.9546 110.641 63.2407 103.032C66.0093 109.891 68.2421 116.424 69.4344 123.529C66.8354 124.064 64.3972 124.569 61.7403 125.114ZM81.4735 147.41C79.4059 144.744 77.5661 142.404 75.7799 140.024C75.5477 139.716 75.5075 139.185 75.5343 138.77C76.3292 126.279 73.4802 114.473 69.0101 102.938C66.5988 96.7175 64.1248 90.5104 62.9951 83.8791C61.4366 74.7158 62.9013 65.9366 66.3442 57.4119C66.4916 57.0412 67.0944 56.7867 67.5365 56.6215C67.8804 56.492 68.3091 56.5947 68.6976 56.5947H132.457C134.341 61.029 135.64 65.5883 136.337 70.3351C137.677 79.485 135.703 88.1392 132.51 96.6282C129.558 104.483 126.41 112.275 124.834 120.581C123.74 126.355 123.275 132.161 123.61 138.024C123.682 139.216 123.387 140.14 122.623 141.06C120.998 143.016 119.48 145.061 118.015 146.937C117.559 127.833 119.225 108.944 124.387 90.4479C125.352 86.9871 125.923 83.3611 126.205 79.7708C126.959 70.286 122.463 63.7395 113.116 61.0557C103.877 58.4032 94.4994 58.4166 85.2915 61.2924C76.155 64.1504 71.5466 71.3711 73.0515 80.8515C74.2393 88.3625 76.0121 95.7887 77.6286 103.228C79.6917 112.726 80.9912 122.283 80.8929 132.031C80.8438 136.586 81.2636 141.15 81.469 145.709C81.4869 146.129 81.469 146.548 81.469 147.41H81.4735ZM85.421 116.312C89.2524 117.875 92.9231 119.371 96.8037 120.952V125.837C93.0392 125.69 89.6275 124.578 86.4213 122.756C86.1757 122.618 85.9435 122.256 85.9167 121.975C85.7157 120.054 85.5728 118.125 85.421 116.312ZM96.8171 167.126C94.3164 163.91 91.8112 161.231 89.9803 158.145C88.7434 156.069 88.3281 153.461 87.7699 151.036C86.0953 143.766 86.1578 136.372 86.2069 129.106C89.7481 129.968 93.2357 130.812 96.8171 131.683V167.126ZM92.3337 113.539C91.8335 113.289 91.3334 113.048 90.8288 112.811C86.5419 110.784 83.5187 108.127 82.8399 102.809C82.0004 96.2174 80.0579 89.7736 78.7227 83.2361C78.3163 81.2355 78.1779 79.1412 78.2181 77.096C78.3074 72.5813 80.4419 69.2634 84.5279 67.2718C89.2703 64.9586 94.3923 64.7443 101.479 64.5299C103.471 64.8247 107.445 65.0792 111.241 66.0393C118.68 67.9193 121.989 72.9251 120.752 80.5076C119.694 86.9737 118.144 93.3639 116.8 99.7809C116.323 102.067 115.729 104.336 115.362 106.636C115.161 107.895 114.706 108.841 113.625 109.493C111.397 110.847 109.231 112.329 106.918 113.526C102.095 116.022 97.1966 115.96 92.3337 113.539ZM113.683 116.415C113.527 118.215 113.371 120.215 113.165 122.207C113.143 122.426 112.866 122.68 112.647 122.805C109.463 124.596 106.074 125.672 102.314 125.851V120.974C106.186 119.425 109.87 117.947 113.683 116.415ZM102.283 131.678C105.824 130.821 109.303 129.977 112.924 129.102C112.924 130.589 112.924 132.228 112.92 133.866C112.906 141.181 112.451 148.446 110.214 155.466C109.736 156.962 108.945 158.413 108.039 159.699C106.315 162.138 104.404 164.437 102.283 167.166V131.678ZM107.592 180.969C106.021 178.959 104.538 177.061 102.948 175.025C107.342 169.376 111.647 163.848 115.952 158.311C122.784 149.523 129.634 140.748 136.422 131.924C137.23 130.87 137.998 130.593 139.231 130.915C141.155 131.419 143.107 131.79 145.433 132.308C132.751 148.616 120.275 164.665 107.592 180.969Z" stroke="#C1AC7F" stroke-width="1.5" stroke-miterlimit="10"/>
<path d="M64.8036 188.878C64.8036 189.396 64.7947 189.914 64.7947 190.432C64.7947 190.95 64.7947 191.503 64.8036 192.039C62.9861 191.356 61.1955 190.619 59.436 189.833C59.436 188.275 59.4494 186.716 59.4673 185.153C59.4852 183.43 60.5747 182.309 62.0886 182.291C63.6649 182.269 64.7545 183.43 64.7902 185.251C64.817 186.457 64.8081 187.667 64.8036 188.878Z" stroke="#C1AC7F" stroke-width="1.5" stroke-miterlimit="10"/>
<path d="M134.323 192.017C134.323 191.405 134.323 190.793 134.323 190.181C134.323 188.565 134.301 186.953 134.323 185.336C134.354 183.474 135.364 182.322 136.94 182.291C138.512 182.259 139.637 183.42 139.655 185.233C139.673 186.761 139.682 188.283 139.682 189.806C137.922 190.592 136.132 191.329 134.314 192.017H134.323Z" stroke="#C1AC7F" stroke-width="1.5" stroke-miterlimit="10"/>
<path d="M198.06 99.8033C198.06 124.944 188.646 147.884 173.151 165.29C171.664 166.96 170.123 168.577 168.529 170.14C166.966 171.672 165.359 173.154 163.697 174.579C162.201 175.865 160.665 177.106 159.089 178.303C153.119 182.84 146.617 186.712 139.691 189.806C137.931 190.592 136.141 191.329 134.323 192.017C129.121 193.981 123.704 195.518 118.122 196.585C116.631 196.871 115.13 197.121 113.616 197.335C109.017 197.996 104.315 198.335 99.5321 198.335C87.3099 198.335 75.6057 196.107 64.8036 192.039C62.9861 191.356 61.1955 190.619 59.436 189.833C52.4251 186.707 45.8519 182.786 39.8234 178.187C38.2471 176.986 36.7064 175.735 35.206 174.44C33.518 172.985 31.8837 171.475 30.2984 169.908C28.7801 168.412 27.3154 166.867 25.8998 165.277C10.4089 147.87 1 124.935 1 99.8033C1 45.3862 45.115 1.27563 99.5321 1.27563C153.949 1.27563 198.06 45.3862 198.06 99.8033Z" stroke="#C1AC7F" stroke-width="1.5" stroke-miterlimit="10"/>
<rect x="16" y="278.778" width="12.7279" height="12.7279" transform="rotate(-45 16 278.778)" fill="#C1AC7F"/>
<rect x="165" y="279" width="12.7279" height="12.7279" transform="rotate(-45 165 279)" fill="#C1AC7F"/>
</svg>
